<svg width="66" height="194" viewBox="0 0 66 194" fill="none" xmlns="http://www.w3.org/2000/svg">
<path d="M28 82H38L34.5 150H32.5L28 82Z" fill="black"/>
<circle cx="33" cy="69" r="16" fill="#010101"/>
<rect x="0.5" y="0.5" width="65" height="76" rx="19.5" fill="#F6F6F6" stroke="black"/>
<circle cx="33" cy="170" r="23.5" fill="#F6F6F6" stroke="black"/>
<circle cx="33" cy="170" r="11" fill="#010101"/>
<path d="M37.4 47H35.552C35.472 47 35.416 46.952 35.384 46.856L33.752 42.488H26.912L25.376 46.856C25.344 46.952 25.28 47 25.184 47H23.36C23.28 47 23.216 46.976 23.168 46.928C23.136 46.864 23.136 46.792 23.168 46.712L29.12 30.536C29.12 30.44 29.176 30.392 29.288 30.392H31.568C31.664 30.392 31.728 30.44 31.76 30.536L37.592 46.712C37.624 46.792 37.616 46.864 37.568 46.928C37.536 46.976 37.48 47 37.4 47ZM30.392 33.008L27.632 40.616H33.104L30.392 33.008ZM41.6056 47H39.7096C39.5976 47 39.5416 46.928 39.5416 46.784V30.608C39.5416 30.464 39.5976 30.392 39.7096 30.392H41.6056C41.7176 30.392 41.7736 30.464 41.7736 30.608V46.784C41.7736 46.928 41.7176 47 41.6056 47Z" fill="black"/>
</svg>
