<svg width="200" height="313" viewBox="0 0 200 313" fill="none" xmlns="http://www.w3.org/2000/svg">
<rect width="200" height="300" fill="#C9C0FC"/>
<mask id="mask0_51_72" style="mask-type:alpha" maskUnits="userSpaceOnUse" x="0" y="13" width="200" height="300">
<rect y="13" width="200" height="300" fill="#D9D9D9"/>
</mask>
<g mask="url(#mask0_51_72)">
<path d="M129.051 134.606L123.427 149.8C138.139 155.152 147.963 165.592 148.457 176.402C148.607 179.803 147.828 183.298 146.131 186.789L160.833 193.805C163.708 187.88 165.021 181.784 164.75 175.678C163.956 158.327 149.946 142.219 129.051 134.606Z" fill="#DD6422"/>
<path d="M129.746 133.067C129.598 133.008 129.44 132.98 129.282 132.985C129.124 132.99 128.968 133.027 128.824 133.094C128.68 133.161 128.551 133.257 128.445 133.376C128.339 133.495 128.257 133.634 128.206 133.786L122.687 148.981C122.58 149.286 122.594 149.62 122.727 149.914C122.792 150.058 122.885 150.187 123 150.294C123.115 150.402 123.251 150.484 123.398 150.538C137.379 155.723 146.71 165.734 147.18 176.046C147.313 179.246 146.587 182.548 145.016 185.853C144.877 186.144 144.857 186.48 144.962 186.785C145.013 186.935 145.094 187.073 145.198 187.19C145.303 187.308 145.43 187.404 145.572 187.472L159.996 194.489C160.158 194.572 160.337 194.615 160.519 194.616C160.745 194.616 160.966 194.552 161.157 194.43C161.348 194.308 161.5 194.133 161.597 193.927C164.504 187.827 165.841 181.529 165.559 175.215C164.757 157.389 150.697 140.843 129.746 133.067ZM159.942 191.771L147.672 185.803C149.079 182.491 149.72 179.181 149.573 175.934C149.081 164.926 139.615 154.328 125.353 148.688L130.041 135.758C149.47 143.359 162.421 158.784 163.171 175.315C163.397 180.857 162.32 186.383 159.934 191.771H159.942Z" fill="#343538"/>
<path d="M91.5036 67.7001C86.246 58.5145 73.0213 58.5145 67.7637 67.7001L-9.35984 202.471C-14.5801 211.611 -8.00505 222.999 2.50762 222.999H156.76C167.272 222.999 173.857 211.611 168.63 202.471L91.5036 67.7001Z" fill="#DD6422"/>
<path d="M92.9549 67.4654C91.6636 65.1891 89.7867 63.2974 87.5176 61.9852C85.2485 60.673 82.6693 59.9878 80.0461 60.0004C77.4191 59.9822 74.835 60.6648 72.5617 61.9774C70.2884 63.29 68.4087 65.1848 67.1174 67.4654L-10.0245 201.576C-11.3243 203.834 -12.0055 206.393 -11.9997 208.997C-11.994 211.6 -11.3015 214.156 -9.99168 216.409C-8.6819 218.661 -6.80092 220.531 -4.53745 221.83C-2.27398 223.129 0.292372 223.812 2.90414 223.81H157.183C159.794 223.81 162.36 223.126 164.622 221.827C166.885 220.528 168.765 218.658 170.075 216.406C171.384 214.154 172.077 211.599 172.083 208.996C172.09 206.393 171.41 203.834 170.112 201.576L92.9549 67.4654ZM167.966 215.18C166.88 217.074 165.308 218.646 163.411 219.735C161.515 220.824 159.362 221.39 157.173 221.376H2.89421C0.708455 221.377 -1.43908 220.805 -3.33305 219.717C-5.22702 218.629 -6.80085 217.064 -7.89668 215.179C-8.99252 213.294 -9.57185 211.155 -9.57658 208.976C-9.58131 206.797 -9.01126 204.655 -7.92362 202.765L69.2134 68.655C70.3085 66.7613 71.8846 65.1885 73.7832 64.095C75.6819 63.0014 77.8359 62.4257 80.0287 62.4257C82.2215 62.4257 84.3755 63.0014 86.2741 64.095C88.1727 65.1885 89.7489 66.7613 90.844 68.655L167.998 202.773C169.097 204.659 169.674 206.802 169.668 208.983C169.662 211.164 169.075 213.304 167.966 215.185V215.18Z" fill="#343538"/>
<path d="M124.19 208L123.427 224.013L244.679 230.297L244.833 227.055L247.501 185.696L219.634 213.063L124.19 208Z" fill="#DD6422"/>
<path d="M248.417 184.177C248.191 184.078 247.941 184.049 247.699 184.094C247.457 184.139 247.233 184.255 247.056 184.428C237.835 193.592 228.613 202.75 219.39 211.902L123.846 206.779C123.513 206.644 123.204 206.867 122.968 207.09C122.85 207.199 122.754 207.33 122.686 207.477C122.618 207.623 122.58 207.781 122.573 207.943L121.807 224.241C121.792 224.563 121.904 224.878 122.119 225.117C122.334 225.357 122.634 225.5 122.953 225.517L245.01 231.916C245.031 231.92 245.053 231.92 245.074 231.916C245.375 231.913 245.664 231.799 245.888 231.598C246.006 231.489 246.103 231.358 246.17 231.212C246.238 231.065 246.277 230.907 246.283 230.745L249.121 185.36C249.135 185.115 249.075 184.87 248.95 184.659C248.824 184.448 248.639 184.28 248.417 184.177ZM244.015 227.34L243.92 229.411L124.301 223.143L124.948 209.287L219.805 214.369C220.168 214.522 220.477 214.274 220.723 214.018C229.319 205.493 237.915 196.959 246.509 188.417L244.015 227.34Z" fill="#343538"/>
<path d="M83.2648 164.764H83.2501C79.7731 164.764 76.6233 162.452 75.3976 159.03L73.1488 159.755C74.692 164.105 78.7647 167.03 83.2501 167.044H83.2648C87.821 167.044 91.8938 164.074 93.4223 159.646L91.1564 158.935C89.955 162.422 86.7882 164.764 83.2648 164.764Z" fill="#343538"/>
<path d="M69.0941 133.796C67.4902 133.796 65.9224 134.271 64.5888 135.162C63.2552 136.053 62.2158 137.32 61.602 138.802C60.9882 140.283 60.8277 141.914 61.1406 143.487C61.4535 145.06 62.2258 146.505 63.3599 147.639C64.4941 148.773 65.939 149.546 67.5121 149.858C69.0851 150.171 70.7157 150.011 72.1975 149.397C73.6792 148.783 74.9458 147.744 75.8368 146.41C76.7279 145.077 77.2035 143.509 77.2035 141.905C77.2035 139.754 76.3491 137.692 74.8283 136.171C73.3075 134.65 71.2449 133.796 69.0941 133.796Z" fill="white"/>
<mask id="mask1_51_72" style="mask-type:luminance" maskUnits="userSpaceOnUse" x="61" y="133" width="17" height="18">
<path d="M69.4374 150.091C73.8825 150.091 77.4859 146.487 77.4859 142.042C77.4859 137.597 73.8825 133.994 69.4374 133.994C64.9923 133.994 61.3889 137.597 61.3889 142.042C61.3889 146.487 64.9923 150.091 69.4374 150.091Z" fill="white"/>
</mask>
<g mask="url(#mask1_51_72)">
<path d="M75.9367 133.616C74.3449 133.616 72.7888 134.088 71.4652 134.973C70.1416 135.857 69.11 137.114 68.5009 138.585C67.8917 140.055 67.7323 141.674 68.0428 143.235C68.3534 144.796 69.1199 146.23 70.2455 147.356C71.3712 148.482 72.8053 149.248 74.3665 149.559C75.9278 149.869 77.5461 149.71 79.0168 149.101C80.4874 148.492 81.7444 147.46 82.6288 146.136C83.5132 144.813 83.9852 143.257 83.9852 141.665C83.9856 140.608 83.7776 139.561 83.3732 138.584C82.9689 137.608 82.3761 136.72 81.6286 135.973C80.8812 135.226 79.9938 134.633 79.0172 134.228C78.0405 133.824 76.9938 133.616 75.9367 133.616Z" fill="#343538"/>
</g>
<path d="M97.4768 150.014C101.956 150.014 105.586 146.384 105.586 141.905C105.586 137.426 101.956 133.796 97.4768 133.796C92.9981 133.796 89.3674 137.426 89.3674 141.905C89.3674 146.384 92.9981 150.014 97.4768 150.014Z" fill="white"/>
<mask id="mask2_51_72" style="mask-type:luminance" maskUnits="userSpaceOnUse" x="89" y="133" width="17" height="18">
<path d="M97.3243 150.091C101.769 150.091 105.373 146.487 105.373 142.042C105.373 137.597 101.769 133.994 97.3243 133.994C92.8792 133.994 89.2758 137.597 89.2758 142.042C89.2758 146.487 92.8792 150.091 97.3243 150.091Z" fill="white"/>
</mask>
<g mask="url(#mask2_51_72)">
<path d="M103.821 149.713C108.266 149.713 111.87 146.11 111.87 141.665C111.87 137.22 108.266 133.616 103.821 133.616C99.376 133.616 95.7726 137.22 95.7726 141.665C95.7726 146.11 99.376 149.713 103.821 149.713Z" fill="#343538"/>
</g>
<path d="M166.004 156.379L154.243 163.825L181.004 192.183L172.672 158.986C172.503 158.316 172.175 157.696 171.713 157.176C171.252 156.657 170.672 156.253 170.02 155.998C169.368 155.743 168.663 155.644 167.965 155.711C167.267 155.777 166.594 156.006 166.004 156.379Z" fill="#DEF8DA"/>
<path d="M170.52 155.27C169.714 154.945 168.842 154.82 167.977 154.906C167.113 154.991 166.282 155.285 165.555 155.761L154.243 163.063L155.537 165.075L166.849 157.773C167.258 157.509 167.724 157.346 168.209 157.298C168.693 157.25 169.182 157.319 169.635 157.498C170.088 157.678 170.491 157.962 170.812 158.329C171.132 158.696 171.361 159.134 171.478 159.607L179.493 192.183L181.815 191.606L173.8 159.035C173.599 158.188 173.195 157.403 172.624 156.747C172.052 156.091 171.33 155.584 170.52 155.27Z" fill="#343538"/>
<path d="M159.919 157.377L179.382 190.561C173.863 178.668 168.345 166.774 162.828 154.88L159.919 157.377Z" fill="#87CEDA"/>
<path d="M163.648 154.75C163.567 154.585 163.448 154.44 163.302 154.326C163.155 154.212 162.984 154.132 162.802 154.092C162.618 154.058 162.429 154.062 162.248 154.104C162.066 154.147 161.895 154.227 161.747 154.338L158.733 156.831C158.485 157.039 158.33 157.333 158.302 157.652C158.274 157.97 158.374 158.287 158.582 158.533C158.685 158.655 158.812 158.756 158.955 158.83C159.098 158.903 159.255 158.948 159.416 158.962C159.577 158.976 159.739 158.958 159.893 158.91C160.047 158.861 160.19 158.784 160.313 158.681L162.109 157.201L178.648 191.455C178.713 191.603 178.808 191.738 178.928 191.85C179.047 191.961 179.188 192.049 179.342 192.106C179.497 192.163 179.661 192.189 179.826 192.182C179.991 192.175 180.153 192.136 180.302 192.067C180.451 191.997 180.584 191.899 180.694 191.778C180.803 191.657 180.887 191.515 180.94 191.362C180.992 191.208 181.013 191.046 181 190.884C180.987 190.723 180.941 190.565 180.865 190.421L163.648 154.75Z" fill="#343538"/>
<path d="M155.053 156.908L179.382 190.561C172.178 178.667 164.976 166.774 157.777 154.88L155.053 156.908Z" fill="#87CEDA"/>
<path d="M159.22 154.659C159.131 154.515 159.014 154.391 158.875 154.293C158.736 154.195 158.579 154.127 158.413 154.091C158.247 154.059 158.077 154.062 157.912 154.098C157.747 154.134 157.591 154.204 157.454 154.302L154.731 156.33C154.472 156.523 154.301 156.81 154.255 157.128C154.209 157.447 154.292 157.77 154.485 158.027C154.678 158.285 154.966 158.455 155.286 158.501C155.605 158.547 155.93 158.465 156.188 158.272L157.828 157.048L178.729 191.585C178.838 191.768 178.993 191.919 179.179 192.024C179.365 192.129 179.575 192.184 179.788 192.183C180.008 192.178 180.223 192.119 180.413 192.009C180.69 191.843 180.889 191.574 180.967 191.262C181.046 190.95 180.997 190.62 180.832 190.343L159.22 154.659Z" fill="#343538"/>
<path d="M147.755 158.802L179.382 190.561C170.652 178.94 161.924 167.317 153.198 155.691C151.381 156.731 149.567 157.768 147.755 158.802Z" fill="#87CEDA"/>
<path d="M153.944 154.555C153.761 154.32 153.501 154.157 153.209 154.096C152.918 154.035 152.614 154.079 152.352 154.221L146.791 157.407C146.645 157.483 146.516 157.588 146.411 157.715C146.307 157.843 146.229 157.99 146.183 158.147C146.136 158.305 146.122 158.471 146.142 158.635C146.161 158.798 146.213 158.956 146.295 159.099C146.377 159.242 146.486 159.367 146.618 159.466C146.749 159.566 146.899 159.638 147.058 159.678C147.218 159.719 147.384 159.726 147.547 159.701C147.71 159.675 147.866 159.617 148.006 159.53L152.634 156.894L178.79 191.681C178.904 191.835 179.051 191.961 179.222 192.049C179.393 192.136 179.582 192.182 179.774 192.183C180.04 192.183 180.298 192.095 180.508 191.932C180.638 191.836 180.747 191.715 180.83 191.577C180.913 191.439 180.967 191.285 180.991 191.126C181.014 190.966 181.006 190.804 180.966 190.648C180.926 190.491 180.856 190.345 180.76 190.215L153.944 154.555Z" fill="#343538"/>
<path d="M147.935 156.89C146.778 155.713 145.233 155.003 143.592 154.894C141.95 154.786 140.325 155.285 139.025 156.299C121.373 170.083 115.302 177.716 97.6466 191.495C96.9021 192.076 96.2873 192.808 95.8422 193.643C95.397 194.478 95.1313 195.398 95.0623 196.343C94.9934 197.288 95.1227 198.237 95.4419 199.129C95.7611 200.021 96.2631 200.835 96.9153 201.519L126.222 232.269C127.381 233.485 128.951 234.222 130.622 234.336C132.294 234.45 133.948 233.933 135.26 232.885C152.92 218.783 160.793 212.72 178.461 198.617C179.2 198.026 179.808 197.285 180.244 196.443C180.68 195.6 180.935 194.675 180.992 193.727C181.048 192.778 180.906 191.829 180.574 190.94C180.242 190.05 179.727 189.242 179.063 188.566L147.935 156.89Z" fill="#DEF8DA"/>
<path d="M148.393 155.627C147.029 154.239 145.205 153.402 143.268 153.275C141.332 153.148 139.415 153.739 137.883 154.936C129.019 161.854 122.966 167.303 117.12 172.588C111.305 177.823 105.285 183.265 96.4928 190.125C95.6149 190.81 94.8899 191.672 94.3646 192.657C93.8394 193.641 93.5257 194.726 93.4439 195.84C93.3621 196.954 93.514 198.073 93.8897 199.125C94.2654 200.176 94.8566 201.136 95.625 201.943L124.945 232.695C126.309 234.136 128.161 235.01 130.135 235.145C132.109 235.279 134.061 234.665 135.607 233.423C144.431 226.381 150.823 221.335 157.205 216.297C163.588 211.259 169.977 206.211 178.816 199.154C179.689 198.457 180.406 197.582 180.92 196.588C181.435 195.593 181.734 194.501 181.801 193.382C181.867 192.263 181.698 191.143 181.305 190.094C180.911 189.046 180.303 188.092 179.518 187.296L148.393 155.627ZM179.387 193.246C179.339 194.023 179.129 194.782 178.771 195.473C178.412 196.163 177.914 196.77 177.306 197.254C168.482 204.297 162.092 209.342 155.71 214.383C149.328 219.423 142.941 224.469 134.092 231.523C133.017 232.381 131.662 232.806 130.293 232.714C128.923 232.621 127.637 232.019 126.685 231.025L97.3756 200.266C96.8399 199.705 96.4274 199.037 96.1651 198.305C95.9027 197.573 95.7962 196.794 95.8526 196.019C95.9089 195.243 96.1268 194.488 96.4921 193.802C96.8574 193.117 97.362 192.516 97.9731 192.039C106.837 185.124 112.89 179.675 118.736 174.39C124.551 169.155 130.571 163.711 139.363 156.851C140.43 156.019 141.763 155.609 143.11 155.698C144.457 155.787 145.726 156.369 146.675 157.334L177.805 189.008C178.348 189.564 178.77 190.229 179.043 190.959C179.315 191.688 179.433 192.468 179.389 193.246H179.387Z" fill="#343538"/>
<path d="M111.234 192.126C111.175 191.601 111.011 191.094 110.753 190.632C110.494 190.171 110.146 189.765 109.729 189.438C109.311 189.111 108.833 188.87 108.321 188.728C107.809 188.586 107.273 188.546 106.746 188.611C103.337 189.015 100.08 190.021 96.9375 191.34C97.3074 191.093 97.6127 190.812 98.0124 190.576C100.792 188.937 103.896 187.914 107.111 187.576C108.175 187.461 109.151 186.931 109.822 186.102C110.493 185.273 110.805 184.213 110.689 183.156C110.573 182.098 110.039 181.13 109.204 180.464C108.369 179.798 107.302 179.488 106.237 179.603C101.868 180.066 97.6528 181.461 93.8791 183.694C90.5926 185.65 87.7154 188.214 85.4041 191.248C63.8068 199.012 42.3635 197.351 30.7903 186.038C24.2143 179.603 21.7145 171.295 21.7145 171.292C18.1746 159.511 22.3351 149.384 23.7526 146.286C27.3323 139.965 30.9111 133.639 34.4892 127.308C30.2467 129.457 18.7678 135.988 12.2291 149.786C10.3648 153.714 5.29067 164.421 8.50543 177.429C10.9755 187.384 17.0425 193.508 19.7062 196.175C33.2107 209.704 51.4542 210.421 60.3314 210.776C68.2206 211.082 76.1106 210.191 83.7284 208.131C86.3524 208.555 88.3185 208.772 88.9887 208.767C89.2713 208.762 89.5529 208.733 89.8303 208.678C90.151 208.61 90.462 208.502 90.7562 208.358C95.4675 206.066 100.791 205.322 105.956 206.233C106.983 206.36 108.02 206.09 108.853 205.48C109.686 204.869 110.251 203.964 110.431 202.952C110.611 201.94 110.393 200.898 109.822 200.041C109.251 199.184 108.37 198.578 107.361 198.347C105.611 198.051 103.839 197.898 102.064 197.888C103.889 197.264 105.774 196.828 107.689 196.584C108.217 196.524 108.728 196.361 109.193 196.104C109.657 195.847 110.066 195.501 110.395 195.087C110.725 194.673 110.968 194.198 111.112 193.689C111.256 193.181 111.298 192.65 111.234 192.126Z" fill="#DD6422"/>
<path d="M110.949 196.086C111.377 195.54 111.693 194.915 111.879 194.246C112.066 193.577 112.119 192.878 112.035 192.189C111.952 191.5 111.734 190.834 111.393 190.23C111.052 189.625 110.596 189.094 110.05 188.667C109.778 188.453 109.484 188.268 109.173 188.114C109.866 187.653 110.439 187.034 110.846 186.308C111.254 185.581 111.484 184.769 111.518 183.936C111.552 183.104 111.388 182.275 111.041 181.518C110.694 180.761 110.173 180.097 109.521 179.581C108.986 179.157 108.372 178.843 107.716 178.657C107.059 178.471 106.373 178.417 105.695 178.498C101.156 178.989 96.7751 180.453 92.8501 182.791C89.5342 184.782 86.6204 187.378 84.2601 190.446C62.9093 198.079 42.1221 196.101 31.2356 185.337C24.9719 179.153 22.4942 171.047 22.4694 170.967C19.3313 160.425 22.3602 151.157 24.4034 146.657L35.1409 127.494C35.268 127.267 35.3188 127.004 35.2856 126.746C35.2524 126.487 35.1371 126.246 34.9567 126.058C34.7763 125.87 34.5403 125.746 34.2838 125.703C34.0272 125.66 33.7637 125.701 33.5321 125.819C27.6929 128.806 16.9629 135.792 10.724 149.086C8.77512 153.23 3.60625 164.23 6.92803 177.801C9.48516 188.209 15.7638 194.575 18.4475 197.295C32.261 211.262 50.8809 212.031 59.8904 212.394C60.9157 212.442 61.9411 212.456 62.9664 212.456C69.8655 212.449 76.7342 211.54 83.3986 209.751C85.7819 210.132 87.7383 210.368 88.5501 210.368C88.938 210.402 89.3286 210.362 89.702 210.251C90.1139 210.157 90.5138 210.016 90.8937 209.831C93.3541 208.632 96.0021 207.867 98.7215 207.569C100.934 207.324 103.171 207.398 105.363 207.79C106.615 208.002 107.901 207.751 108.982 207.085C110.064 206.419 110.868 205.382 111.246 204.167C111.624 202.952 111.549 201.641 111.036 200.476C110.523 199.312 109.606 198.374 108.456 197.835C109.442 197.514 110.31 196.904 110.949 196.086ZM107.155 195.643C105.161 195.901 103.197 196.36 101.294 197.012C101.022 197.102 100.79 197.286 100.641 197.531C100.491 197.776 100.433 198.067 100.476 198.351C100.52 198.635 100.662 198.894 100.878 199.083C101.094 199.272 101.369 199.378 101.656 199.383C103.367 199.39 105.074 199.538 106.76 199.826C107.498 199.959 108.153 200.378 108.584 200.993C109.014 201.608 109.184 202.369 109.057 203.109C108.916 203.844 108.495 204.495 107.884 204.924C107.273 205.354 106.519 205.528 105.782 205.411C103.365 204.991 100.901 204.907 98.4608 205.162C95.4644 205.488 92.5466 206.33 89.8361 207.651C89.6274 207.751 89.4085 207.827 89.1832 207.88C88.9849 207.916 88.7839 207.935 88.5824 207.937C87.9369 207.857 86.0997 207.738 83.5327 207.31C83.362 207.281 83.187 207.292 83.0212 207.342C75.5013 209.381 67.7169 210.266 59.9326 209.968C51.2954 209.612 33.3161 208.878 20.173 195.59C17.6307 193.012 11.6823 186.977 9.28406 177.219C6.16834 164.494 11.0765 154.054 12.9211 150.117C17.6953 139.953 25.2376 133.666 30.9005 130.107L22.246 145.552C20.0116 150.455 16.7841 160.358 20.1556 171.659C20.2574 172.015 22.8145 180.422 29.5375 187.057C41.1414 198.532 63.098 200.7 85.417 192.602C85.6365 192.525 85.8283 192.384 85.9681 192.198C88.1812 189.255 90.9403 186.769 94.0938 184.874C97.7249 182.704 101.78 181.346 105.983 180.892C106.71 180.826 107.435 181.031 108.019 181.469C108.318 181.702 108.566 181.992 108.749 182.324C108.933 182.656 109.046 183.021 109.084 183.398C109.166 184.147 108.947 184.898 108.477 185.485C108.007 186.073 107.323 186.449 106.577 186.532C103.19 186.892 99.9225 187.985 96.9986 189.735C96.7279 189.895 96.469 190.075 96.224 190.272L95.8615 190.541C95.6115 190.708 95.4331 190.963 95.3614 191.256C95.2897 191.548 95.3299 191.857 95.4742 192.121C95.6185 192.386 95.8554 192.589 96.1394 192.69C96.4234 192.791 96.7346 192.783 97.0134 192.669C100.422 191.22 103.523 190.352 106.497 189.996C106.862 189.948 107.232 189.973 107.587 190.07C107.942 190.168 108.274 190.335 108.563 190.563C109.159 191.034 109.545 191.722 109.638 192.477C109.683 192.848 109.654 193.225 109.554 193.585C109.453 193.946 109.283 194.283 109.052 194.577C108.821 194.871 108.535 195.116 108.21 195.299C107.884 195.482 107.526 195.599 107.155 195.643Z" fill="#343538"/>
<path d="M60.1793 223.051C60.152 223.848 60.0332 230.737 65.5258 235.197C69.506 238.43 73.9615 238.385 75.1941 238.33L212.231 244.894L212.373 241.854C213.269 227.731 214.165 213.607 215.063 199.482L187.14 227.348L60.1793 223.051Z" fill="#DD6422"/>
<path d="M215.974 198.771C215.748 198.675 215.499 198.647 215.257 198.691C215.015 198.735 214.792 198.849 214.615 199.018L186.915 226.034L59.8042 221.827C59.0303 221.693 58.56 222.32 58.56 222.988C58.5202 223.808 58.4032 231.164 64.3877 235.911C68.4685 239.163 73.0694 239.303 74.8112 239.249L212.572 245.702C212.59 245.706 212.609 245.706 212.627 245.702C212.932 245.699 213.225 245.585 213.451 245.382C213.569 245.277 213.664 245.149 213.73 245.006C213.797 244.863 213.833 244.708 213.836 244.551L216.683 199.935C216.697 199.693 216.637 199.452 216.51 199.244C216.384 199.037 216.197 198.872 215.974 198.771ZM211.547 241.455L211.46 243.24L74.8063 236.848C73.1839 236.848 69.332 236.762 65.9006 234.028C61.9715 230.912 61.1578 226.439 61.006 224.277L187.358 228.467C187.686 228.445 187.998 228.322 188.251 228.115L214.053 202.947L211.547 241.455Z" fill="#343538"/>
<path d="M102.007 197.049H101.993C101.116 197.056 100.241 197.109 99.3711 197.206C98.7315 197.279 98.1365 197.37 97.5789 197.476C97.3012 197.527 97.0546 197.667 96.887 197.87C96.7194 198.072 96.6428 198.323 96.672 198.573C96.7012 198.823 96.8341 199.054 97.045 199.222C97.2559 199.39 97.5297 199.482 97.8132 199.481C97.8923 199.482 97.9711 199.473 98.0475 199.454C98.5465 199.363 99.0829 199.284 99.6546 199.212C100.438 199.129 101.227 199.084 102.016 199.079C102.32 199.077 102.61 198.968 102.824 198.776C103.037 198.585 103.156 198.326 103.153 198.056C103.151 197.787 103.028 197.53 102.812 197.341C102.596 197.152 102.303 197.047 102 197.049H102.007Z" fill="#343538"/>
</g>
</svg>
