<svg width="200" height="301" viewBox="0 0 200 301" fill="none" xmlns="http://www.w3.org/2000/svg">
<rect width="200" height="300" fill="#DEF8DA"/>
<path d="M131.74 178.478L117.798 178.143L114.9 296.869H115.029L114.954 297.094L125.332 297.122L128.842 297.207V297.141L153.778 297.204L129.375 275.311L131.74 178.478Z" fill="#C9C0FC"/>
<path d="M130.433 274.838L132.791 178.506C132.796 178.228 132.691 177.96 132.5 177.758C132.309 177.557 132.046 177.439 131.768 177.43L117.826 177.092H117.798C117.525 177.093 117.263 177.2 117.067 177.39C116.872 177.58 116.758 177.839 116.75 178.112L113.849 296.825C113.846 296.956 113.869 297.085 113.915 297.207C113.937 297.375 113.999 297.535 114.095 297.674C114.191 297.812 114.317 297.924 114.465 298.003C114.613 298.081 114.777 298.124 114.944 298.126L128.814 298.243H128.839C128.977 298.24 129.114 298.213 129.243 298.16L153.768 298.227C153.98 298.226 154.186 298.162 154.36 298.042C154.534 297.922 154.668 297.752 154.744 297.555C154.82 297.357 154.834 297.142 154.785 296.936C154.736 296.73 154.626 296.544 154.469 296.402L130.433 274.838ZM128.855 296.074C128.725 296.074 128.596 296.1 128.476 296.15L125.37 296.068L115.976 296.046L118.817 179.21L130.67 179.501L128.334 275.267C128.331 275.418 128.361 275.568 128.421 275.706C128.482 275.845 128.571 275.968 128.684 276.069L151.044 296.134L128.855 296.074Z" fill="#343538"/>
<path d="M101.28 180.58L87.3382 180.239L84.4406 298.962H84.57L84.4942 299.186L94.8789 299.211L98.3825 299.297V299.221L123.318 299.284L98.916 277.388L101.28 180.58Z" fill="#C9C0FC"/>
<path d="M99.9732 276.939L102.331 180.602C102.336 180.324 102.232 180.055 102.04 179.854C101.849 179.653 101.586 179.535 101.308 179.525L87.3664 179.185H87.3411C87.0674 179.185 86.8048 179.292 86.6086 179.483C86.4125 179.674 86.2982 179.934 86.29 180.207L83.3893 298.93C83.3876 299.06 83.4079 299.189 83.4492 299.312C83.4699 299.484 83.534 299.648 83.6355 299.789C83.7333 299.926 83.8619 300.038 84.011 300.117C84.1601 300.195 84.3256 300.237 84.494 300.24L98.3539 300.348H98.3792C98.5122 300.347 98.644 300.321 98.7674 300.272L123.315 300.335C123.526 300.333 123.732 300.268 123.905 300.148C124.078 300.028 124.212 299.859 124.288 299.662C124.364 299.465 124.379 299.25 124.331 299.045C124.283 298.84 124.174 298.653 124.019 298.511L99.9732 276.939ZM98.395 298.176C98.269 298.177 98.1441 298.199 98.0257 298.242L94.9134 298.17L85.5136 298.148L88.3543 181.303L100.207 181.596L97.8647 277.369C97.8606 277.52 97.8896 277.67 97.9496 277.808C98.0096 277.946 98.0991 278.07 98.2119 278.17L120.572 298.23L98.395 298.176Z" fill="#343538"/>
<path d="M147.427 17.051H69.0717C63.3102 17.051 58.6396 21.7216 58.6396 27.483V193.954C58.6396 199.715 63.3102 204.386 69.0717 204.386H147.427C153.189 204.386 157.859 199.715 157.859 193.954V27.483C157.859 21.7216 153.189 17.051 147.427 17.051Z" fill="#C9C0FC"/>
<path d="M147.427 16H69.0718C66.0286 16.0058 63.1119 17.2177 60.9607 19.3702C58.8094 21.5226 57.5991 24.44 57.595 27.4831V193.954C57.5983 196.997 58.8082 199.916 60.9596 202.069C63.1109 204.222 66.0281 205.434 69.0718 205.44H147.427C150.472 205.435 153.39 204.223 155.543 202.07C157.695 199.917 158.906 196.998 158.91 193.954V27.4831C158.905 24.4391 157.694 21.5213 155.541 19.3689C153.389 17.2164 150.471 16.005 147.427 16ZM156.814 193.954C156.812 196.443 155.822 198.829 154.062 200.589C152.302 202.349 149.916 203.338 147.427 203.341H69.0718C66.5843 203.337 64.2 202.346 62.4419 200.586C60.6839 198.826 59.6957 196.441 59.694 193.954V27.4831C59.699 24.9981 60.6888 22.6164 62.4466 20.8598C64.2044 19.1032 66.5867 18.115 69.0718 18.1117H147.427C149.916 18.1133 152.302 19.1024 154.062 20.8618C155.822 22.6213 156.812 25.0072 156.814 27.4957V193.954Z" fill="#343538"/>
<path d="M125.91 84.7124C124.177 84.5398 122.554 83.7829 121.308 82.566L119.862 84.078C121.456 85.6304 123.534 86.5896 125.749 86.7957C125.986 86.8146 126.232 86.8241 126.468 86.8241C129.808 86.8241 133.028 84.9902 135.026 81.9063L133.267 80.7732C131.544 83.4246 128.861 84.8829 125.91 84.7124Z" fill="#343538"/>
<path d="M128.52 54.2528C125.824 53.7769 123.046 54.2712 120.68 55.6479C120.28 55.8811 119.99 56.2633 119.872 56.7105C119.755 57.1577 119.82 57.6333 120.053 58.0326C120.286 58.4319 120.668 58.7223 121.116 58.8398C121.563 58.9573 122.038 58.8923 122.438 58.6592C124.06 57.7002 125.972 57.3504 127.829 57.6726C129.686 57.9948 131.368 58.9678 132.573 60.4173C132.736 60.6136 132.94 60.7718 133.171 60.8808C133.401 60.9899 133.653 61.0472 133.908 61.0486C134.241 61.0493 134.566 60.9549 134.847 60.7765C135.127 60.5982 135.351 60.3433 135.491 60.042C135.632 59.7407 135.683 59.4056 135.639 59.0761C135.595 58.7466 135.458 58.4366 135.243 58.1826C133.526 56.1322 131.149 54.7429 128.52 54.2528Z" fill="#343538"/>
<path d="M101.018 84.5484C98.2499 85.085 95.2734 83.9014 93.2722 81.4614L91.6498 82.784C93.7362 85.3312 96.7001 86.7674 99.6734 86.7674C100.259 86.7678 100.843 86.7139 101.419 86.6064C103.594 86.1434 105.547 84.9573 106.962 83.2417L105.355 81.8907C104.252 83.242 102.723 84.179 101.018 84.5484Z" fill="#343538"/>
<path d="M107.502 55.648C105.132 54.2742 102.353 53.7802 99.6546 54.2529C97.03 54.7402 94.6566 56.125 92.9409 58.17C92.6426 58.5238 92.497 58.9815 92.536 59.4426C92.5751 59.9037 92.7956 60.3304 93.1492 60.6289C93.466 60.8917 93.8645 61.0357 94.276 61.0361C94.5307 61.0344 94.7818 60.977 95.0119 60.868C95.2421 60.7589 95.4455 60.6008 95.6081 60.4048C96.8105 58.9557 98.4902 57.9827 100.345 57.6605C102.201 57.3383 104.11 57.6879 105.731 58.6467C106.13 58.8815 106.606 58.9481 107.055 58.8317C107.277 58.7742 107.485 58.6734 107.668 58.5352C107.851 58.397 108.005 58.2242 108.122 58.0264C108.238 57.8287 108.314 57.61 108.346 57.3829C108.378 57.1557 108.364 56.9245 108.307 56.7025C108.249 56.4805 108.148 56.2719 108.01 56.0889C107.872 55.9058 107.699 55.7517 107.502 55.6354V55.648Z" fill="#343538"/>
<path d="M119.657 95.5203H108.249V97.6193H119.657V95.5203Z" fill="#343538"/>
<path d="M157.859 131.229C159.103 135.244 159.346 139.155 158.311 142.592C158.194 142.984 157.995 143.337 157.859 143.713C152.995 155.979 131.954 159.514 118.792 157.977C112.956 157.248 107.317 155.392 102.189 152.513C100.056 149.302 97.2409 146.602 93.9443 144.605C90.6478 142.607 86.9511 141.362 83.1179 140.957C82.6611 140.901 82.1976 140.937 81.755 141.063C81.3124 141.189 80.8996 141.403 80.5413 141.692C80.183 141.98 79.8863 142.338 79.6691 142.744C79.4518 143.15 79.3183 143.595 79.2765 144.054C79.2253 144.509 79.2649 144.971 79.3929 145.411C79.521 145.851 79.735 146.262 80.0226 146.619C80.3102 146.976 80.6657 147.273 81.0686 147.492C81.4714 147.711 81.9137 147.848 82.3698 147.895C85.1429 148.199 87.8192 149.091 90.2199 150.512C90.5608 150.717 90.8259 150.954 91.1447 151.171C88.4517 149.984 85.6051 149.182 82.6886 148.788C81.7678 148.677 80.8406 148.937 80.111 149.509C79.3814 150.082 78.9092 150.921 78.7983 151.842C78.6874 152.763 78.9468 153.69 79.5195 154.42C80.0922 155.149 80.9313 155.621 81.8522 155.732C83.5124 155.946 85.1465 156.329 86.7289 156.875C85.191 156.879 83.6561 157.009 82.1394 157.263C81.229 157.424 80.4198 157.94 79.8897 158.697C79.3596 159.455 79.1521 160.392 79.3128 161.302C79.4735 162.212 79.9893 163.022 80.7467 163.552C81.5041 164.082 82.4411 164.289 83.3515 164.129C84.8666 163.854 85.7693 163.586 86.8583 163.576C87.7389 163.576 88.5091 163.554 89.3834 163.93C90.2988 164.324 90.3966 164.741 91.5424 165.539C92.2997 166.093 93.1419 166.519 94.036 166.802C94.6073 166.96 96.1603 167.272 98.3098 166.246C104.236 169.154 110.61 171.041 117.163 171.83C119.671 172.117 122.193 172.257 124.717 172.25C135.335 172.25 148.109 169.914 157.859 163.832C164.257 159.842 169.368 154.255 171.665 146.61C175.57 133.631 170.236 118.306 157.859 106.05V131.229Z" fill="#C9C0FC"/>
<path d="M157.462 105.084C157.274 105.166 157.114 105.301 157.002 105.473C156.89 105.645 156.83 105.845 156.83 106.05V131.226C156.831 131.333 156.847 131.439 156.878 131.541C158.115 135.553 158.266 139.177 157.326 142.302C157.258 142.518 157.174 142.73 157.073 142.933L156.903 143.334C152.244 155.104 131.5 158.441 118.931 156.941C113.311 156.243 107.877 154.473 102.925 151.727C100.692 148.43 97.7633 145.663 94.3454 143.621C90.9498 141.611 87.1638 140.35 83.241 139.922C82.2315 139.812 81.2144 140.045 80.353 140.583C79.4915 141.12 78.8355 141.931 78.4901 142.886C78.1447 143.841 78.13 144.885 78.4484 145.849C78.7667 146.813 79.3996 147.643 80.2456 148.204C79.5739 148.539 78.9969 149.037 78.5674 149.652C78.1378 150.268 77.8694 150.981 77.7867 151.727C77.6638 152.766 77.9035 153.817 78.4654 154.7C79.0272 155.583 79.8768 156.246 80.8706 156.575C80.1448 156.909 79.52 157.428 79.0594 158.081C78.5989 158.734 78.3189 159.497 78.2478 160.292C78.1767 161.088 78.317 161.888 78.6545 162.612C78.992 163.336 79.5147 163.959 80.1698 164.416C80.6555 164.757 81.2042 164.998 81.784 165.126C82.3638 165.253 82.9632 165.264 83.5472 165.157L84.7183 164.924C85.549 164.744 86.394 164.639 87.2434 164.608C87.8331 164.572 88.4236 164.666 88.9731 164.883C89.2848 165.016 89.5653 165.213 89.797 165.46C90.1597 165.797 90.5469 166.106 90.9554 166.385C91.8033 167.012 92.7495 167.493 93.7551 167.809C95.273 168.18 96.8714 168.035 98.2973 167.395C104.207 170.24 110.545 172.092 117.056 172.878C119.605 173.166 122.168 173.31 124.732 173.307C137.409 173.307 149.687 170.179 158.427 164.725C165.687 160.196 170.488 154.201 172.682 146.913C176.694 133.571 171.419 118.013 158.61 105.311C158.465 105.16 158.277 105.058 158.072 105.017C157.866 104.976 157.653 105 157.462 105.084ZM158.91 131.068V108.632C169.876 120.415 174.263 134.344 170.668 146.31C168.623 153.094 164.128 158.693 157.31 162.951C148.892 168.194 137.014 171.205 124.72 171.205C122.237 171.213 119.756 171.075 117.29 170.792C110.846 170.017 104.58 168.16 98.7549 165.299C98.6134 165.232 98.4586 165.198 98.302 165.198C98.1453 165.198 97.9906 165.232 97.849 165.299C96.2424 166.07 95.0303 165.988 94.2949 165.798C93.5208 165.539 92.7922 165.16 92.1359 164.675C91.7999 164.446 91.4832 164.191 91.189 163.911C90.7862 163.51 90.3119 163.189 89.7907 162.964C88.8744 162.589 87.8824 162.438 86.8962 162.522C86.0175 162.553 85.1441 162.671 84.289 162.875L83.159 163.099C82.8466 163.159 82.5254 163.153 82.215 163.085C81.9047 163.016 81.6115 162.884 81.3535 162.699C80.9509 162.425 80.6394 162.037 80.4591 161.585C80.2789 161.133 80.2381 160.638 80.342 160.162C80.4459 159.687 80.6897 159.254 81.0422 158.918C81.3946 158.582 81.8394 158.36 82.3194 158.28C83.78 158.037 85.2577 157.911 86.7384 157.904C86.9859 157.9 87.2243 157.809 87.4111 157.647C87.5979 157.484 87.7211 157.261 87.7589 157.016C87.7968 156.771 87.7467 156.521 87.6177 156.31C87.4887 156.099 87.289 155.94 87.054 155.862C85.4034 155.299 83.7011 154.902 81.9722 154.675C81.3591 154.564 80.8116 154.223 80.4422 153.721C80.0727 153.219 79.9091 152.595 79.985 151.977C80.0609 151.358 80.3705 150.792 80.8503 150.395C81.3301 149.998 81.9438 149.799 82.5656 149.839C85.3822 150.214 88.1315 150.987 90.7313 152.134C90.9697 152.234 91.2366 152.242 91.4808 152.157C91.7249 152.072 91.9291 151.9 92.054 151.674C92.1789 151.448 92.2158 151.183 92.1575 150.931C92.0992 150.679 91.9498 150.458 91.7382 150.31L91.4225 150.079C91.2148 149.91 90.9977 149.753 90.7723 149.609C88.2404 148.113 85.4193 147.172 82.4961 146.85C81.8523 146.779 81.2628 146.456 80.8568 145.952C80.4509 145.447 80.2617 144.802 80.3308 144.158C80.3561 143.836 80.447 143.522 80.598 143.236C80.7491 142.951 80.9569 142.699 81.2088 142.497C81.4608 142.295 81.7514 142.146 82.0629 142.06C82.3744 141.975 82.7002 141.954 83.0201 141.999C86.6398 142.391 90.1334 143.555 93.2659 145.411C96.4947 147.339 99.2496 149.968 101.327 153.103C101.424 153.24 101.551 153.353 101.697 153.434C106.944 156.379 112.714 158.277 118.685 159.021C132.305 160.552 153.721 157.026 158.85 144.104L158.992 143.763C159.121 143.478 159.233 143.184 159.327 142.886C160.362 139.404 160.214 135.427 158.91 131.068Z" fill="#343538"/>
<path d="M99.7681 30.0587C98.2457 29.4127 96.6845 28.8624 95.0934 28.411C86.5711 26.0563 78.9956 27.5398 73.4592 28.6793C67.7303 29.8598 63.3744 31.539 58.6398 33.3603C54.4228 34.9796 51.0643 36.4599 50.0953 37.006C47.7059 38.3538 26.8386 50.6828 26.0653 71.1555C25.4056 88.6453 39.0288 104.775 58.6398 111.649V96.5238C46.7715 90.7096 39.6727 80.5017 40.0168 71.6795C40.5123 58.5645 56.7711 49.2688 56.9353 49.1677C57.5129 48.8521 58.0779 48.6564 58.6492 48.3786C63.6062 45.9774 69.0434 44.7319 74.5513 44.7361C74.6902 44.7619 74.8303 44.7799 74.9712 44.7898C78.0589 44.5527 81.1598 45.0301 84.0333 46.1849C87.0646 47.4068 89.7579 49.3391 91.8865 51.8191C92.488 52.5219 93.344 52.957 94.2663 53.0286C95.1885 53.1002 96.1015 52.8026 96.8042 52.2011C97.507 51.5996 97.9421 50.7436 98.0137 49.8213C98.0853 48.8991 97.7877 47.9861 97.1862 47.2833C95.3764 45.2466 93.2719 43.4922 90.9427 42.0784C93.6078 42.9064 96.0707 44.2814 98.1741 46.1155C98.8669 46.7278 99.7745 47.0399 100.697 46.9831C101.62 46.9263 102.483 46.5052 103.095 45.8125C103.707 45.1197 104.019 44.2121 103.963 43.2892C103.906 42.3664 103.485 41.5039 102.792 40.8916C99.5672 38.098 95.7294 36.1039 91.5898 35.0711C93.5053 35.3344 95.3828 35.8239 97.183 36.5294C100.639 37.9271 103.752 40.0559 106.308 42.7696C106.624 43.1013 107.002 43.3674 107.42 43.553C107.839 43.7386 108.29 43.8399 108.747 43.8512C109.205 43.8625 109.661 43.7835 110.088 43.6188C110.515 43.4541 110.905 43.2068 111.237 42.8912C111.569 42.5755 111.835 42.1976 112.02 41.7791C112.206 41.3606 112.307 40.9096 112.319 40.4519C112.33 39.9943 112.251 39.5388 112.086 39.1117C111.921 38.6845 111.674 38.294 111.359 37.9624C108.524 35.0017 105.421 32.3313 99.7681 30.0587Z" fill="#C9C0FC"/>
<path d="M100.16 29.093C98.6021 28.4315 97.0051 27.8675 95.3776 27.4043C86.4196 24.9454 78.4843 26.571 73.2478 27.6536C67.4242 28.8531 62.9768 30.5702 58.2705 32.3883C53.9778 34.0296 50.5877 35.5289 49.5777 36.1002C47.1409 37.4828 25.8097 50.1117 25.0238 71.1367C24.3578 88.7433 37.7442 105.431 58.2958 112.638C58.453 112.692 58.621 112.708 58.7857 112.685C58.9505 112.661 59.1072 112.598 59.2427 112.502C59.3782 112.405 59.4888 112.277 59.5656 112.129C59.6424 111.98 59.6832 111.816 59.6846 111.65V96.5208C59.6857 96.3237 59.6312 96.1303 59.5273 95.9628C59.4235 95.7953 59.2745 95.6605 59.0975 95.5738C47.9616 90.1227 40.7081 80.5397 41.0427 71.7143C41.5067 59.3253 57.2668 50.1622 57.4214 50.0738C57.7201 49.913 58.0278 49.7697 58.3431 49.6445C58.5956 49.5372 58.845 49.4267 59.0975 49.3036C63.9121 46.9833 69.1879 45.7782 74.5325 45.7779C74.6829 45.8324 74.8445 45.8486 75.0028 45.8252C78.0216 45.5942 81.0522 46.0799 83.8476 47.2428C86.6429 48.4057 89.1239 50.2128 91.088 52.5169C91.8893 53.3999 92.9977 53.9434 94.1865 54.0361C95.3752 54.1288 96.5545 53.7637 97.4829 53.0156C98.2335 52.3733 98.7542 51.5038 98.9661 50.5389C99.178 49.574 99.0695 48.5663 98.6571 47.6686C99.5383 48.0407 100.513 48.13 101.447 47.9242C102.381 47.7184 103.228 47.2276 103.872 46.5197C104.302 46.032 104.622 45.4573 104.81 44.8346C104.998 44.212 105.049 43.5561 104.961 42.9118C105.156 43.1012 105.355 43.3001 105.548 43.5021C106.391 44.3436 107.526 44.8292 108.717 44.8586C109.908 44.8879 111.065 44.4589 111.949 43.6599C112.382 43.2501 112.729 42.7588 112.971 42.2142C113.213 41.6697 113.346 41.0826 113.36 40.4867C113.374 39.8909 113.271 39.2981 113.055 38.7425C112.839 38.1869 112.516 37.6794 112.104 37.2492C108.985 33.976 105.765 31.3403 100.16 29.093ZM110.503 42.1354C110.029 42.5647 109.408 42.7956 108.768 42.7803C108.129 42.765 107.519 42.5048 107.066 42.0533C104.403 39.2295 101.162 37.0129 97.565 35.5542C95.6883 34.8237 93.7328 34.3142 91.7382 34.0359C91.6058 34.0128 91.4701 34.016 91.3389 34.0454C91.2077 34.0748 91.0835 34.1297 90.9736 34.2071C90.8637 34.2845 90.7701 34.3829 90.6981 34.4965C90.6262 34.6101 90.5775 34.7368 90.5546 34.8692C90.5027 35.1323 90.5537 35.4052 90.6969 35.6319C90.8402 35.8585 91.0649 36.0216 91.3247 36.0876C95.301 37.076 98.9877 38.9891 102.085 41.6714C102.569 42.1006 102.864 42.704 102.905 43.3499C102.946 43.9957 102.729 44.6314 102.303 45.1182C101.865 45.5887 101.263 45.873 100.622 45.9123C99.9802 45.9517 99.3481 45.7431 98.856 45.3297C96.6454 43.3936 94.0511 41.9459 91.2427 41.0811C90.9994 41.0119 90.7395 41.0306 90.5086 41.1339C90.2777 41.2373 90.0906 41.4186 89.9801 41.6461C89.8754 41.8766 89.8577 42.1372 89.9302 42.3797C90.0027 42.6222 90.1606 42.8303 90.3746 42.9655C92.6172 44.3163 94.6397 46.0024 96.3719 47.9653C96.5827 48.2065 96.7433 48.4874 96.8441 48.7914C96.9449 49.0955 96.984 49.4167 96.959 49.7361C96.9069 50.3834 96.6005 50.9838 96.1067 51.4058C95.609 51.8149 94.9724 52.0157 94.33 51.9663C93.6876 51.9169 93.0892 51.6211 92.6599 51.1407C90.4245 48.5306 87.5933 46.4973 84.4058 45.2129C81.383 43.9952 78.1192 43.4939 74.8702 43.7483C74.7796 43.7096 74.6815 43.6912 74.583 43.6946C68.9059 43.6878 63.3009 44.9666 58.1885 47.435C57.9633 47.5423 57.7455 47.6402 57.5351 47.7286C57.1484 47.8809 56.7729 48.0602 56.4114 48.2652C56.2599 48.3409 39.4771 57.8071 38.9689 71.6417C38.6059 81.1111 46.0709 91.3127 57.5919 97.1679V110.157C38.6911 103.02 26.4947 87.5028 27.1102 71.1967C27.8582 51.3111 48.2867 39.2283 50.6067 37.9184C51.4116 37.4575 54.5586 36.0466 59.0123 34.3295C63.6365 32.5524 68.0113 30.8574 73.6645 29.699C78.7148 28.6637 86.366 27.0949 94.8126 29.4181C96.3609 29.8654 97.8818 30.4029 99.3673 31.0278C104.626 33.1458 107.659 35.6173 110.585 38.6822C111.031 39.1515 111.273 39.7785 111.258 40.4257C111.242 41.073 110.971 41.6878 110.503 42.1354Z" fill="#343538"/>
<path d="M89.977 156.951C89.4865 156.654 88.966 156.409 88.424 156.222C87.7225 155.993 86.9928 155.862 86.2556 155.833C86.2421 155.83 86.228 155.83 86.2145 155.833C85.9374 155.828 85.6697 155.934 85.4702 156.126C85.2707 156.318 85.1558 156.582 85.1508 156.859C85.1458 157.136 85.251 157.404 85.4434 157.604C85.6358 157.803 85.8996 157.918 86.1766 157.923C86.7138 157.947 87.2449 158.046 87.7549 158.217C88.1472 158.345 88.5224 158.521 88.8722 158.741C89.1087 158.887 89.3937 158.934 89.6645 158.87C89.9354 158.806 90.1698 158.638 90.3163 158.401C90.4628 158.165 90.5094 157.88 90.4457 157.609C90.3821 157.338 90.2135 157.104 89.977 156.957V156.951Z" fill="#343538"/>
<path d="M143.744 256.528L141.268 255.477C141.166 255.431 141.055 255.407 140.943 255.405C140.831 255.402 140.72 255.423 140.616 255.465C140.513 255.507 140.418 255.569 140.339 255.648C140.26 255.727 140.197 255.822 140.155 255.926C140.111 256.028 140.088 256.138 140.086 256.25C140.085 256.361 140.106 256.472 140.147 256.575C140.189 256.679 140.251 256.773 140.329 256.852C140.408 256.932 140.501 256.995 140.604 257.038L143.07 258.089C143.177 258.136 143.292 258.16 143.408 258.161C143.604 258.161 143.794 258.093 143.946 257.969C144.098 257.845 144.202 257.673 144.241 257.481C144.281 257.289 144.253 257.09 144.162 256.916C144.072 256.742 143.924 256.605 143.744 256.528Z" fill="#343538"/>
</svg>
