<svg width="603" height="603" viewBox="0 0 603 603" fill="none" xmlns="http://www.w3.org/2000/svg">
<rect x="119" y="184" width="376" height="355" rx="30" fill="#343538"/>
<rect x="119.5" y="184.5" width="375" height="268" rx="29.5" fill="#E2DCD0" stroke="black"/>
<path d="M242.941 496.161L206.122 529.04H255.271H255.424L287.145 335.783L269.736 332.932L242.941 496.161Z" fill="#7056EE"/>
<path d="M287.384 334.489L269.949 331.63C269.776 331.598 269.599 331.601 269.428 331.639C269.257 331.677 269.095 331.749 268.953 331.852C268.676 332.059 268.488 332.363 268.425 332.703L241.707 495.472L205.238 528.053C205.04 528.23 204.9 528.463 204.836 528.72C204.772 528.978 204.787 529.249 204.879 529.498C204.97 529.747 205.135 529.963 205.35 530.118C205.566 530.273 205.823 530.36 206.088 530.367H255.441C255.754 530.366 256.057 530.254 256.297 530.052C256.536 529.85 256.697 529.57 256.751 529.261L288.456 336.013C288.51 335.669 288.429 335.318 288.229 335.033C288.029 334.749 287.725 334.554 287.384 334.489ZM254.335 527.712H209.594L243.826 497.148C244.05 496.948 244.2 496.678 244.251 496.382L270.825 334.455L285.648 336.889L254.335 527.712Z" fill="#180C47"/>
<path d="M327.938 336.685L311.073 341.977L370.261 530.775L370.508 530.69H419.665C407.871 520.165 390.368 506.712 377.809 495.803L327.938 336.685Z" fill="#7056EE"/>
<path d="M398.222 511.026C391.568 505.614 384.701 500.024 378.949 495.038L329.205 336.285C329.094 335.952 328.86 335.675 328.55 335.511C328.396 335.428 328.227 335.377 328.053 335.361C327.879 335.345 327.704 335.364 327.538 335.417L310.681 340.71C310.351 340.821 310.077 341.056 309.918 341.366C309.759 341.676 309.728 342.036 309.83 342.369L369.011 531.167C369.141 531.438 369.349 531.663 369.608 531.815C369.867 531.967 370.166 532.037 370.466 532.018H419.665C419.93 532.011 420.187 531.924 420.403 531.769C420.619 531.614 420.783 531.398 420.875 531.149C420.966 530.9 420.981 530.629 420.917 530.371C420.853 530.113 420.713 529.881 420.516 529.703C414.193 524.028 406.076 517.416 398.222 511.026ZM371.197 529.372L312.74 342.837L327.061 338.344L376.533 496.186C376.611 496.419 376.749 496.627 376.932 496.79C382.778 501.896 389.773 507.563 396.554 513.085C403.336 518.608 410.313 524.283 416.125 529.372H371.197Z" fill="#180C47"/>
<path d="M174.631 334.056C149.526 355.934 123.027 376.16 95.301 394.606C87.9392 392.426 81.1629 388.616 75.475 383.459C75.0468 383.051 74.5409 382.733 73.9875 382.524C73.4341 382.315 72.8443 382.219 72.2532 382.243C71.6621 382.266 71.0818 382.408 70.5466 382.66C70.0114 382.912 69.5323 383.269 69.1378 383.71C68.7432 384.151 68.4412 384.666 68.2497 385.226C68.0582 385.786 67.9811 386.378 68.023 386.968C68.0649 387.558 68.2249 388.134 68.4935 388.661C68.7621 389.188 69.1339 389.656 69.5867 390.036C72.3103 392.477 75.2398 394.678 78.3425 396.614C78.6999 396.844 79.1083 396.971 79.4742 397.192C79.1339 397.107 78.785 397.09 78.4531 397.005C74.4006 395.984 70.4209 394.694 66.5405 393.142C66.0014 392.927 65.4251 392.82 64.8447 392.828C64.2643 392.835 63.691 392.957 63.1577 393.186C62.6243 393.416 62.1413 393.747 61.7363 394.163C61.3312 394.579 61.012 395.071 60.7969 395.61C60.5818 396.149 60.475 396.725 60.4826 397.306C60.4902 397.886 60.6121 398.459 60.8412 398.993C61.304 400.07 62.1757 400.919 63.2645 401.353C67.5168 403.058 71.8773 404.479 76.3174 405.608C77.7639 405.974 79.253 406.127 80.7165 406.459C77.815 406.459 74.9219 406.51 72.0373 406.272C71.4475 406.203 70.8501 406.255 70.2805 406.423C69.711 406.59 69.181 406.871 68.7222 407.248C68.2634 407.624 67.885 408.09 67.6098 408.616C67.3345 409.142 67.1679 409.718 67.1199 410.309C67.072 410.901 67.1436 411.497 67.3305 412.06C67.5174 412.624 67.8158 413.144 68.208 413.59C68.6001 414.035 69.078 414.398 69.6131 414.655C70.1481 414.912 70.7295 415.059 71.3226 415.087C74.6751 415.359 78.0617 415.487 81.4313 415.487C83.0513 415.546 84.6734 415.514 86.2899 415.393C93.4631 414.934 96.3136 413.223 103.784 413.011C104.414 413.011 104.916 413.011 105.205 413.011L109.885 419.571C110.582 420.474 111.601 421.073 112.729 421.242C113.857 421.41 115.007 421.136 115.937 420.476C116.868 419.817 117.507 418.822 117.72 417.702C117.934 416.581 117.706 415.422 117.084 414.466L110.736 405.565C137.06 387.743 162.279 368.341 186.254 347.466C204.718 331.299 222.647 314.136 239.512 296.335L226.697 284.176C210.173 301.474 192.687 318.297 174.631 334.056Z" fill="#7056EE"/>
<path d="M227.608 283.112C227.494 282.976 227.348 282.871 227.183 282.807C227.017 282.743 226.839 282.722 226.663 282.746C226.489 282.751 226.317 282.791 226.158 282.862C225.999 282.934 225.855 283.036 225.736 283.163C209.228 300.573 191.7 317.361 173.754 333.051C148.865 354.746 122.599 374.81 95.1223 393.117C91.1392 391.877 87.3196 390.163 83.7457 388.011C81.1332 386.385 78.6676 384.535 76.3769 382.48C75.2201 381.487 73.731 380.968 72.2075 381.025C71.0752 381.092 69.9881 381.493 69.0832 382.177C68.1784 382.862 67.4965 383.798 67.1233 384.869C66.7502 385.941 66.7026 387.098 66.9865 388.197C67.2705 389.295 67.8732 390.284 68.7188 391.04C69.7569 391.965 70.8234 392.858 71.9182 393.721C70.2675 393.168 68.6337 392.572 67.034 391.934C66.3348 391.65 65.5863 391.507 64.8317 391.514C64.0771 391.52 63.3312 391.676 62.637 391.972C61.9427 392.268 61.3137 392.698 60.7862 393.237C60.2587 393.777 59.843 394.415 59.5631 395.116C59.0008 396.53 59.0218 398.11 59.6214 399.508C60.2211 400.907 61.3506 402.011 62.7625 402.579C65.111 403.515 67.502 404.374 69.9271 405.131C68.8402 405.472 67.8805 406.131 67.1721 407.023C66.4637 407.915 66.0392 408.999 65.9534 410.135C65.8357 411.651 66.3225 413.153 67.3076 414.312C68.2928 415.47 69.6963 416.193 71.212 416.321C74.6156 416.593 78.0192 416.729 81.4228 416.729H81.9163C85.0902 416.618 84.9796 416.729 85.7879 416.67H86.3665C89.158 416.472 91.931 416.068 94.6628 415.461C97.6659 414.768 100.729 414.369 103.81 414.27H104.516L108.771 420.269C109.302 421.017 110.005 421.627 110.821 422.047C111.637 422.468 112.542 422.686 113.459 422.685C114.513 422.685 115.546 422.394 116.446 421.845C117.345 421.296 118.076 420.51 118.557 419.572C119.039 418.635 119.253 417.583 119.177 416.532C119.1 415.482 118.735 414.472 118.122 413.615L112.566 405.812C138.534 388.177 163.42 368.997 187.088 348.376C205.586 332.209 223.54 314.995 240.439 297.152C240.56 297.027 240.655 296.878 240.718 296.716C240.781 296.554 240.812 296.381 240.808 296.207C240.804 296.033 240.766 295.862 240.695 295.702C240.624 295.543 240.523 295.4 240.397 295.28L227.608 283.112ZM185.377 346.368C161.443 367.204 136.27 386.572 109.996 404.366C109.704 404.564 109.503 404.87 109.434 405.216C109.404 405.389 109.408 405.567 109.448 405.738C109.487 405.909 109.561 406.07 109.664 406.212L116.003 415.112C116.482 415.782 116.675 416.615 116.54 417.427C116.472 417.827 116.326 418.209 116.11 418.553C115.894 418.896 115.612 419.193 115.28 419.426C114.606 419.882 113.782 420.061 112.979 419.927C112.176 419.792 111.455 419.354 110.966 418.703L106.286 412.134C106.163 411.962 106.001 411.822 105.813 411.726C105.625 411.63 105.417 411.58 105.205 411.581C104.908 411.581 104.355 411.581 103.75 411.581C100.52 411.681 97.3057 412.088 94.1523 412.798C91.5358 413.382 88.8792 413.768 86.2049 413.955H85.6177C84.8264 414.015 84.7668 413.955 81.9248 414.015H81.4313C78.0872 414.015 74.7092 413.879 71.4332 413.606C71.0154 413.591 70.6051 413.491 70.2269 413.313C69.8487 413.135 69.5104 412.882 69.2325 412.57C68.9546 412.258 68.7427 411.893 68.6098 411.496C68.4768 411.1 68.4254 410.681 68.4588 410.264C68.4921 409.847 68.6095 409.442 68.8037 409.072C68.998 408.701 69.2652 408.374 69.5893 408.11C69.9133 407.846 70.2874 407.65 70.6892 407.535C71.0909 407.419 71.5118 407.386 71.9267 407.437C74.2412 407.624 76.5812 407.616 78.8105 407.633H80.7165C81.0448 407.633 81.3612 407.511 81.6048 407.291C81.8483 407.071 82.0018 406.768 82.0354 406.442C82.0657 406.114 81.9751 405.788 81.7807 405.523C81.5863 405.258 81.3015 405.073 80.9803 405.004C80.3677 404.885 79.755 404.782 79.1339 404.68C78.283 404.544 77.4321 404.408 76.6322 404.204C72.2507 403.1 67.9471 401.707 63.7496 400.034C62.9915 399.725 62.3868 399.128 62.0679 398.373C61.749 397.619 61.7417 396.769 62.0478 396.01C62.3539 395.253 62.9479 394.648 63.6994 394.329C64.4509 394.01 65.2983 394.002 66.0555 394.308C69.9964 395.882 74.0388 397.19 78.1553 398.222C78.3767 398.278 78.6012 398.32 78.8275 398.35L79.1934 398.409C79.5036 398.491 79.833 398.454 80.1176 398.306C80.4021 398.158 80.6217 397.91 80.7336 397.609C80.8505 397.317 80.8591 396.993 80.7576 396.694C80.6562 396.396 80.4515 396.144 80.1805 395.984C79.9635 395.857 79.739 395.744 79.5083 395.644C79.3566 395.579 79.2089 395.505 79.0658 395.423C76.0319 393.519 73.1629 391.364 70.4887 388.981C69.8817 388.434 69.5149 387.67 69.4676 386.854C69.4431 386.056 69.7262 385.279 70.2583 384.683C70.7903 384.088 71.5308 383.72 72.3266 383.655C73.1524 383.616 73.9608 383.9 74.5815 384.446C76.9861 386.598 79.571 388.539 82.3077 390.249C86.2511 392.635 90.4756 394.521 94.8841 395.865C95.0747 395.921 95.275 395.935 95.4716 395.907C95.6682 395.879 95.8567 395.81 96.0243 395.703C123.792 377.231 150.328 356.971 175.464 335.051C193.18 319.59 210.42 303.074 226.714 285.946L237.614 296.275C221.064 313.71 203.476 330.558 185.377 346.368Z" fill="#180C47"/>
<path d="M536.46 411.419C532.576 412.964 528.597 414.254 524.547 415.283C524.207 415.368 523.849 415.385 523.517 415.47C523.875 415.249 524.283 415.112 524.649 414.891C527.747 412.949 530.676 410.749 533.405 408.314C533.837 407.927 534.189 407.459 534.441 406.936C534.692 406.414 534.839 405.847 534.871 405.267C534.903 404.688 534.821 404.108 534.63 403.561C534.438 403.013 534.14 402.509 533.754 402.077C533.367 401.644 532.899 401.292 532.376 401.041C531.854 400.789 531.286 400.643 530.707 400.61C530.128 400.578 529.548 400.66 529.001 400.852C528.453 401.043 527.949 401.341 527.517 401.728C521.832 406.89 515.055 410.7 507.691 412.875C479.97 394.43 453.476 374.204 428.378 352.324C410.313 336.557 392.802 319.743 376.32 302.342L363.497 314.502C380.353 332.294 398.273 349.499 416.755 365.641C440.724 386.519 465.937 405.924 492.255 423.749L485.916 432.649C485.541 433.119 485.266 433.66 485.107 434.24C484.949 434.819 484.91 435.425 484.994 436.02C485.078 436.615 485.282 437.187 485.594 437.7C485.906 438.214 486.32 438.658 486.81 439.006C487.3 439.354 487.856 439.598 488.444 439.724C489.031 439.849 489.638 439.854 490.228 439.737C490.817 439.619 491.376 439.383 491.871 439.043C492.366 438.702 492.786 438.264 493.106 437.755L497.786 431.186C498.297 431.186 499.241 431.186 500.415 431.186C507.222 431.433 509.775 433.117 516.71 433.577C518.324 433.699 519.943 433.731 521.56 433.671C524.964 433.671 528.316 433.534 531.677 433.262C532.845 433.167 533.928 432.613 534.686 431.72C535.445 430.827 535.818 429.669 535.723 428.501C535.629 427.333 535.074 426.251 534.181 425.492C533.288 424.734 532.131 424.361 530.963 424.455C528.078 424.694 525.177 424.617 522.283 424.642C523.747 424.336 525.236 424.183 526.683 423.792C531.12 422.663 535.478 421.242 539.727 419.537C540.786 419.084 541.626 418.235 542.068 417.171C542.509 416.107 542.518 414.913 542.092 413.843C541.666 412.773 540.838 411.912 539.786 411.443C538.734 410.974 537.54 410.935 536.46 411.334V411.419Z" fill="#7056EE"/>
<path d="M540.323 410.228C539.635 409.933 538.896 409.777 538.149 409.77C537.401 409.763 536.659 409.904 535.966 410.186C534.358 410.824 532.724 411.428 531.082 411.981C532.171 411.13 533.243 410.22 534.273 409.301C535.115 408.542 535.714 407.551 535.995 406.452C536.276 405.354 536.226 404.197 535.851 403.127C535.477 402.057 534.794 401.121 533.89 400.438C532.985 399.754 531.899 399.354 530.767 399.286C530.012 399.228 529.253 399.327 528.538 399.577C527.823 399.828 527.168 400.224 526.615 400.741C521.228 405.623 514.839 409.268 507.895 411.419C480.415 393.104 454.146 373.032 429.254 351.329C411.249 335.613 393.755 318.824 377.29 301.432C377.033 301.174 376.684 301.027 376.32 301.023C375.982 301.024 375.657 301.152 375.409 301.381L362.578 313.54C362.323 313.783 362.173 314.116 362.161 314.468C362.156 314.642 362.186 314.816 362.251 314.979C362.315 315.141 362.412 315.289 362.535 315.412C379.426 333.239 397.38 350.478 415.887 366.637C439.559 387.251 464.444 406.431 490.409 424.072L484.852 431.867C483.969 433.108 483.615 434.649 483.867 436.152C484.12 437.654 484.96 438.994 486.201 439.878C487.442 440.761 488.984 441.116 490.486 440.863C491.988 440.61 493.329 439.77 494.212 438.529L498.467 432.513C498.969 432.513 499.624 432.513 500.356 432.513C503.115 432.629 505.857 433.014 508.541 433.662C511.194 434.286 513.891 434.698 516.608 434.896H517.144C518.318 435.004 519.498 435.024 520.675 434.955H521.526C524.93 434.955 528.384 434.819 531.737 434.547C533.065 434.443 534.315 433.879 535.273 432.954C536.23 432.029 536.836 430.799 536.986 429.475C537.136 428.152 536.821 426.818 536.094 425.701C535.368 424.585 534.276 423.756 533.005 423.358C535.43 422.583 537.838 421.732 540.178 420.805C540.881 420.53 541.521 420.118 542.062 419.592C542.603 419.066 543.033 418.437 543.326 417.742C543.628 417.046 543.789 416.298 543.799 415.54C543.809 414.782 543.668 414.029 543.385 413.326C543.101 412.623 542.681 411.983 542.148 411.444C541.615 410.905 540.98 410.477 540.28 410.186L540.323 410.228ZM540.935 416.738C540.777 417.113 540.544 417.452 540.252 417.736C539.96 418.019 539.613 418.241 539.233 418.388C535.037 420.065 530.733 421.457 526.351 422.558C525.5 422.771 524.649 422.907 523.849 423.043C523.237 423.145 522.624 423.239 522.011 423.366C521.696 423.438 521.418 423.623 521.23 423.886C521.041 424.149 520.955 424.471 520.987 424.793C521.02 425.115 521.168 425.413 521.405 425.633C521.643 425.853 521.952 425.979 522.275 425.987H524.155C526.427 425.987 528.733 425.987 531.014 425.8C531.422 425.754 531.835 425.792 532.229 425.911C532.622 426.031 532.986 426.229 533.3 426.495C533.614 426.76 533.87 427.086 534.054 427.454C534.237 427.822 534.343 428.223 534.366 428.633C534.432 429.451 534.171 430.262 533.64 430.887C533.108 431.513 532.351 431.902 531.533 431.969C528.248 432.233 524.879 432.369 521.526 432.369H520.675C518.046 432.369 518.123 432.369 517.331 432.318L516.778 432.275C514.199 432.085 511.638 431.692 509.12 431.101C506.286 430.413 503.39 430.008 500.475 429.893C499.845 429.893 499.275 429.893 498.773 429.893C497.633 429.893 497.071 429.893 496.68 430.463L492 437.032C491.512 437.684 490.791 438.124 489.988 438.258C489.184 438.393 488.36 438.213 487.686 437.755C487.021 437.277 486.571 436.555 486.436 435.747C486.3 434.939 486.49 434.11 486.963 433.441L493.302 424.54C493.406 424.398 493.48 424.235 493.52 424.063C493.56 423.891 493.565 423.712 493.534 423.538C493.503 423.364 493.437 423.198 493.34 423.05C493.243 422.902 493.117 422.775 492.97 422.677C466.694 404.882 441.521 385.511 417.589 364.671C399.481 348.861 381.851 332.013 365.318 314.578L376.226 304.248C392.495 321.36 409.726 337.876 427.468 353.354C452.605 375.279 479.144 395.542 506.916 414.015C507.083 414.122 507.272 414.192 507.469 414.219C507.666 414.245 507.867 414.228 508.056 414.168C512.465 412.825 516.69 410.938 520.633 408.552C523.366 406.844 525.948 404.906 528.35 402.757C528.653 402.485 529.006 402.275 529.39 402.139C529.774 402.003 530.18 401.945 530.587 401.967C530.993 401.989 531.391 402.092 531.758 402.268C532.125 402.445 532.453 402.692 532.724 402.996C532.997 403.296 533.207 403.648 533.342 404.031C533.476 404.414 533.532 404.82 533.507 405.225C533.461 406.044 533.094 406.811 532.486 407.361C529.811 409.746 526.939 411.901 523.9 413.802C523.753 413.89 523.6 413.967 523.441 414.032C523.228 414.134 523.015 414.236 522.803 414.355C522.518 414.509 522.301 414.762 522.19 415.066C522.08 415.369 522.086 415.703 522.205 416.003C522.325 416.303 522.551 416.549 522.84 416.694C523.129 416.839 523.46 416.872 523.773 416.789L524.164 416.721C524.394 416.721 524.606 416.653 524.828 416.601C528.953 415.563 533.007 414.255 536.962 412.687C537.33 412.531 537.727 412.451 538.127 412.451C538.528 412.451 538.924 412.531 539.293 412.687C539.67 412.844 540.012 413.074 540.299 413.365C540.586 413.655 540.812 413.999 540.965 414.378C541.118 414.756 541.194 415.161 541.189 415.569C541.184 415.977 541.097 416.38 540.935 416.755V416.738Z" fill="#180C47"/>
<path d="M478.207 197.043L355.345 195.342C352.541 195.301 349.826 194.351 347.607 192.636C345.389 190.921 343.786 188.532 343.041 185.828L314.442 81.8142C310.928 69.0507 292.787 69.1613 289.434 81.9674C280.154 117.433 270.873 152.887 261.593 188.33C260.866 191.107 259.237 193.563 256.962 195.313C254.687 197.063 251.895 198.007 249.025 197.996L126.444 197.605C113.204 197.562 108.439 215.074 119.884 221.736L217.15 278.407C219.76 279.93 221.756 282.317 222.793 285.156C223.829 287.994 223.841 291.106 222.826 293.953C208.718 333.4 194.621 372.814 180.536 412.194C176.018 424.838 191.342 435.168 201.357 426.217L292.872 344.462C295.246 342.339 298.319 341.165 301.504 341.165C304.689 341.165 307.762 342.339 310.137 344.462L401.404 426.149C411.419 435.109 426.77 424.77 422.226 412.126L379.902 294.284C378.88 291.435 378.889 288.318 379.927 285.474C380.966 282.631 382.968 280.241 385.586 278.721L484.546 221.183C495.897 214.58 491.345 197.231 478.207 197.043Z" fill="#7056EE"/>
<path d="M478.207 195.707L355.345 194.006C352.831 193.966 350.397 193.117 348.404 191.584C346.411 190.051 344.966 187.916 344.283 185.497L315.685 81.4653C314.908 78.4243 313.127 75.7344 310.632 73.8305C308.137 71.9266 305.072 70.9201 301.934 70.9737H301.84C298.684 70.9366 295.608 71.9707 293.115 73.9071C290.623 75.8436 288.86 78.568 288.115 81.6355L260.308 188.049C259.66 190.536 258.204 192.738 256.17 194.309C254.136 195.879 251.638 196.731 249.067 196.728L126.487 196.337C123.343 196.319 120.281 197.339 117.777 199.239C115.273 201.139 113.466 203.813 112.638 206.846C111.809 209.878 112.005 213.1 113.196 216.009C114.386 218.919 116.504 221.354 119.22 222.936L216.478 279.598C218.825 280.963 220.62 283.107 221.553 285.657C222.485 288.208 222.496 291.004 221.583 293.561L179.285 411.751C178.153 414.733 178.078 418.012 179.074 421.042C180.07 424.071 182.076 426.667 184.756 428.395C187.119 430.03 189.916 430.919 192.789 430.948C196.291 430.921 199.658 429.593 202.234 427.221L293.757 345.466C295.89 343.562 298.649 342.51 301.509 342.51C304.368 342.51 307.127 343.562 309.26 345.466L400.519 427.153C402.883 429.284 405.891 430.564 409.065 430.789C412.24 431.014 415.399 430.172 418.039 428.396C420.68 426.62 422.651 424.012 423.64 420.987C424.628 417.962 424.577 414.693 423.494 411.7L381.178 293.85C380.26 291.292 380.268 288.493 381.201 285.94C382.134 283.387 383.933 281.242 386.284 279.879L485.252 222.349C487.973 220.786 490.103 218.369 491.311 215.472C492.52 212.576 492.74 209.363 491.938 206.329C491.135 203.295 489.355 200.61 486.873 198.69C484.391 196.77 481.345 195.722 478.207 195.707ZM483.857 220.018L384.914 277.573C382.027 279.249 379.82 281.885 378.676 285.02C377.532 288.156 377.523 291.594 378.651 294.735L420.967 412.577C421.85 415.015 421.893 417.679 421.088 420.145C420.283 422.61 418.676 424.736 416.524 426.183C414.371 427.63 411.796 428.315 409.209 428.13C406.622 427.945 404.171 426.9 402.247 425.162L310.979 343.475C308.365 341.134 304.979 339.839 301.47 339.839C297.961 339.839 294.575 341.134 291.961 343.475L200.481 425.23C198.554 426.96 196.105 427.998 193.522 428.179C190.938 428.36 188.368 427.674 186.219 426.229C184.07 424.784 182.464 422.663 181.657 420.203C180.849 417.742 180.886 415.082 181.761 412.645L224.076 294.412C225.189 291.279 225.175 287.855 224.034 284.732C222.894 281.608 220.701 278.98 217.831 277.3L120.564 220.63C118.36 219.341 116.641 217.363 115.673 215C114.705 212.637 114.541 210.021 115.207 207.556C115.873 205.091 117.332 202.914 119.358 201.36C121.384 199.806 123.865 198.962 126.418 198.958L248.999 199.358H249.059C252.225 199.369 255.306 198.328 257.816 196.398C260.327 194.468 262.125 191.759 262.929 188.696L290.77 82.3333C291.376 79.8377 292.809 77.621 294.837 76.0448C296.864 74.4685 299.366 73.6258 301.934 73.6541H302.002C304.554 73.6099 307.046 74.425 309.078 75.9683C311.111 77.5116 312.566 79.6934 313.208 82.1631L341.816 186.186C342.644 189.162 344.413 191.79 346.857 193.679C349.301 195.568 352.29 196.617 355.379 196.669L478.241 198.371C480.781 198.408 483.238 199.276 485.238 200.842C487.238 202.408 488.67 204.586 489.314 207.043C489.959 209.5 489.781 212.1 488.808 214.447C487.834 216.793 486.119 218.756 483.925 220.035L483.857 220.018Z" fill="#180C47"/>
<path d="M294.072 271.055H293.672C290.819 270.926 288.093 269.837 285.938 267.963C283.783 266.089 282.325 263.541 281.802 260.733C281.75 260.434 281.764 260.127 281.842 259.833C281.92 259.54 282.06 259.266 282.253 259.032C282.459 258.781 282.719 258.58 283.014 258.443C283.308 258.306 283.63 258.237 283.954 258.24H304.265C304.59 258.237 304.911 258.306 305.206 258.443C305.5 258.58 305.76 258.781 305.967 259.032C306.159 259.267 306.298 259.541 306.375 259.834C306.453 260.127 306.468 260.434 306.418 260.733C305.873 263.617 304.344 266.222 302.092 268.104C299.841 269.986 297.006 271.029 294.072 271.055Z" fill="#180C47"/>
<mask id="mask0_18_3425" style="mask-type:luminance" maskUnits="userSpaceOnUse" x="281" y="258" width="26" height="14">
<path d="M294.072 271.055H293.672C290.819 270.926 288.093 269.837 285.938 267.963C283.783 266.089 282.325 263.541 281.802 260.733C281.75 260.434 281.764 260.127 281.842 259.833C281.92 259.54 282.06 259.266 282.253 259.032C282.459 258.781 282.719 258.58 283.014 258.443C283.308 258.306 283.63 258.237 283.954 258.24H304.265C304.59 258.237 304.911 258.306 305.206 258.443C305.5 258.58 305.76 258.781 305.967 259.032C306.159 259.267 306.298 259.541 306.375 259.834C306.453 260.127 306.468 260.434 306.418 260.733C305.873 263.617 304.344 266.222 302.092 268.104C299.841 269.986 297.006 271.029 294.072 271.055Z" fill="white"/>
</mask>
<g mask="url(#mask0_18_3425)">
<path d="M293.714 269.736C296.564 269.792 299.33 268.773 301.46 266.88C303.591 264.988 304.93 262.361 305.21 259.525H282.967C283.231 262.235 284.462 264.759 286.436 266.635C288.41 268.511 290.994 269.611 293.714 269.736Z" fill="#180C47"/>
<path d="M290.881 264.945C287.307 265.907 283.844 269.2 284.482 271.029C285.682 274.492 301.789 273.761 302.487 270.595C302.964 268.468 296.965 263.303 290.881 264.945Z" fill="#FFC5E1"/>
</g>
<path d="M311.328 240.099H311.166C308.103 240.278 305.559 245.204 305.61 250.948H308.265C308.214 245.757 310.4 242.83 311.319 242.779C312.17 242.779 314.851 245.502 315.242 250.914L317.888 250.727C317.446 244.277 314.17 240.099 311.328 240.099Z" fill="#180C47"/>
<path d="M274.671 240.107C274.115 240.112 273.566 240.23 273.057 240.454C272.548 240.678 272.089 241.003 271.71 241.409C270.008 243.154 268.987 246.634 269.021 250.948H271.684C271.684 247.434 272.382 244.507 273.59 243.29C273.725 243.134 273.891 243.007 274.077 242.917C274.262 242.828 274.465 242.778 274.671 242.771C277.496 242.771 278.415 247.195 278.687 250.905L281.325 250.718C280.687 241.945 277.394 240.107 274.671 240.107Z" fill="#180C47"/>
<path d="M304.24 256.887H283.929C283.423 256.888 282.923 257 282.464 257.214C282.006 257.429 281.6 257.742 281.276 258.131C280.951 258.519 280.716 258.974 280.586 259.464C280.457 259.953 280.436 260.465 280.525 260.963C281.102 264.068 282.714 266.886 285.098 268.957C287.483 271.028 290.499 272.23 293.655 272.365H294.097C297.339 272.347 300.473 271.198 302.959 269.117C305.444 267.035 307.125 264.152 307.712 260.963C307.801 260.464 307.78 259.952 307.651 259.462C307.521 258.973 307.286 258.517 306.961 258.128C306.637 257.739 306.231 257.425 305.773 257.209C305.315 256.994 304.815 256.881 304.308 256.879L304.24 256.887ZM294.072 269.736H293.714C291.162 269.621 288.724 268.645 286.797 266.967C284.87 265.289 283.568 263.008 283.104 260.495C283.103 260.481 283.103 260.467 283.104 260.452C283.138 260.798 283.306 261.116 283.572 261.339C283.838 261.562 284.181 261.671 284.527 261.645C284.873 261.618 285.194 261.457 285.423 261.196C285.652 260.935 285.769 260.595 285.75 260.248C285.745 260.002 285.674 259.761 285.546 259.551H304.265C304.39 259.549 304.513 259.575 304.626 259.627C304.739 259.678 304.84 259.754 304.921 259.848C304.997 259.937 305.053 260.042 305.084 260.156C305.115 260.269 305.12 260.388 305.099 260.504C304.601 263.075 303.233 265.396 301.225 267.078C299.216 268.759 296.691 269.698 294.072 269.736Z" fill="#180C47"/>
<rect x="120.53" y="440.911" width="365.675" height="84.4396" rx="39.5" transform="rotate(-3.509 120.53 440.911)" fill="#F6F7A5" stroke="black"/>
<circle cx="128" cy="485" r="15.5" fill="#F6F6F6" stroke="black"/>
<circle cx="128" cy="485" r="7" fill="#343538"/>
<path d="M204.527 489.916L201.868 490.079C201.653 490.092 201.538 489.991 201.525 489.775L200.842 478.636L189.81 479.313L190.494 490.452C190.507 490.668 190.406 490.782 190.19 490.795L187.531 490.958C187.292 490.973 187.165 490.873 187.152 490.657L185.666 466.438C185.653 466.223 185.754 466.108 185.97 466.095L188.629 465.932C188.845 465.919 188.959 466.02 188.972 466.236L189.589 476.297L200.621 475.62L200.003 465.559C199.99 465.343 200.091 465.229 200.307 465.216L202.966 465.053C203.206 465.038 203.332 465.138 203.345 465.354L204.831 489.573C204.844 489.788 204.743 489.903 204.527 489.916ZM228.951 475.938C229.052 477.591 228.935 479.209 228.599 480.793C228.286 482.351 227.723 483.756 226.91 485.008C226.12 486.235 225.076 487.249 223.778 488.05C222.481 488.851 220.922 489.307 219.102 489.419C217.257 489.532 215.642 489.27 214.256 488.634C212.871 487.997 211.711 487.119 210.776 485.998C209.841 484.853 209.11 483.527 208.585 482.021C208.082 480.488 207.78 478.896 207.679 477.243C207.576 475.566 207.681 473.949 207.994 472.391C208.33 470.807 208.893 469.402 209.683 468.175C210.472 466.925 211.516 465.911 212.815 465.134C214.112 464.333 215.683 463.876 217.528 463.763C219.348 463.651 220.951 463.913 222.337 464.55C223.721 465.162 224.881 466.041 225.817 467.186C226.775 468.305 227.506 469.631 228.009 471.163C228.534 472.67 228.848 474.261 228.951 475.938ZM225.537 476.148C225.467 474.998 225.264 473.844 224.928 472.686C224.593 471.529 224.109 470.501 223.476 469.602C222.843 468.679 222.04 467.946 221.069 467.405C220.121 466.838 219 466.594 217.706 466.673C216.389 466.754 215.282 467.135 214.386 467.815C213.512 468.469 212.818 469.294 212.301 470.287C211.785 471.28 211.432 472.372 211.24 473.562C211.048 474.752 210.987 475.91 211.056 477.036C211.125 478.162 211.328 479.304 211.663 480.461C211.999 481.619 212.483 482.659 213.117 483.582C213.751 484.505 214.542 485.25 215.49 485.817C216.461 486.358 217.605 486.589 218.923 486.508C220.217 486.429 221.3 486.062 222.174 485.407C223.07 484.727 223.776 483.89 224.292 482.897C224.808 481.903 225.162 480.811 225.353 479.621C225.545 478.431 225.606 477.274 225.537 476.148ZM260.481 461.922L255.499 486.537C255.413 486.71 255.311 486.801 255.191 486.808L252.208 486.991C252.161 486.994 252.099 486.974 252.024 486.93C251.948 486.863 251.908 486.805 251.906 486.757L245.269 467.94L241.09 487.421C241.004 487.594 240.902 487.685 240.782 487.692L237.799 487.875C237.632 487.885 237.519 487.808 237.461 487.643L229.364 463.83C229.308 463.713 229.302 463.618 229.346 463.543C229.413 463.467 229.507 463.425 229.627 463.417L232.394 463.248C232.561 463.237 232.674 463.315 232.732 463.479L239.139 482.671L243.368 462.827C243.43 462.655 243.521 462.565 243.64 462.558L246.371 462.39C246.443 462.386 246.517 462.417 246.594 462.485C246.668 462.528 246.707 462.574 246.71 462.622L253.411 481.904L257.346 461.97C257.408 461.798 257.498 461.708 257.618 461.7L260.098 461.548C260.217 461.541 260.315 461.571 260.392 461.639C260.468 461.706 260.498 461.8 260.481 461.922ZM294.174 484.417L291.407 484.587C291.287 484.594 291.199 484.527 291.142 484.387L288.298 477.997L278.057 478.625L276.158 485.306C276.119 485.452 276.028 485.53 275.884 485.539L273.153 485.706C273.034 485.714 272.936 485.684 272.859 485.616C272.806 485.523 272.799 485.416 272.839 485.293L280.265 460.528C280.256 460.384 280.336 460.307 280.504 460.297L283.917 460.087C284.061 460.079 284.161 460.145 284.218 460.285L294.435 483.968C294.49 484.085 294.485 484.194 294.419 484.294C294.375 484.369 294.294 484.41 294.174 484.417ZM282.397 464.112L278.963 475.756L287.156 475.254L282.397 464.112ZM314.422 483.175L311.583 483.349C311.416 483.359 311.328 483.305 311.321 483.185C311.239 483.022 311.143 482.835 311.034 482.625C310.948 482.39 310.836 482.145 310.7 481.889C310.369 481.187 309.971 480.382 309.506 479.473C309.064 478.538 308.588 477.63 308.077 476.747C307.566 475.865 307.035 475.056 306.485 474.32C305.959 473.583 305.446 473.062 304.946 472.756L300.635 473.02L301.287 483.656C301.3 483.872 301.211 483.985 301.019 483.997L298.36 484.16C298.121 484.175 297.994 484.074 297.981 483.859L296.496 459.64C296.482 459.425 296.584 459.31 296.799 459.297L304.453 458.828C305.507 458.763 306.509 458.834 307.459 459.04C308.41 459.246 309.249 459.604 309.978 460.112C310.73 460.619 311.336 461.279 311.794 462.092C312.253 462.906 312.518 463.899 312.59 465.073C312.69 466.702 312.341 468.07 311.544 469.177C310.746 470.284 309.63 471.098 308.195 471.619C309.309 472.921 310.273 474.329 311.087 475.841C311.9 477.331 312.703 478.868 313.498 480.455C313.689 480.828 313.868 481.201 314.035 481.576C314.227 481.949 314.43 482.321 314.645 482.693C314.7 482.809 314.707 482.917 314.665 483.016C314.623 483.115 314.542 483.168 314.422 483.175ZM309.28 465.204L309.316 465.202C309.271 464.459 309.101 463.857 308.809 463.394C308.516 462.931 308.134 462.581 307.662 462.346C307.191 462.11 306.665 461.962 306.084 461.902C305.502 461.817 304.887 461.795 304.24 461.834L299.929 462.099L300.42 470.112L304.301 469.874C304.995 469.831 305.65 469.719 306.264 469.537C306.9 469.33 307.448 469.044 307.906 468.679C308.363 468.29 308.719 467.811 308.972 467.243C309.226 466.674 309.329 465.995 309.28 465.204ZM332.301 482.078L318.611 482.918C318.371 482.933 318.245 482.832 318.232 482.617L316.746 458.398C316.733 458.183 316.834 458.068 317.05 458.055L330.309 457.242C330.548 457.227 330.675 457.328 330.688 457.543L330.831 459.879C330.844 460.094 330.743 460.209 330.528 460.222L320.179 460.857L320.64 468.367L329.515 467.822C329.755 467.808 329.881 467.908 329.894 468.124L330.035 470.423C330.047 470.615 329.945 470.717 329.729 470.731L320.818 471.277L321.338 479.757L332.082 479.098C332.154 479.094 332.228 479.125 332.304 479.193C332.379 479.236 332.42 479.306 332.425 479.402L332.569 481.737C332.582 481.953 332.493 482.067 332.301 482.078ZM364.489 455.65L356.866 470.148L357.484 480.209C357.497 480.425 357.396 480.539 357.18 480.552L354.521 480.715C354.305 480.729 354.191 480.628 354.178 480.412L353.556 470.279L344.187 456.895C344.108 456.78 344.09 456.673 344.132 456.574C344.172 456.452 344.252 456.387 344.372 456.379L347.57 456.183C347.69 456.176 347.777 456.218 347.83 456.311L355.157 466.971L361.233 455.489C361.23 455.441 361.252 455.404 361.298 455.377C361.369 455.349 361.428 455.333 361.476 455.33L364.135 455.167C364.279 455.158 364.378 455.212 364.433 455.329C364.511 455.42 364.53 455.527 364.489 455.65ZM386.05 466.302C386.151 467.955 386.034 469.573 385.699 471.157C385.385 472.715 384.822 474.12 384.009 475.372C383.219 476.599 382.175 477.613 380.878 478.414C379.58 479.214 378.021 479.671 376.201 479.782C374.356 479.896 372.741 479.634 371.356 478.998C369.97 478.361 368.81 477.483 367.876 476.362C366.94 475.217 366.209 473.891 365.684 472.384C365.181 470.852 364.879 469.26 364.778 467.607C364.675 465.93 364.78 464.313 365.093 462.755C365.429 461.171 365.992 459.766 366.783 458.539C367.571 457.289 368.615 456.275 369.914 455.498C371.212 454.697 372.783 454.24 374.627 454.127C376.448 454.015 378.051 454.277 379.436 454.914C380.82 455.526 381.98 456.405 382.916 457.55C383.875 458.669 384.605 459.995 385.108 461.527C385.633 463.034 385.947 464.625 386.05 466.302ZM382.636 466.512C382.566 465.362 382.363 464.208 382.027 463.05C381.692 461.893 381.208 460.864 380.576 459.965C379.942 459.042 379.14 458.31 378.169 457.769C377.22 457.202 376.099 456.958 374.806 457.037C373.488 457.118 372.381 457.498 371.485 458.179C370.612 458.833 369.917 459.657 369.401 460.651C368.885 461.644 368.531 462.736 368.339 463.926C368.148 465.116 368.087 466.274 368.156 467.4C368.225 468.526 368.427 469.667 368.762 470.825C369.098 471.983 369.583 473.023 370.216 473.946C370.85 474.869 371.641 475.614 372.59 476.181C373.56 476.722 374.705 476.953 376.022 476.872C377.316 476.793 378.399 476.426 379.273 475.771C380.169 475.091 380.875 474.254 381.391 473.26C381.907 472.267 382.261 471.175 382.453 469.985C382.644 468.795 382.705 467.637 382.636 466.512ZM407.492 468.846C407.663 471.649 407.032 473.9 405.597 475.599C404.161 477.274 402.054 478.197 399.275 478.367C396.377 478.545 394.124 477.89 392.518 476.401C390.936 474.911 390.056 472.717 389.878 469.818L388.906 453.972C388.893 453.757 388.994 453.642 389.21 453.629L391.869 453.466C392.084 453.453 392.199 453.554 392.212 453.769L393.177 469.508C393.295 471.424 393.819 472.919 394.751 473.992C395.681 475.041 397.14 475.504 399.128 475.383C401.044 475.265 402.436 474.627 403.303 473.467C404.169 472.308 404.545 470.782 404.428 468.89L403.459 453.08C403.446 452.864 403.547 452.75 403.762 452.736L406.17 452.589C406.385 452.575 406.5 452.677 406.513 452.892L407.492 468.846ZM424.681 457.801C424.734 458.663 424.684 459.424 424.532 460.082C424.379 460.717 424.149 461.284 423.843 461.784C423.56 462.258 423.214 462.688 422.804 463.074C422.418 463.434 422.019 463.795 421.608 464.157L421.68 464.153C421.247 464.54 420.816 464.963 420.388 465.422C419.957 465.857 419.581 466.385 419.259 467.006C419.02 467.43 418.89 467.859 418.869 468.293C418.847 468.727 418.85 469.159 418.876 469.591L418.931 470.489C418.944 470.705 418.855 470.818 418.663 470.83L416.328 470.973C416.088 470.988 415.962 470.887 415.949 470.672L415.854 469.127C415.804 468.312 415.856 467.6 416.011 466.989C416.189 466.353 416.419 465.798 416.703 465.324C417.009 464.824 417.354 464.382 417.739 463.998C418.123 463.589 418.508 463.205 418.895 462.845C419.237 462.535 419.566 462.227 419.884 461.919C420.2 461.587 420.479 461.233 420.721 460.857C420.962 460.482 421.142 460.074 421.259 459.634C421.4 459.193 421.454 458.696 421.42 458.145C421.339 456.828 420.86 455.871 419.982 455.276C419.102 454.657 418.051 454.385 416.83 454.46C416.303 454.492 415.872 454.53 415.538 454.575C415.228 454.618 414.91 454.71 414.581 454.85C414.277 454.989 413.906 455.204 413.467 455.495C413.028 455.787 412.429 456.208 411.669 456.76C411.6 456.812 411.517 456.829 411.42 456.811C411.346 456.792 411.283 456.735 411.229 456.643L410.256 454.899C410.204 454.83 410.188 454.759 410.207 454.685C410.227 454.612 410.259 454.55 410.304 454.499C411.175 453.796 411.851 453.262 412.334 452.896C412.84 452.528 413.292 452.248 413.689 452.055C414.11 451.861 414.547 451.738 415.001 451.686C415.454 451.634 416.064 451.585 416.831 451.538C417.837 451.476 418.792 451.562 419.696 451.795C420.624 452.027 421.44 452.397 422.145 452.907C422.873 453.416 423.456 454.089 423.892 454.928C424.35 455.741 424.614 456.699 424.681 457.801ZM419.422 476.735L416.368 476.922C416.129 476.937 416.002 476.836 415.989 476.621L415.795 473.459C415.783 473.267 415.885 473.164 416.101 473.151L419.191 472.962C419.431 472.947 419.556 473.035 419.568 473.227L419.762 476.389C419.775 476.605 419.662 476.72 419.422 476.735Z" fill="black"/>
<circle cx="176" cy="105" r="11" fill="black"/>
<rect x="123.5" y="64.5" width="108" height="42" rx="9.5" fill="#F6F6F6" stroke="black"/>
<path d="M177.266 134.317L169.447 106.911L182.423 106.288L177.266 134.317Z" fill="black"/>
<path d="M156.656 95H154.88C154.736 95 154.664 94.928 154.664 94.784V87.344H147.296V94.784C147.296 94.928 147.224 95 147.08 95H145.304C145.144 95 145.064 94.928 145.064 94.784V78.608C145.064 78.464 145.136 78.392 145.28 78.392H147.056C147.2 78.392 147.272 78.464 147.272 78.608V85.328H154.64V78.608C154.64 78.464 154.712 78.392 154.856 78.392H156.632C156.792 78.392 156.872 78.464 156.872 78.608V94.784C156.872 94.928 156.8 95 156.656 95ZM170.473 88.88C170.473 89.744 170.353 90.568 170.113 91.352C169.889 92.12 169.537 92.8 169.057 93.392C168.593 93.968 168.009 94.424 167.305 94.76C166.601 95.096 165.785 95.264 164.857 95.264C163.929 95.264 163.113 95.096 162.409 94.76C161.705 94.408 161.121 93.944 160.657 93.368C160.193 92.792 159.841 92.12 159.601 91.352C159.361 90.568 159.241 89.744 159.241 88.88C159.241 88 159.353 87.176 159.577 86.408C159.817 85.624 160.169 84.944 160.633 84.368C161.097 83.792 161.673 83.336 162.361 83C163.065 82.664 163.889 82.496 164.833 82.496C165.761 82.496 166.577 82.672 167.281 83.024C168.001 83.36 168.593 83.816 169.057 84.392C169.521 84.968 169.873 85.648 170.113 86.432C170.353 87.2 170.473 88.016 170.473 88.88ZM168.241 88.88H168.265C168.265 88.336 168.201 87.792 168.073 87.248C167.961 86.688 167.769 86.192 167.497 85.76C167.225 85.312 166.873 84.952 166.441 84.68C166.009 84.408 165.481 84.272 164.857 84.272C164.233 84.272 163.705 84.408 163.273 84.68C162.841 84.952 162.481 85.304 162.193 85.736C161.921 86.168 161.721 86.664 161.593 87.224C161.481 87.768 161.425 88.32 161.425 88.88C161.425 89.44 161.481 89.992 161.593 90.536C161.721 91.08 161.921 91.568 162.193 92C162.465 92.432 162.817 92.784 163.249 93.056C163.681 93.328 164.209 93.464 164.833 93.464C165.457 93.464 165.985 93.328 166.417 93.056C166.865 92.784 167.217 92.432 167.473 92C167.745 91.568 167.937 91.08 168.049 90.536C168.177 89.992 168.241 89.44 168.241 88.88ZM175.03 95H173.35C173.238 95 173.182 94.928 173.182 94.784V77.96C173.182 77.816 173.238 77.744 173.35 77.744H175.03C175.158 77.744 175.222 77.816 175.222 77.96V94.784C175.222 94.928 175.158 95 175.03 95ZM187.439 95H185.855C185.727 95 185.663 94.928 185.663 94.784L185.591 93.392C184.663 94.656 183.415 95.288 181.847 95.288C181.271 95.288 180.727 95.208 180.215 95.048C179.703 94.904 179.247 94.68 178.847 94.376C178.463 94.056 178.159 93.664 177.935 93.2C177.711 92.72 177.599 92.168 177.599 91.544C177.599 90.536 177.839 89.752 178.319 89.192C178.815 88.632 179.431 88.224 180.167 87.968C180.903 87.696 181.703 87.528 182.567 87.464C183.431 87.4 184.231 87.36 184.967 87.344C185.047 87.344 185.127 87.344 185.207 87.344C185.287 87.344 185.375 87.336 185.471 87.32V86.744C185.471 85.88 185.247 85.248 184.799 84.848C184.351 84.432 183.711 84.224 182.879 84.224C182.543 84.224 182.271 84.232 182.063 84.248C181.871 84.248 181.655 84.264 181.415 84.296C181.175 84.328 180.879 84.392 180.527 84.488C180.191 84.568 179.711 84.68 179.087 84.824C179.039 84.84 178.983 84.832 178.919 84.8C178.871 84.768 178.847 84.736 178.847 84.704L178.487 83.624C178.423 83.464 178.455 83.368 178.583 83.336C179.319 83.128 179.895 82.968 180.311 82.856C180.727 82.744 181.071 82.664 181.343 82.616C181.615 82.552 181.863 82.52 182.087 82.52C182.311 82.504 182.607 82.496 182.975 82.496C184.447 82.496 185.559 82.84 186.311 83.528C187.063 84.2 187.439 85.296 187.439 86.816V92.864C187.439 92.992 187.439 93.144 187.439 93.32C187.455 93.48 187.463 93.656 187.463 93.848C187.479 94.024 187.495 94.192 187.511 94.352C187.543 94.496 187.575 94.616 187.607 94.712C187.639 94.792 187.639 94.864 187.607 94.928C187.575 94.976 187.519 95 187.439 95ZM185.447 89.816L185.471 89.024H184.199C183.767 89.024 183.295 89.056 182.783 89.12C182.271 89.168 181.791 89.288 181.343 89.48C180.895 89.656 180.519 89.912 180.215 90.248C179.911 90.568 179.759 91 179.759 91.544C179.759 92.248 179.983 92.752 180.431 93.056C180.879 93.36 181.431 93.512 182.087 93.512C182.599 93.512 183.063 93.416 183.479 93.224C183.895 93.032 184.247 92.768 184.535 92.432C184.823 92.096 185.047 91.704 185.207 91.256C185.367 90.808 185.447 90.328 185.447 89.816ZM192.129 78.368L192.297 78.584C192.249 80.632 192.177 82.68 192.081 84.728C191.985 86.76 191.889 88.8 191.793 90.848C191.793 90.976 191.737 91.04 191.625 91.04H190.641C190.513 91.04 190.449 90.976 190.449 90.848C190.353 88.8 190.257 86.76 190.161 84.728C190.065 82.68 189.985 80.632 189.921 78.584C189.921 78.44 189.985 78.368 190.113 78.368H192.129ZM192.033 95H190.233C190.185 95 190.137 94.984 190.089 94.952C190.041 94.904 190.017 94.848 190.017 94.784V92.696C190.017 92.552 190.081 92.48 190.209 92.48H192.033C192.081 92.48 192.129 92.504 192.177 92.552C192.225 92.584 192.249 92.632 192.249 92.696V94.784C192.249 94.928 192.177 95 192.033 95ZM200.402 78.368L200.57 78.584C200.522 80.632 200.45 82.68 200.354 84.728C200.258 86.76 200.162 88.8 200.066 90.848C200.066 90.976 200.01 91.04 199.898 91.04H198.914C198.786 91.04 198.722 90.976 198.722 90.848C198.626 88.8 198.53 86.76 198.434 84.728C198.338 82.68 198.258 80.632 198.194 78.584C198.194 78.44 198.258 78.368 198.386 78.368H200.402ZM200.306 95H198.506C198.458 95 198.41 94.984 198.362 94.952C198.314 94.904 198.29 94.848 198.29 94.784V92.696C198.29 92.552 198.354 92.48 198.482 92.48H200.306C200.354 92.48 200.402 92.504 200.45 92.552C200.498 92.584 200.522 92.632 200.522 92.696V94.784C200.522 94.928 200.45 95 200.306 95ZM208.676 78.368L208.844 78.584C208.796 80.632 208.724 82.68 208.628 84.728C208.532 86.76 208.436 88.8 208.34 90.848C208.34 90.976 208.284 91.04 208.172 91.04H207.188C207.06 91.04 206.996 90.976 206.996 90.848C206.9 88.8 206.804 86.76 206.708 84.728C206.612 82.68 206.532 80.632 206.468 78.584C206.468 78.44 206.532 78.368 206.66 78.368H208.676ZM208.58 95H206.78C206.732 95 206.684 94.984 206.636 94.952C206.588 94.904 206.564 94.848 206.564 94.784V92.696C206.564 92.552 206.628 92.48 206.756 92.48H208.58C208.628 92.48 208.676 92.504 208.724 92.552C208.772 92.584 208.796 92.632 208.796 92.696V94.784C208.796 94.928 208.724 95 208.58 95Z" fill="black"/>
<circle cx="177.5" cy="136.5" r="0.5" fill="black"/>
<circle cx="177.5" cy="139.5" r="0.5" fill="black"/>
<circle cx="177.5" cy="142.5" r="0.5" fill="black"/>
<circle cx="177.5" cy="145.5" r="0.5" fill="black"/>
<circle cx="177.5" cy="148.5" r="0.5" fill="black"/>
<circle cx="177.5" cy="151.5" r="0.5" fill="black"/>
<circle cx="177.5" cy="154.5" r="0.5" fill="black"/>
<circle cx="177.5" cy="157.5" r="0.5" fill="black"/>
<circle cx="177.5" cy="160.5" r="0.5" fill="black"/>
<circle cx="177.5" cy="163.5" r="0.5" fill="black"/>
<circle cx="177.5" cy="166.5" r="0.5" fill="black"/>
<circle cx="177.5" cy="169.5" r="0.5" fill="black"/>
<circle cx="177.5" cy="172.5" r="0.5" fill="black"/>
<circle cx="177.5" cy="175.5" r="0.5" fill="black"/>
<circle cx="177.5" cy="178.5" r="0.5" fill="black"/>
<circle cx="177.5" cy="181.5" r="0.5" fill="black"/>
<path d="M177.5 168.021L177.21 168.098C175.977 168.429 174.864 169.103 174 170.041L174 166C174.864 166.939 175.977 167.613 177.21 167.943L177.5 168.021Z" fill="black"/>
<path d="M177.5 168.021L177.79 167.943C179.023 167.613 180.136 166.939 181 166L181 170.041C180.136 169.103 179.023 168.429 177.79 168.098L177.5 168.021Z" fill="black"/>
</svg>
