<svg xmlns="http://www.w3.org/2000/svg" width="603" height="603" fill="none" viewBox="0 0 603 603">
  <rect width="376" height="355" x="119" y="184" fill="#343538" rx="30"/>
  <rect width="375" height="268" x="119.5" y="184.5" fill="#E2DCD0" stroke="#000" rx="29.5"/>
  <path fill="#7056EE" d="m242.941 496.161-36.819 32.879h49.302l31.721-193.257-17.409-2.851-26.795 163.229Z"/>
  <path fill="#180C47" d="m287.384 334.489-17.435-2.859a1.306 1.306 0 0 0-.996.222 1.374 1.374 0 0 0-.528.851l-26.718 162.769-36.469 32.581a1.325 1.325 0 0 0 .112 2.065c.216.155.473.242.738.249h49.353a1.337 1.337 0 0 0 1.31-1.106l31.705-193.248a1.342 1.342 0 0 0-.227-.98 1.341 1.341 0 0 0-.845-.544Zm-33.049 193.223h-44.741l34.232-30.564c.224-.2.374-.47.425-.766l26.574-161.927 14.823 2.434-31.313 190.823Z"/>
  <path fill="#7056EE" d="m327.938 336.685-16.865 5.292 59.188 188.798.247-.085h49.157c-11.794-10.525-29.297-23.978-41.856-34.887l-49.871-159.118Z"/>
  <path fill="#180C47" d="M398.222 511.026c-6.654-5.412-13.521-11.002-19.273-15.988l-49.744-158.753a1.362 1.362 0 0 0-1.152-.924 1.3 1.3 0 0 0-.515.056l-16.857 5.293a1.336 1.336 0 0 0-.851 1.659l59.181 188.798a1.507 1.507 0 0 0 1.455.851h49.199a1.326 1.326 0 0 0 1.252-1.647 1.333 1.333 0 0 0-.401-.668c-6.323-5.675-14.44-12.287-22.294-18.677Zm-27.025 18.346L312.74 342.837l14.321-4.493 49.472 157.842c.078.233.216.441.399.604 5.846 5.106 12.841 10.773 19.622 16.295 6.782 5.523 13.759 11.198 19.571 16.287h-44.928Z"/>
  <path fill="#7056EE" d="M174.631 334.056a769.585 769.585 0 0 1-79.33 60.55 51.131 51.131 0 0 1-19.826-11.147 4.42 4.42 0 0 0-4.928-.799 4.412 4.412 0 0 0-2.524 4.308 4.418 4.418 0 0 0 1.564 3.068 63.429 63.429 0 0 0 8.755 6.578c.358.23.766.357 1.132.578-.34-.085-.689-.102-1.02-.187a93.76 93.76 0 0 1-11.913-3.863 4.414 4.414 0 0 0-3.383.044 4.43 4.43 0 0 0-2.361 2.424 4.419 4.419 0 0 0 2.468 5.743 103.817 103.817 0 0 0 13.052 4.255c1.447.366 2.936.519 4.4.851-2.902 0-5.795.051-8.68-.187a4.41 4.41 0 0 0-4.427 2.344 4.424 4.424 0 0 0 3.713 6.471c3.352.272 6.739.4 10.108.4 1.62.059 3.242.027 4.859-.094 7.173-.459 10.024-2.17 17.494-2.382h1.421l4.68 6.56a4.419 4.419 0 0 0 7.835-1.869 4.414 4.414 0 0 0-.636-3.236l-6.348-8.901a786.31 786.31 0 0 0 75.518-58.099c18.464-16.167 36.393-33.33 53.258-51.131l-12.815-12.159c-16.524 17.298-34.01 34.121-52.066 49.88Z"/>
  <path fill="#180C47" d="M227.608 283.112a1.05 1.05 0 0 0-.945-.366 1.335 1.335 0 0 0-.927.417c-16.508 17.41-34.036 34.198-51.982 49.888a766.336 766.336 0 0 1-78.632 60.066 52.041 52.041 0 0 1-11.376-5.106 52.866 52.866 0 0 1-7.37-5.531 6.053 6.053 0 0 0-4.169-1.455 5.744 5.744 0 0 0-3.488 10.015 69.209 69.209 0 0 0 3.2 2.681 92.636 92.636 0 0 1-4.885-1.787 5.712 5.712 0 0 0-4.397.038 5.739 5.739 0 0 0-3.074 3.144 5.752 5.752 0 0 0 3.2 7.463 99.259 99.259 0 0 0 7.164 2.552 5.695 5.695 0 0 0-3.974 5.004 5.762 5.762 0 0 0 5.259 6.186c3.404.272 6.807.408 10.21.408h.494c3.174-.111 3.064 0 3.872-.059h.579a56.763 56.763 0 0 0 8.296-1.209 47.457 47.457 0 0 1 9.147-1.191h.706l4.255 5.999a5.74 5.74 0 0 0 4.688 2.416 5.735 5.735 0 0 0 4.663-9.07l-5.556-7.803a783.599 783.599 0 0 0 74.522-57.436c18.498-16.167 36.452-33.381 53.351-51.224a1.311 1.311 0 0 0 .369-.945 1.317 1.317 0 0 0-.411-.927l-12.789-12.168Zm-42.231 63.256a786.4 786.4 0 0 1-75.381 57.998 1.343 1.343 0 0 0-.562.85 1.311 1.311 0 0 0 .23.996l6.339 8.9c.479.67.672 1.503.537 2.315a3.056 3.056 0 0 1-1.26 1.999 3.174 3.174 0 0 1-4.314-.723l-4.68-6.569a1.32 1.32 0 0 0-1.081-.553h-1.455c-3.23.1-6.444.507-9.598 1.217-2.616.584-5.273.97-7.947 1.157h-.587c-.792.06-.851 0-3.693.06h-.494c-3.344 0-6.722-.136-9.998-.409a3.094 3.094 0 0 1-2.823-2.11 3.093 3.093 0 0 1 .98-3.386 3.098 3.098 0 0 1 2.337-.673c2.314.187 4.654.179 6.884.196h1.905a1.325 1.325 0 0 0 1.32-1.191 1.343 1.343 0 0 0-1.056-1.438 64.318 64.318 0 0 0-1.846-.324c-.851-.136-1.702-.272-2.502-.476a102.312 102.312 0 0 1-12.882-4.17 3.093 3.093 0 0 1-.05-5.705 3.078 3.078 0 0 1 2.355-.021 94.726 94.726 0 0 0 12.1 3.914c.222.056.446.098.672.128l.366.059a1.289 1.289 0 0 0 1.54-.8 1.319 1.319 0 0 0-.553-1.625 6.253 6.253 0 0 0-.672-.34 4.284 4.284 0 0 1-.442-.221 64.142 64.142 0 0 1-8.577-6.442 3.105 3.105 0 0 1-1.021-2.127 3.116 3.116 0 0 1 2.859-3.199 3.187 3.187 0 0 1 2.255.791 56.398 56.398 0 0 0 7.726 5.803 55.63 55.63 0 0 0 12.576 5.616 1.389 1.389 0 0 0 1.14-.162 768.472 768.472 0 0 0 79.44-60.652 768.099 768.099 0 0 0 51.25-49.105l10.9 10.329a778.155 778.155 0 0 1-52.237 50.093Z"/>
  <path fill="#7056EE" d="M536.46 411.419a96.558 96.558 0 0 1-11.913 3.864c-.34.085-.698.102-1.03.187.358-.221.766-.358 1.132-.579a65.03 65.03 0 0 0 8.756-6.577 4.434 4.434 0 0 0 1.466-3.047 4.422 4.422 0 0 0-4.164-4.657 4.416 4.416 0 0 0-3.19 1.118 50.968 50.968 0 0 1-19.826 11.147 768.747 768.747 0 0 1-79.313-60.551 763.53 763.53 0 0 1-52.058-49.982l-12.823 12.16a784.946 784.946 0 0 0 53.258 51.139 786.165 786.165 0 0 0 75.5 58.108l-6.339 8.9a4.426 4.426 0 0 0-.922 3.371 4.424 4.424 0 0 0 1.816 2.986 4.421 4.421 0 0 0 5.061.037 4.42 4.42 0 0 0 1.235-1.288l4.68-6.569h2.629c6.807.247 9.36 1.931 16.295 2.391 1.614.122 3.233.154 4.85.094 3.404 0 6.756-.137 10.117-.409a4.416 4.416 0 0 0 4.046-4.761 4.414 4.414 0 0 0-4.76-4.046c-2.885.239-5.786.162-8.68.187 1.464-.306 2.953-.459 4.4-.85a103.678 103.678 0 0 0 13.044-4.255 4.415 4.415 0 0 0-3.267-8.203v.085Z"/>
  <path fill="#180C47" d="M540.323 410.228a5.652 5.652 0 0 0-4.357-.042 98.64 98.64 0 0 1-4.884 1.795 64.32 64.32 0 0 0 3.191-2.68 5.754 5.754 0 0 0-.383-8.863 5.75 5.75 0 0 0-3.123-1.152 5.466 5.466 0 0 0-4.152 1.455 49.838 49.838 0 0 1-18.72 10.678 766.643 766.643 0 0 1-78.641-60.09 760.681 760.681 0 0 1-51.964-49.897 1.392 1.392 0 0 0-.97-.409 1.349 1.349 0 0 0-.911.358l-12.831 12.159a1.345 1.345 0 0 0-.417.928 1.28 1.28 0 0 0 .374.944 785.603 785.603 0 0 0 53.352 51.225 786.624 786.624 0 0 0 74.522 57.435l-5.557 7.795a5.748 5.748 0 0 0 5.634 8.996 5.745 5.745 0 0 0 3.726-2.334l4.255-6.016h1.889c2.759.116 5.501.501 8.185 1.149a51.615 51.615 0 0 0 8.067 1.234h.536c1.174.108 2.354.128 3.531.059h.851c3.404 0 6.858-.136 10.211-.408a5.736 5.736 0 0 0 4.357-8.846 5.728 5.728 0 0 0-3.089-2.343 112.57 112.57 0 0 0 7.173-2.553 5.658 5.658 0 0 0 3.148-3.063 5.72 5.72 0 0 0-1.178-6.298 5.71 5.71 0 0 0-1.868-1.258l.043.042Zm.612 6.51a3.04 3.04 0 0 1-1.702 1.65 101.077 101.077 0 0 1-12.882 4.17c-.851.213-1.702.349-2.502.485-.612.102-1.225.196-1.838.323a1.328 1.328 0 0 0 .264 2.621h1.88c2.272 0 4.578 0 6.859-.187a3.02 3.02 0 0 1 3.352 2.833 3.097 3.097 0 0 1-2.833 3.336c-3.285.264-6.654.4-10.007.4h-.851c-2.629 0-2.552 0-3.344-.051l-.553-.043a49.403 49.403 0 0 1-7.658-1.174 43.998 43.998 0 0 0-8.645-1.208h-1.702c-1.14 0-1.702 0-2.093.57l-4.68 6.569a3.166 3.166 0 0 1-4.314.723 3.104 3.104 0 0 1-.723-4.314l6.339-8.901a1.31 1.31 0 0 0-.332-1.863 785.497 785.497 0 0 1-75.381-58.006c-18.108-15.81-35.738-32.658-52.271-50.093l10.908-10.33a763.995 763.995 0 0 0 51.242 49.106 767.742 767.742 0 0 0 79.448 60.661 1.356 1.356 0 0 0 1.14.153 55.573 55.573 0 0 0 12.577-5.616 56.405 56.405 0 0 0 7.717-5.795 3.083 3.083 0 0 1 4.374.239 3.038 3.038 0 0 1 .783 2.229 3.115 3.115 0 0 1-1.021 2.136 63.525 63.525 0 0 1-8.586 6.441c-.147.088-.3.165-.459.23-.213.102-.426.204-.638.323a1.322 1.322 0 0 0-.598 1.648 1.323 1.323 0 0 0 1.568.786l.391-.068c.23 0 .442-.068.664-.12a97.454 97.454 0 0 0 12.134-3.914 2.987 2.987 0 0 1 2.331 0 3.07 3.07 0 0 1 1.672 1.691 3.074 3.074 0 0 1-.03 2.377v-.017Z"/>
  <path fill="#7056EE" d="m478.207 197.043-122.862-1.701a12.964 12.964 0 0 1-12.304-9.514L314.442 81.814c-3.514-12.763-21.655-12.653-25.008.153-9.28 35.466-18.561 70.92-27.841 106.363a12.946 12.946 0 0 1-12.568 9.666l-122.581-.391c-13.24-.043-18.005 17.469-6.56 24.131l97.266 56.671a12.963 12.963 0 0 1 5.676 15.546l-42.29 118.241c-4.518 12.644 10.806 22.974 20.821 14.023l91.515-81.755a12.95 12.95 0 0 1 17.265 0l91.267 81.687c10.015 8.96 25.366-1.379 20.822-14.023l-42.324-117.842a12.946 12.946 0 0 1 5.684-15.563l98.96-57.538c11.351-6.603 6.799-23.952-6.339-24.14Z"/>
  <path fill="#180C47" d="m478.207 195.707-122.862-1.701a11.689 11.689 0 0 1-11.062-8.509L315.685 81.465a13.948 13.948 0 0 0-13.751-10.491h-.094a13.957 13.957 0 0 0-13.725 10.661L260.308 188.05a11.61 11.61 0 0 1-11.241 8.679l-122.58-.391a14.274 14.274 0 0 0-13.849 10.509 14.265 14.265 0 0 0 6.582 16.09l97.258 56.662a11.632 11.632 0 0 1 5.105 13.963l-42.298 118.19a13.924 13.924 0 0 0 5.471 16.644 14.37 14.37 0 0 0 8.033 2.553 14.104 14.104 0 0 0 9.445-3.727l91.523-81.755a11.64 11.64 0 0 1 15.503 0l91.259 81.687a14.271 14.271 0 0 0 22.975-15.453l-42.316-117.85a11.615 11.615 0 0 1 5.106-13.971l98.968-57.53a14.267 14.267 0 0 0 1.621-23.659 14.275 14.275 0 0 0-8.666-2.983Zm5.65 24.311-98.943 57.555a14.265 14.265 0 0 0-6.263 17.162l42.316 117.842a11.628 11.628 0 0 1-4.443 13.606 11.627 11.627 0 0 1-14.277-1.021l-91.268-81.687a14.254 14.254 0 0 0-19.018 0l-91.48 81.755a11.635 11.635 0 0 1-14.262.999 11.632 11.632 0 0 1-4.458-13.584l42.315-118.233a14.285 14.285 0 0 0-6.245-17.112l-97.267-56.67a11.63 11.63 0 0 1-1.206-19.27 11.63 11.63 0 0 1 7.06-2.402l122.581.4h.06a14.286 14.286 0 0 0 13.87-10.662L290.77 82.333a11.358 11.358 0 0 1 11.164-8.679h.068a11.373 11.373 0 0 1 11.206 8.51l28.608 104.022a14.324 14.324 0 0 0 13.563 10.483l122.862 1.702a11.623 11.623 0 0 1 5.684 21.664l-.068-.017Z"/>
  <path fill="#180C47" d="M294.072 271.055h-.4a12.657 12.657 0 0 1-11.87-10.322 2.104 2.104 0 0 1 .451-1.701 2.18 2.18 0 0 1 1.701-.792h20.311a2.184 2.184 0 0 1 1.702.792 2.131 2.131 0 0 1 .451 1.701 12.68 12.68 0 0 1-12.346 10.322Z"/>
  <mask id="a" width="26" height="14" x="281" y="258" maskUnits="userSpaceOnUse" style="mask-type:luminance">
    <path fill="#fff" d="M294.072 271.055h-.4a12.657 12.657 0 0 1-11.87-10.322 2.104 2.104 0 0 1 .451-1.701 2.18 2.18 0 0 1 1.701-.792h20.311a2.184 2.184 0 0 1 1.702.792 2.131 2.131 0 0 1 .451 1.701 12.68 12.68 0 0 1-12.346 10.322Z"/>
  </mask>
  <g mask="url(#a)">
    <path fill="#180C47" d="M293.714 269.736a11.324 11.324 0 0 0 11.496-10.211h-22.243a11.322 11.322 0 0 0 10.747 10.211Z"/>
    <path fill="#FFC5E1" d="M290.881 264.945c-3.574.962-7.037 4.255-6.399 6.084 1.2 3.463 17.307 2.732 18.005-.434.477-2.127-5.522-7.292-11.606-5.65Z"/>
  </g>
  <path fill="#180C47" d="M311.328 240.099h-.162c-3.063.179-5.607 5.105-5.556 10.849h2.655c-.051-5.191 2.135-8.118 3.054-8.169.851 0 3.532 2.723 3.923 8.135l2.646-.187c-.442-6.45-3.718-10.628-6.56-10.628Zm-36.657.008a4.098 4.098 0 0 0-2.961 1.302c-1.702 1.745-2.723 5.225-2.689 9.539h2.663c0-3.514.698-6.441 1.906-7.658a1.49 1.49 0 0 1 1.081-.519c2.825 0 3.744 4.424 4.016 8.134l2.638-.187c-.638-8.773-3.931-10.611-6.654-10.611Zm29.569 16.78h-20.311a3.46 3.46 0 0 0-3.343 2.577 3.48 3.48 0 0 0-.061 1.499 13.961 13.961 0 0 0 13.13 11.402h.442a13.927 13.927 0 0 0 8.862-3.248 13.926 13.926 0 0 0 4.753-8.154 3.472 3.472 0 0 0-3.404-4.084l-.068.008Zm-10.168 12.849h-.358a11.308 11.308 0 0 1-10.61-9.241.308.308 0 0 1 0-.043 1.326 1.326 0 0 0 2.646-.204 1.396 1.396 0 0 0-.204-.697h18.719a.855.855 0 0 1 .656.297.796.796 0 0 1 .178.656 11.405 11.405 0 0 1-11.027 9.232Z"/>
  <rect width="365.675" height="84.44" x="120.53" y="440.911" fill="#F6F7A5" stroke="#000" rx="39.5" transform="rotate(-3.509 120.53 440.911)"/>
  <circle cx="128" cy="485" r="15.5" fill="#F6F6F6" stroke="#000"/>
  <circle cx="128" cy="485" r="7" fill="#343538"/>
  <path fill="#000" d="m204.527 489.916-2.659.163c-.215.013-.33-.088-.343-.304l-.683-11.139-11.032.677.684 11.139c.013.216-.088.33-.304.343l-2.659.163c-.239.015-.366-.085-.379-.301l-1.486-24.219c-.013-.215.088-.33.304-.343l2.659-.163c.216-.013.33.088.343.304l.617 10.061 11.032-.677-.618-10.061c-.013-.216.088-.33.304-.343l2.659-.163c.24-.015.366.085.379.301l1.486 24.219c.013.215-.088.33-.304.343Zm24.424-13.978a17.998 17.998 0 0 1-.352 4.855c-.313 1.558-.876 2.963-1.689 4.215-.79 1.227-1.834 2.241-3.132 3.042-1.297.801-2.856 1.257-4.676 1.369-1.845.113-3.46-.149-4.846-.785-1.385-.637-2.545-1.515-3.48-2.636-.935-1.145-1.666-2.471-2.191-3.977a18.968 18.968 0 0 1-.906-4.778 18.713 18.713 0 0 1 .315-4.852c.336-1.584.899-2.989 1.689-4.216a9.275 9.275 0 0 1 3.132-3.041c1.297-.801 2.868-1.258 4.713-1.371 1.82-.112 3.423.15 4.809.787a9.266 9.266 0 0 1 3.48 2.636c.958 1.119 1.689 2.445 2.192 3.977.525 1.507.839 3.098.942 4.775Zm-3.414.21a15.852 15.852 0 0 0-.609-3.462c-.335-1.157-.819-2.185-1.452-3.084a7.037 7.037 0 0 0-2.407-2.197c-.948-.567-2.069-.811-3.363-.732-1.317.081-2.424.462-3.32 1.142a7.185 7.185 0 0 0-2.085 2.472 10.773 10.773 0 0 0-1.061 3.275 15.726 15.726 0 0 0-.184 3.474c.069 1.126.272 2.268.607 3.425.336 1.158.82 2.198 1.454 3.121a7.555 7.555 0 0 0 2.373 2.235c.971.541 2.115.772 3.433.691 1.294-.079 2.377-.446 3.251-1.101a7.396 7.396 0 0 0 2.118-2.51 10.76 10.76 0 0 0 1.061-3.276c.192-1.19.253-2.347.184-3.473Zm34.944-14.226-4.982 24.615c-.086.173-.188.264-.308.271l-2.983.183a.348.348 0 0 1-.184-.061c-.076-.067-.116-.125-.118-.173l-6.637-18.817-4.179 19.481c-.086.173-.188.264-.308.271l-2.983.183c-.167.01-.28-.067-.338-.232l-8.097-23.813c-.056-.117-.062-.212-.018-.287a.392.392 0 0 1 .281-.126l2.767-.169c.167-.011.28.067.338.231l6.407 19.192 4.229-19.844c.062-.172.153-.262.272-.269l2.731-.168c.072-.004.146.027.223.095.074.043.113.089.116.137l6.701 19.282 3.935-19.934c.062-.172.152-.262.272-.27l2.48-.152a.39.39 0 0 1 .294.091c.076.067.106.161.089.283Zm33.693 22.495-2.767.17c-.12.007-.208-.06-.265-.2l-2.844-6.39-10.241.628-1.899 6.681c-.039.146-.13.224-.274.233l-2.731.167a.386.386 0 0 1-.294-.09.385.385 0 0 1-.02-.323l7.426-24.765c-.009-.144.071-.221.239-.231l3.413-.21c.144-.008.244.058.301.198l10.217 23.683a.314.314 0 0 1-.016.326c-.044.075-.125.116-.245.123Zm-11.777-20.305-3.434 11.644 8.193-.502-4.759-11.142Zm32.025 19.063-2.839.174c-.167.01-.255-.044-.262-.164-.082-.163-.178-.35-.287-.56a5.908 5.908 0 0 0-.334-.736 84.797 84.797 0 0 0-1.194-2.416 37.054 37.054 0 0 0-1.429-2.726 24.925 24.925 0 0 0-1.592-2.427c-.526-.737-1.039-1.258-1.539-1.564l-4.311.264.652 10.636c.013.216-.076.329-.268.341l-2.659.163c-.239.015-.366-.086-.379-.301l-1.485-24.219c-.014-.215.088-.33.303-.343l7.654-.469a10.95 10.95 0 0 1 3.006.212c.951.206 1.79.564 2.519 1.072a5.76 5.76 0 0 1 1.816 1.98c.459.814.724 1.807.796 2.981.1 1.629-.249 2.997-1.046 4.104-.798 1.107-1.914 1.921-3.349 2.442a23.909 23.909 0 0 1 2.892 4.222c.813 1.49 1.616 3.027 2.411 4.614.191.373.37.746.537 1.121.192.373.395.745.61 1.117a.382.382 0 0 1 .02.323c-.042.099-.123.152-.243.159Zm-5.142-17.971.036-.002c-.045-.743-.215-1.345-.507-1.808a2.838 2.838 0 0 0-1.147-1.048 4.53 4.53 0 0 0-1.578-.444 9.004 9.004 0 0 0-1.844-.068l-4.311.265.491 8.013 3.881-.238a8.809 8.809 0 0 0 1.963-.337 5.179 5.179 0 0 0 1.642-.858 3.992 3.992 0 0 0 1.066-1.436c.254-.569.357-1.248.308-2.039Zm23.021 16.874-13.69.84c-.24.015-.366-.086-.379-.301l-1.486-24.219c-.013-.215.088-.33.304-.343l13.259-.813c.239-.015.366.086.379.301l.143 2.336c.013.215-.088.33-.303.343l-10.349.635.461 7.51 8.875-.545c.24-.014.366.086.379.302l.141 2.299c.012.192-.09.294-.306.308l-8.911.546.52 8.48 10.744-.659c.072-.004.146.027.222.095a.24.24 0 0 1 .121.209l.144 2.335c.013.216-.076.33-.268.341Zm32.188-26.428-7.623 14.498.618 10.061c.013.216-.088.33-.304.343l-2.659.163c-.216.014-.33-.087-.343-.303l-.622-10.133-9.369-13.384c-.079-.115-.097-.222-.055-.321.04-.122.12-.187.24-.195l3.198-.196c.12-.007.207.035.26.128l7.327 10.66 6.076-11.482c-.003-.048.019-.085.065-.112a.612.612 0 0 1 .178-.047l2.659-.163c.144-.009.243.045.298.162a.311.311 0 0 1 .056.321Zm21.561 10.652a18.039 18.039 0 0 1-.351 4.855c-.314 1.558-.877 2.963-1.69 4.215-.79 1.227-1.834 2.241-3.131 3.042-1.298.8-2.857 1.257-4.677 1.368-1.845.114-3.46-.148-4.845-.784-1.386-.637-2.546-1.515-3.48-2.636-.936-1.145-1.667-2.471-2.192-3.978a18.952 18.952 0 0 1-.906-4.777 18.713 18.713 0 0 1 .315-4.852c.336-1.584.899-2.989 1.69-4.216a9.263 9.263 0 0 1 3.131-3.041c1.298-.801 2.869-1.258 4.713-1.371 1.821-.112 3.424.15 4.809.787a9.266 9.266 0 0 1 3.48 2.636c.959 1.119 1.689 2.445 2.192 3.977.525 1.507.839 3.098.942 4.775Zm-3.414.21a15.852 15.852 0 0 0-.609-3.462c-.335-1.157-.819-2.186-1.451-3.085a7.043 7.043 0 0 0-2.407-2.196c-.949-.567-2.07-.811-3.363-.732-1.318.081-2.425.461-3.321 1.142a7.173 7.173 0 0 0-2.084 2.472c-.516.993-.87 2.085-1.062 3.275a15.785 15.785 0 0 0-.183 3.474c.069 1.126.271 2.267.606 3.425a10.79 10.79 0 0 0 1.454 3.121 7.547 7.547 0 0 0 2.374 2.235c.97.541 2.115.772 3.432.691 1.294-.079 2.377-.446 3.251-1.101a7.39 7.39 0 0 0 2.118-2.511c.516-.993.87-2.085 1.062-3.275.191-1.19.252-2.348.183-3.473Zm24.856 2.334c.171 2.803-.46 5.054-1.895 6.753-1.436 1.675-3.543 2.598-6.322 2.768-2.898.178-5.151-.477-6.757-1.966-1.582-1.49-2.462-3.684-2.64-6.583l-.972-15.846c-.013-.215.088-.33.304-.343l2.659-.163c.215-.013.33.088.343.303l.965 15.739c.118 1.916.642 3.411 1.574 4.484.93 1.049 2.389 1.512 4.377 1.391 1.916-.118 3.308-.756 4.175-1.916.866-1.159 1.242-2.685 1.125-4.577l-.969-15.81c-.013-.216.088-.33.303-.344l2.408-.147c.215-.014.33.088.343.303l.979 15.954Zm17.189-11.045c.053.862.003 1.623-.149 2.281a5.963 5.963 0 0 1-1.728 2.992c-.386.36-.785.721-1.196 1.083l.072-.004c-.433.387-.864.81-1.292 1.269a6.44 6.44 0 0 0-1.129 1.584 2.887 2.887 0 0 0-.39 1.287c-.022.434-.019.866.007 1.298l.055.898c.013.216-.076.329-.268.341l-2.335.143c-.24.015-.366-.086-.379-.301l-.095-1.545c-.05-.815.002-1.527.157-2.138a6.787 6.787 0 0 1 .692-1.665c.306-.5.651-.942 1.036-1.326a24.14 24.14 0 0 1 1.156-1.153c.342-.31.671-.618.989-.926.316-.332.595-.686.837-1.062.241-.375.421-.783.538-1.223a4.05 4.05 0 0 0 .161-1.489c-.081-1.317-.56-2.274-1.438-2.869-.88-.619-1.931-.891-3.152-.816-.527.032-.958.07-1.292.115-.31.043-.628.135-.957.275a8.547 8.547 0 0 0-1.114.645c-.439.292-1.038.713-1.798 1.265a.304.304 0 0 1-.249.051c-.074-.019-.137-.076-.191-.168l-.973-1.744a.241.241 0 0 1-.049-.214.46.46 0 0 1 .097-.186 90.77 90.77 0 0 1 2.03-1.603 9.242 9.242 0 0 1 1.355-.841 4.279 4.279 0 0 1 1.312-.369 36.49 36.49 0 0 1 1.83-.148 9.158 9.158 0 0 1 2.865.257c.928.232 1.744.602 2.449 1.112a5.528 5.528 0 0 1 1.747 2.021c.458.813.722 1.771.789 2.873Zm-5.259 18.934-3.054.187c-.239.015-.366-.086-.379-.301l-.194-3.162c-.012-.192.09-.295.306-.308l3.09-.189c.24-.015.365.073.377.265l.194 3.162c.013.216-.1.331-.34.346Z"/>
  <circle cx="176" cy="105" r="11" fill="#000"/>
  <rect width="108" height="42" x="123.5" y="64.5" fill="#F6F6F6" stroke="#000" rx="9.5"/>
  <path fill="#000" d="m177.266 134.317-7.819-27.406 12.976-.623-5.157 28.029ZM156.656 95h-1.776c-.144 0-.216-.072-.216-.216v-7.44h-7.368v7.44c0 .144-.072.216-.216.216h-1.776c-.16 0-.24-.072-.24-.216V78.608c0-.144.072-.216.216-.216h1.776c.144 0 .216.072.216.216v6.72h7.368v-6.72c0-.144.072-.216.216-.216h1.776c.16 0 .24.072.24.216v16.176c0 .144-.072.216-.216.216Zm13.817-6.12c0 .864-.12 1.688-.36 2.472a5.763 5.763 0 0 1-1.056 2.04 4.951 4.951 0 0 1-1.752 1.368c-.704.336-1.52.504-2.448.504-.928 0-1.744-.168-2.448-.504a5.2 5.2 0 0 1-1.752-1.392 6.056 6.056 0 0 1-1.056-2.016 8.398 8.398 0 0 1-.36-2.472c0-.88.112-1.704.336-2.472a6.023 6.023 0 0 1 1.056-2.04A5.01 5.01 0 0 1 162.361 83c.704-.336 1.528-.504 2.472-.504.928 0 1.744.176 2.448.528a4.9 4.9 0 0 1 1.776 1.368 6.023 6.023 0 0 1 1.056 2.04c.24.768.36 1.584.36 2.448Zm-2.232 0h.024c0-.544-.064-1.088-.192-1.632a4.376 4.376 0 0 0-.576-1.488 3.247 3.247 0 0 0-1.056-1.08c-.432-.272-.96-.408-1.584-.408-.624 0-1.152.136-1.584.408a3.576 3.576 0 0 0-1.08 1.056 4.76 4.76 0 0 0-.6 1.488 8.19 8.19 0 0 0 0 3.312 4.78 4.78 0 0 0 .6 1.464c.272.432.624.784 1.056 1.056.432.272.96.408 1.584.408.624 0 1.152-.136 1.584-.408.448-.272.8-.624 1.056-1.056.272-.432.464-.92.576-1.464a7.206 7.206 0 0 0 .192-1.656ZM175.03 95h-1.68c-.112 0-.168-.072-.168-.216V77.96c0-.144.056-.216.168-.216h1.68c.128 0 .192.072.192.216v16.824c0 .144-.064.216-.192.216Zm12.409 0h-1.584c-.128 0-.192-.072-.192-.216l-.072-1.392c-.928 1.264-2.176 1.896-3.744 1.896-.576 0-1.12-.08-1.632-.24a4.048 4.048 0 0 1-1.368-.672 3.479 3.479 0 0 1-.912-1.176c-.224-.48-.336-1.032-.336-1.656 0-1.008.24-1.792.72-2.352a4.315 4.315 0 0 1 1.848-1.224 8.759 8.759 0 0 1 2.4-.504 46.258 46.258 0 0 1 2.4-.12h.24c.08 0 .168-.008.264-.024v-.576c0-.864-.224-1.496-.672-1.896-.448-.416-1.088-.624-1.92-.624-.336 0-.608.008-.816.024a4.95 4.95 0 0 0-.648.048 7.01 7.01 0 0 0-.888.192c-.336.08-.816.192-1.44.336-.048.016-.104.008-.168-.024-.048-.032-.072-.064-.072-.096l-.36-1.08c-.064-.16-.032-.256.096-.288.736-.208 1.312-.368 1.728-.48.416-.112.76-.192 1.032-.24.272-.064.52-.096.744-.096.224-.016.52-.024.888-.024 1.472 0 2.584.344 3.336 1.032.752.672 1.128 1.768 1.128 3.288v6.504c.016.16.024.336.024.528l.048.504c.032.144.064.264.096.36a.254.254 0 0 1 0 .216c-.032.048-.088.072-.168.072Zm-1.992-5.184.024-.792h-1.272c-.432 0-.904.032-1.416.096a4.76 4.76 0 0 0-1.44.36 2.95 2.95 0 0 0-1.128.768c-.304.32-.456.752-.456 1.296 0 .704.224 1.208.672 1.512.448.304 1 .456 1.656.456.512 0 .976-.096 1.392-.288a3.06 3.06 0 0 0 1.056-.792c.288-.336.512-.728.672-1.176.16-.448.24-.928.24-1.44Zm6.682-11.448.168.216a262.64 262.64 0 0 1-.216 6.144l-.288 6.12c0 .128-.056.192-.168.192h-.984c-.128 0-.192-.064-.192-.192l-.288-6.12a394.122 394.122 0 0 1-.24-6.144c0-.144.064-.216.192-.216h2.016ZM192.033 95h-1.8a.258.258 0 0 1-.144-.048.23.23 0 0 1-.072-.168v-2.088c0-.144.064-.216.192-.216h1.824c.048 0 .096.024.144.072.048.032.072.08.072.144v2.088c0 .144-.072.216-.216.216Zm8.369-16.632.168.216a262.64 262.64 0 0 1-.216 6.144l-.288 6.12c0 .128-.056.192-.168.192h-.984c-.128 0-.192-.064-.192-.192l-.288-6.12a394.122 394.122 0 0 1-.24-6.144c0-.144.064-.216.192-.216h2.016ZM200.306 95h-1.8a.258.258 0 0 1-.144-.048.23.23 0 0 1-.072-.168v-2.088c0-.144.064-.216.192-.216h1.824c.048 0 .096.024.144.072.048.032.072.08.072.144v2.088c0 .144-.072.216-.216.216Zm8.37-16.632.168.216a262.64 262.64 0 0 1-.216 6.144l-.288 6.12c0 .128-.056.192-.168.192h-.984c-.128 0-.192-.064-.192-.192l-.288-6.12a394.122 394.122 0 0 1-.24-6.144c0-.144.064-.216.192-.216h2.016ZM208.58 95h-1.8a.258.258 0 0 1-.144-.048.23.23 0 0 1-.072-.168v-2.088c0-.144.064-.216.192-.216h1.824c.048 0 .096.024.144.072.048.032.072.08.072.144v2.088c0 .144-.072.216-.216.216Z"/>
  <circle cx="177.5" cy="136.5" r=".5" fill="#000"/>
  <circle cx="177.5" cy="139.5" r=".5" fill="#000"/>
  <circle cx="177.5" cy="142.5" r=".5" fill="#000"/>
  <circle cx="177.5" cy="145.5" r=".5" fill="#000"/>
  <circle cx="177.5" cy="148.5" r=".5" fill="#000"/>
  <circle cx="177.5" cy="151.5" r=".5" fill="#000"/>
  <circle cx="177.5" cy="154.5" r=".5" fill="#000"/>
  <circle cx="177.5" cy="157.5" r=".5" fill="#000"/>
  <circle cx="177.5" cy="160.5" r=".5" fill="#000"/>
  <circle cx="177.5" cy="163.5" r=".5" fill="#000"/>
  <circle cx="177.5" cy="166.5" r=".5" fill="#000"/>
  <circle cx="177.5" cy="169.5" r=".5" fill="#000"/>
  <circle cx="177.5" cy="172.5" r=".5" fill="#000"/>
  <circle cx="177.5" cy="175.5" r=".5" fill="#000"/>
  <circle cx="177.5" cy="178.5" r=".5" fill="#000"/>
  <circle cx="177.5" cy="181.5" r=".5" fill="#000"/>
  <path fill="#000" d="m177.5 168.021-.29.077a6.74 6.74 0 0 0-3.21 1.943V166a6.724 6.724 0 0 0 3.21 1.943l.29.078Zm0 0 .29-.078A6.724 6.724 0 0 0 181 166v4.041a6.74 6.74 0 0 0-3.21-1.943l-.29-.077Z"/>
</svg>
