<svg width="200" height="300" viewBox="0 0 200 300" fill="none" xmlns="http://www.w3.org/2000/svg">
<rect width="200" height="300" fill="#7056EE"/>
<path d="M63.8716 124.939L60.5656 115.106C31.6852 131.274 13.932 148.682 17.1793 156.764C19.1211 161.599 30.8892 168.269 37.0551 171.751C38.9147 172.803 40.5043 173.63 41.6571 174.217L41.4482 174.247L40.9105 174.329C40.2255 174.38 39.5886 174.7 39.1399 175.22C38.6912 175.74 38.4674 176.417 38.5179 177.102C38.5683 177.787 38.8888 178.424 39.4088 178.873C39.9289 179.322 40.6059 179.545 41.2909 179.495C41.4196 179.495 41.5483 179.486 41.6759 179.469C43.0683 179.26 44.2822 179.047 45.374 178.814C44.7563 178.959 44.2134 179.326 43.8489 179.845C43.4844 180.365 43.3239 181 43.3979 181.63C43.472 182.26 43.7753 182.841 44.2502 183.262C44.7251 183.683 45.3383 183.914 45.9728 183.912C46.1439 183.912 46.3146 183.894 46.4823 183.86C47.1757 183.722 47.8589 183.538 48.5274 183.308C48.4616 183.341 48.41 183.381 48.3442 183.416C48.0399 183.569 47.7686 183.78 47.5459 184.037C47.3231 184.295 47.1532 184.594 47.046 184.917C46.9387 185.24 46.8961 185.581 46.9207 185.921C46.9452 186.26 47.0364 186.592 47.189 186.896C47.3417 187.2 47.5527 187.472 47.8102 187.694C48.0677 187.917 48.3665 188.087 48.6896 188.194C49.0128 188.301 49.3539 188.344 49.6934 188.319C50.033 188.295 50.3644 188.204 50.6688 188.051C58.7247 184.013 61.439 176.569 59.408 171.709C58.3702 169.225 56.0339 167.248 52.6364 166.09L46.1113 164.383L45.8131 164.303C42.8382 163.522 30.22 158.081 28.7103 153.611C26.7262 147.759 41.1523 135.961 63.8716 124.939Z" fill="#F6F7A5"/>
<path d="M61.291 114.855C61.2519 114.747 61.1895 114.649 61.1084 114.568C61.0272 114.486 60.9293 114.424 60.8214 114.385C60.715 114.343 60.6004 114.325 60.4862 114.333C60.3719 114.341 60.261 114.375 60.1616 114.432C30.9173 130.816 12.9363 148.349 16.4325 157.062C18.4753 162.134 30.2599 168.802 36.5877 172.404C37.6819 173.022 38.6751 173.559 39.5368 174.015C38.8663 174.416 38.356 175.037 38.0932 175.773C37.8303 176.509 37.8313 177.313 38.0959 178.048C38.3605 178.783 38.8723 179.403 39.5438 179.802C40.2152 180.202 41.0046 180.355 41.7768 180.237L42.824 180.075C42.5799 180.677 42.5187 181.338 42.6479 181.974C42.9766 183.651 44.578 184.909 46.285 184.67C46.0717 185.303 46.0518 185.986 46.2278 186.63C46.4038 187.275 46.7677 187.852 47.2732 188.289C47.7787 188.726 48.4028 189.003 49.0661 189.084C49.7293 189.165 50.4017 189.046 50.9974 188.744C59.4643 184.503 62.2678 176.6 60.1076 171.411C58.9618 168.675 56.4588 166.583 52.8664 165.355L52.81 165.337L46.0525 163.568C46.0314 163.564 46.0109 163.557 45.9915 163.547C43.0119 162.768 30.7811 157.372 29.4287 153.364C27.8626 148.731 39.3091 137.722 64.2002 125.644C64.3686 125.561 64.5018 125.421 64.5755 125.249C64.6492 125.076 64.6585 124.883 64.6017 124.704L61.291 114.855ZM27.9494 153.852C29.593 158.743 42.5657 164.249 45.5899 165.045C45.6674 165.071 45.7637 165.097 45.8905 165.132L52.3898 166.83C55.5314 167.908 57.7056 169.697 58.6683 171.995C60.5632 176.525 57.9475 183.501 50.2977 187.342C49.8652 187.546 49.3707 187.576 48.9168 187.425C48.4629 187.274 48.0846 186.954 47.8605 186.532C47.7535 186.319 47.6896 186.087 47.6724 185.849C47.6552 185.611 47.6851 185.372 47.7603 185.145C47.8355 184.919 47.9547 184.71 48.1108 184.529C48.267 184.349 48.4572 184.201 48.6705 184.095C48.6917 184.083 48.8396 184.003 48.8584 183.987C49.0241 183.884 49.1475 183.726 49.2061 183.54C49.2647 183.354 49.2546 183.154 49.1777 182.975C49.1074 182.796 48.9693 182.652 48.7935 182.574C48.6177 182.496 48.4182 182.491 48.2385 182.559C47.6042 182.775 46.9563 182.949 46.299 183.08C45.8282 183.167 45.3421 183.067 44.9438 182.801C44.5454 182.536 44.266 182.125 44.1647 181.657C44.0713 181.198 44.1611 180.719 44.415 180.325C44.669 179.93 45.0669 179.65 45.5242 179.544C45.624 179.521 45.7181 179.478 45.8012 179.418C45.8843 179.358 45.9547 179.282 46.0084 179.195C46.0621 179.108 46.098 179.01 46.114 178.909C46.13 178.808 46.1259 178.705 46.1018 178.605C46.0826 178.504 46.0429 178.409 45.9854 178.324C45.9278 178.239 45.8536 178.167 45.7671 178.112C45.6807 178.057 45.584 178.021 45.4828 178.004C45.3817 177.988 45.2783 177.993 45.179 178.018C44.1037 178.253 42.9039 178.459 41.5256 178.661C41.2888 178.703 41.046 178.697 40.812 178.641C40.578 178.586 40.3578 178.484 40.1648 178.34C39.9718 178.197 39.81 178.016 39.6895 177.808C39.569 177.6 39.4923 177.369 39.464 177.131C39.3953 176.655 39.5175 176.171 39.8038 175.785C40.0901 175.399 40.5174 175.141 40.9926 175.069C41.1804 175.043 41.3683 175.02 41.5514 174.982L41.7392 174.959C41.9026 174.933 42.0536 174.856 42.1708 174.739C42.288 174.622 42.3654 174.472 42.392 174.308C42.417 174.145 42.3898 173.979 42.3143 173.833C42.2388 173.686 42.1188 173.567 41.9717 173.493C40.8306 172.916 39.2504 172.085 37.4025 171.047C31.6147 167.76 19.7033 161.014 17.8648 156.449C14.8124 148.809 32.9131 131.582 60.0959 116.216L62.9135 124.538C43.6599 133.967 25.5169 146.597 27.9588 153.852H27.9494Z" fill="#180C47"/>
<path d="M140.456 119.299L137.138 129.135C159.858 140.157 174.284 151.955 172.311 157.8C170.802 162.261 158.184 167.708 155.209 168.492L154.91 168.57L148.381 170.277C144.983 171.439 142.644 173.414 141.609 175.896C139.578 180.758 142.29 188.201 150.346 192.24C150.65 192.393 150.982 192.484 151.322 192.509C151.662 192.533 152.003 192.491 152.326 192.384C152.65 192.276 152.949 192.106 153.206 191.884C153.464 191.661 153.675 191.389 153.828 191.085C153.981 190.78 154.072 190.449 154.097 190.109C154.121 189.769 154.079 189.428 153.972 189.105C153.864 188.781 153.694 188.482 153.472 188.224C153.249 187.967 152.977 187.756 152.673 187.603C152.607 187.57 152.555 187.53 152.49 187.497C153.158 187.726 153.842 187.91 154.535 188.049C154.702 188.083 154.873 188.101 155.044 188.1C155.681 188.105 156.296 187.875 156.773 187.454C157.25 187.033 157.555 186.451 157.629 185.819C157.704 185.187 157.542 184.55 157.175 184.03C156.809 183.51 156.263 183.143 155.643 183.001C156.732 183.235 157.949 183.449 159.339 183.656C159.466 183.674 159.595 183.684 159.724 183.684C160.385 183.693 161.024 183.449 161.511 183.002C161.998 182.555 162.297 181.939 162.345 181.28C162.394 180.621 162.189 179.968 161.772 179.455C161.356 178.942 160.759 178.607 160.104 178.518C159.921 178.49 159.74 178.467 159.569 178.438L159.36 178.408C160.513 177.823 162.102 176.999 163.96 175.943C170.128 172.451 181.896 165.79 183.838 160.955C187.087 152.881 169.325 135.47 140.456 119.299Z" fill="#F6F7A5"/>
<path d="M140.837 118.621C140.738 118.563 140.627 118.529 140.513 118.521C140.399 118.513 140.285 118.531 140.179 118.574C140.071 118.613 139.973 118.676 139.892 118.757C139.811 118.838 139.749 118.936 139.71 119.044L136.406 128.884C136.349 129.063 136.358 129.256 136.432 129.428C136.506 129.601 136.639 129.741 136.807 129.823C161.696 141.901 173.145 152.911 171.579 157.53C170.226 161.538 157.996 166.933 155.016 167.715C154.996 167.724 154.976 167.73 154.955 167.734L148.195 169.502L148.141 169.523C144.549 170.749 142.036 172.841 140.9 175.579C138.733 180.765 141.543 188.671 150.01 192.912C150.604 193.207 151.272 193.32 151.93 193.238C152.588 193.155 153.207 192.881 153.71 192.448C154.213 192.015 154.577 191.444 154.756 190.806C154.936 190.167 154.924 189.49 154.72 188.859C156.432 189.082 158.029 187.845 158.357 186.163C158.487 185.527 158.425 184.866 158.181 184.264C158.519 184.313 158.886 184.37 159.233 184.426C160.116 184.54 161.008 184.309 161.723 183.779C162.439 183.25 162.921 182.465 163.07 181.587C163.165 180.928 163.064 180.256 162.78 179.653C162.497 179.051 162.042 178.545 161.473 178.199C162.325 177.748 163.298 177.225 164.352 176.628C170.745 173.001 182.53 166.323 184.568 161.251C188.062 152.535 170.083 135.005 140.837 118.621ZM183.131 160.674C181.297 165.238 169.384 171.991 163.659 175.231C161.75 176.311 160.168 177.138 159.029 177.715C158.881 177.79 158.762 177.909 158.686 178.056C158.611 178.203 158.585 178.37 158.611 178.533C158.637 178.696 158.715 178.846 158.832 178.962C158.949 179.078 159.1 179.154 159.264 179.178L159.477 179.209C159.635 179.239 159.82 179.265 160.02 179.291C160.494 179.366 160.92 179.624 161.204 180.011C161.489 180.398 161.609 180.882 161.539 181.357C161.391 182.324 160.445 183.071 159.482 182.883C158.099 182.679 156.899 182.468 155.824 182.24C155.724 182.213 155.621 182.208 155.519 182.223C155.417 182.239 155.32 182.275 155.233 182.331C155.147 182.386 155.072 182.458 155.015 182.544C154.958 182.629 154.919 182.726 154.901 182.827C154.877 182.927 154.873 183.03 154.889 183.131C154.905 183.232 154.941 183.329 154.994 183.417C155.048 183.504 155.119 183.58 155.202 183.64C155.285 183.7 155.379 183.743 155.479 183.766C155.936 183.872 156.334 184.152 156.587 184.547C156.841 184.941 156.93 185.42 156.836 185.879C156.728 186.343 156.449 186.748 156.054 187.014C155.659 187.279 155.178 187.385 154.709 187.309C154.048 187.178 153.398 187.002 152.762 186.781C152.681 186.753 152.596 186.738 152.511 186.736C152.339 186.736 152.173 186.793 152.037 186.897C151.901 187.001 151.803 187.147 151.758 187.313C151.713 187.478 151.724 187.654 151.79 187.812C151.855 187.971 151.971 188.104 152.119 188.19C152.197 188.243 152.281 188.29 152.368 188.328C152.791 188.548 153.11 188.926 153.258 189.38C153.405 189.834 153.368 190.327 153.154 190.754C152.931 191.177 152.553 191.498 152.098 191.649C151.644 191.8 151.149 191.769 150.717 191.564C143.065 187.73 140.451 180.747 142.346 176.217C143.309 173.914 145.483 172.125 148.625 171.052L155.124 169.354L155.422 169.27C158.449 168.474 171.415 162.965 173.065 158.077C175.507 150.821 157.369 138.189 138.111 128.762L140.907 120.466C168.076 135.806 186.183 153.026 183.131 160.674Z" fill="#180C47"/>
<path d="M78.3208 263.485L59.349 279.353L88.2153 280.292C88.2153 280.262 88.1965 280.234 88.1895 280.203H88.2599L92.6155 114.615L82.242 114.343L78.3208 263.485Z" fill="#F6F7A5"/>
<path d="M92.6343 113.831L82.2632 113.558C82.0567 113.562 81.8584 113.639 81.7044 113.777C81.5598 113.921 81.4758 114.115 81.4696 114.319L77.5578 263.114L58.856 278.757C58.7367 278.858 58.6508 278.993 58.6093 279.145C58.5678 279.296 58.5727 279.456 58.6233 279.604C58.6739 279.752 58.768 279.882 58.8932 279.976C59.0184 280.071 59.1691 280.125 59.3256 280.133L88.1895 281.072H88.2154C88.3362 281.072 88.4555 281.044 88.5635 280.989C88.6716 280.935 88.7654 280.856 88.8376 280.759C88.8972 280.685 88.9404 280.598 88.9644 280.506C89.0107 280.42 89.0372 280.324 89.0419 280.226L93.3927 114.639C93.399 114.431 93.3227 114.229 93.1806 114.078C93.0384 113.926 92.8419 113.838 92.6343 113.831ZM87.5016 279.484L61.413 278.639L78.821 264.082C78.905 264.01 78.9732 263.922 79.0213 263.822C79.0694 263.723 79.0963 263.614 79.1004 263.504L83.0028 115.139L91.8125 115.373L87.5016 279.484Z" fill="#180C47"/>
<path d="M119.89 114.413L109.514 114.225L106.502 279.844H106.577C106.577 279.874 106.556 279.903 106.546 279.931L135.427 280.285L117.183 263.591L119.89 114.413Z" fill="#F6F7A5"/>
<path d="M117.962 263.251L120.674 114.43C120.676 114.223 120.597 114.024 120.456 113.873C120.311 113.727 120.115 113.642 119.909 113.639L109.533 113.451H109.519C109.314 113.451 109.118 113.531 108.972 113.674C108.825 113.817 108.741 114.012 108.737 114.216L105.722 279.835C105.726 280.045 105.81 280.245 105.957 280.396L106.048 280.473C106.18 280.613 106.36 280.697 106.551 280.708L135.431 281.063C135.588 281.062 135.741 281.014 135.87 280.926C135.999 280.837 136.098 280.712 136.155 280.566C136.212 280.42 136.223 280.26 136.188 280.107C136.153 279.955 136.072 279.816 135.957 279.71C129.957 274.22 123.959 268.734 117.962 263.251ZM107.291 279.161L110.28 115.017L119.101 115.179L116.396 263.572C116.395 263.682 116.418 263.791 116.461 263.892C116.505 263.993 116.569 264.084 116.65 264.159C122.233 269.267 127.813 274.372 133.389 279.475L107.291 279.161Z" fill="#180C47"/>
<path d="M135.373 19.7817H59.4031C55.1173 19.7817 51.6429 23.2561 51.6429 27.5419V205.952C51.6429 210.238 55.1173 213.712 59.4031 213.712H135.373C139.658 213.712 143.133 210.238 143.133 205.952V27.5419C143.133 23.2561 139.658 19.7817 135.373 19.7817Z" fill="#F6F7A5"/>
<path d="M135.37 19H59.3914C57.127 19.0037 54.9565 19.9049 53.3554 21.506C51.7542 23.1071 50.8531 25.2777 50.8494 27.542V205.948C50.8531 208.212 51.7542 210.383 53.3554 211.984C54.9565 213.585 57.127 214.486 59.3914 214.49H135.361C137.625 214.487 139.796 213.586 141.398 211.984C142.999 210.383 143.9 208.212 143.903 205.948V27.542C143.9 25.2791 143 23.1096 141.401 21.5086C139.802 19.9076 137.633 19.0056 135.37 19ZM142.353 205.948C142.351 207.799 141.615 209.574 140.306 210.883C138.997 212.192 137.222 212.929 135.37 212.931H59.3914C57.5402 212.929 55.7654 212.192 54.4566 210.883C53.1478 209.574 52.412 207.799 52.4108 205.948V27.542C52.412 25.691 53.1479 23.9162 54.4567 22.6074C55.7656 21.2985 57.5404 20.5627 59.3914 20.5614H135.361C137.212 20.5627 138.987 21.2984 140.296 22.6072C141.606 23.916 142.342 25.6908 142.344 27.542L142.353 205.948Z" fill="#180C47"/>
<path d="M108.934 97.355C107.913 97.355 106.914 97.6579 106.065 98.2255C105.215 98.7931 104.553 99.5999 104.162 100.544C103.771 101.488 103.669 102.526 103.868 103.528C104.067 104.53 104.559 105.451 105.282 106.173C106.004 106.896 106.925 107.388 107.927 107.587C108.929 107.786 109.967 107.684 110.911 107.293C111.855 106.902 112.662 106.24 113.229 105.39C113.797 104.541 114.1 103.542 114.1 102.521C114.1 101.151 113.556 99.8367 112.587 98.8679C111.618 97.8992 110.304 97.355 108.934 97.355Z" fill="white"/>
<mask id="mask0_51_22" style="mask-type:luminance" maskUnits="userSpaceOnUse" x="103" y="97" width="12" height="11">
<path d="M108.925 107.691C111.779 107.691 114.093 105.377 114.093 102.523C114.093 99.6687 111.779 97.355 108.925 97.355C106.071 97.355 103.757 99.6687 103.757 102.523C103.757 105.377 106.071 107.691 108.925 107.691Z" fill="white"/>
</mask>
<g mask="url(#mask0_51_22)">
<path d="M105.76 99.3812C104.738 99.3812 103.739 99.6842 102.89 100.252C102.041 100.819 101.378 101.626 100.987 102.57C100.596 103.514 100.494 104.553 100.693 105.555C100.893 106.557 101.385 107.477 102.107 108.199C102.83 108.922 103.75 109.414 104.752 109.613C105.754 109.812 106.793 109.71 107.737 109.319C108.681 108.928 109.487 108.266 110.055 107.417C110.622 106.567 110.925 105.568 110.925 104.547C110.925 103.177 110.381 101.863 109.412 100.894C108.444 99.9254 107.13 99.3812 105.76 99.3812Z" fill="#180C47"/>
</g>
<path d="M114.501 91.6399L104.541 86.4931C104.389 86.4015 104.22 86.3421 104.044 86.3188C103.868 86.2954 103.689 86.3085 103.518 86.3572C103.347 86.406 103.188 86.4893 103.051 86.6021C102.914 86.7149 102.802 86.8547 102.721 87.0128C102.64 87.1709 102.593 87.3439 102.582 87.5211C102.571 87.6983 102.597 87.8759 102.657 88.0428C102.718 88.2096 102.812 88.3623 102.934 88.4911C103.056 88.62 103.204 88.7224 103.367 88.7918L113.318 93.941C113.502 94.0375 113.706 94.0875 113.914 94.0866C114.205 94.087 114.487 93.9898 114.716 93.8107C114.944 93.6315 115.106 93.3807 115.175 93.0986C115.244 92.8164 115.216 92.5192 115.096 92.2547C114.976 91.9902 114.771 91.7737 114.513 91.6399H114.501Z" fill="#180C47"/>
<path d="M85.8487 97.355C84.8271 97.355 83.8283 97.6579 82.9788 98.2255C82.1294 98.7931 81.4673 99.5999 81.0763 100.544C80.6853 101.488 80.5831 102.526 80.7824 103.528C80.9817 104.53 81.4736 105.451 82.1961 106.173C82.9185 106.896 83.8389 107.388 84.8409 107.587C85.843 107.786 86.8816 107.684 87.8255 107.293C88.7694 106.902 89.5761 106.24 90.1437 105.39C90.7113 104.541 91.0143 103.542 91.0143 102.521C91.0143 101.151 90.4701 99.8367 89.5013 98.8679C88.5326 97.8992 87.2187 97.355 85.8487 97.355Z" fill="white"/>
<mask id="mask1_51_22" style="mask-type:luminance" maskUnits="userSpaceOnUse" x="80" y="97" width="12" height="11">
<path d="M85.8486 107.691C88.7028 107.691 91.0165 105.377 91.0165 102.523C91.0165 99.6687 88.7028 97.355 85.8486 97.355C82.9944 97.355 80.6807 99.6687 80.6807 102.523C80.6807 105.377 82.9944 107.691 85.8486 107.691Z" fill="white"/>
</mask>
<g mask="url(#mask1_51_22)">
<path d="M82.6812 99.3812C81.6596 99.3812 80.6608 99.6842 79.8114 100.252C78.9619 100.819 78.2998 101.626 77.9088 102.57C77.5179 103.514 77.4156 104.553 77.6149 105.555C77.8142 106.557 78.3062 107.477 79.0286 108.199C79.751 108.922 80.6715 109.414 81.6735 109.613C82.6755 109.812 83.7141 109.71 84.658 109.319C85.6019 108.928 86.4087 108.266 86.9763 107.417C87.5439 106.567 87.8468 105.568 87.8468 104.547C87.8468 103.177 87.3026 101.863 86.3339 100.894C85.3651 99.9254 84.0512 99.3812 82.6812 99.3812Z" fill="#180C47"/>
</g>
<path d="M91.4181 90.3345L81.4626 85.2065C81.3105 85.1149 81.1412 85.0555 80.9652 85.0321C80.7892 85.0088 80.6103 85.0218 80.4396 85.0706C80.2689 85.1193 80.1101 85.2027 79.973 85.3155C79.8358 85.4283 79.7234 85.5681 79.6427 85.7262C79.5619 85.8843 79.5146 86.0573 79.5036 86.2345C79.4926 86.4117 79.5182 86.5893 79.5788 86.7561C79.6394 86.923 79.7336 87.0756 79.8558 87.2045C79.9779 87.3334 80.1252 87.4357 80.2886 87.5052L90.2441 92.6426C90.426 92.7403 90.6293 92.7912 90.8358 92.7905C91.1294 92.7938 91.4154 92.697 91.6468 92.5161C91.8781 92.3353 92.0411 92.0811 92.1088 91.7953C92.1766 91.5096 92.1451 91.2093 92.0196 90.9438C91.894 90.6784 91.6819 90.4635 91.4181 90.3345Z" fill="#180C47"/>
<path d="M97.4127 115.965C95.114 115.965 93.0407 114.364 92.2471 111.974L90.7678 112.46C91.7657 115.489 94.4331 117.52 97.4056 117.52C100.338 117.52 102.987 115.51 103.996 112.535L102.527 112.039C101.733 114.385 99.6761 115.965 97.4127 115.965Z" fill="#180C47"/>
<path d="M156 128.842L152.168 137.259C165.916 145.574 173.802 153.395 172.311 157.811C170.802 162.273 158.184 167.72 155.209 168.504L154.91 168.582L148.381 170.277C144.983 171.439 142.644 173.414 141.609 175.896C139.578 180.758 142.29 188.202 150.346 192.24C150.65 192.393 150.982 192.484 151.322 192.509C151.662 192.533 152.003 192.491 152.326 192.384C152.65 192.276 152.949 192.106 153.206 191.884C153.464 191.661 153.675 191.389 153.828 191.085C153.981 190.78 154.072 190.449 154.097 190.109C154.121 189.769 154.079 189.428 153.972 189.105C153.864 188.781 153.694 188.482 153.472 188.225C153.249 187.967 152.977 187.756 152.673 187.603C152.607 187.57 152.555 187.53 152.49 187.497C153.158 187.726 153.842 187.91 154.535 188.049C154.702 188.084 154.873 188.101 155.044 188.101C155.681 188.106 156.296 187.875 156.773 187.454C157.25 187.033 157.555 186.451 157.629 185.819C157.704 185.187 157.542 184.55 157.175 184.03C156.809 183.51 156.263 183.143 155.643 183.001C156.732 183.236 157.949 183.449 159.339 183.656C159.466 183.674 159.595 183.684 159.724 183.684C160.385 183.693 161.024 183.449 161.511 183.002C161.998 182.555 162.297 181.939 162.345 181.28C162.394 180.621 162.189 179.968 161.772 179.455C161.356 178.942 160.759 178.607 160.104 178.518C159.921 178.49 159.74 178.467 159.569 178.439L159.36 178.408C160.513 177.823 162.102 176.999 163.96 175.943C170.128 172.451 181.896 165.79 183.838 160.955C186.456 154.458 175.441 141.911 156 128.842Z" fill="#F6F7A5"/>
<path d="M156.437 128.187C156.266 128.078 156.059 128.039 155.861 128.08C155.662 128.121 155.488 128.238 155.374 128.406C155.261 128.573 155.217 128.779 155.253 128.978C155.289 129.178 155.401 129.355 155.565 129.473C174.732 142.373 185.549 154.618 183.119 160.674C181.285 165.238 169.372 171.991 163.647 175.231C161.738 176.311 160.156 177.138 159.017 177.715C158.87 177.79 158.75 177.909 158.675 178.056C158.599 178.203 158.573 178.37 158.599 178.533C158.625 178.696 158.703 178.846 158.82 178.962C158.937 179.078 159.089 179.154 159.252 179.178L159.465 179.209C159.623 179.239 159.808 179.265 160.008 179.291C160.482 179.366 160.908 179.625 161.193 180.011C161.477 180.398 161.597 180.882 161.527 181.357C161.379 182.324 160.433 183.071 159.47 182.883C158.087 182.679 156.887 182.468 155.812 182.24C155.713 182.213 155.609 182.208 155.507 182.223C155.406 182.239 155.308 182.275 155.222 182.331C155.135 182.386 155.06 182.458 155.003 182.544C154.946 182.629 154.907 182.726 154.889 182.827C154.865 182.927 154.861 183.03 154.877 183.131C154.893 183.232 154.929 183.329 154.983 183.417C155.036 183.504 155.107 183.58 155.19 183.64C155.273 183.7 155.367 183.743 155.467 183.766C155.924 183.872 156.322 184.152 156.575 184.547C156.829 184.941 156.918 185.42 156.824 185.879C156.716 186.343 156.437 186.748 156.042 187.014C155.647 187.279 155.166 187.385 154.697 187.309C154.036 187.178 153.386 187.002 152.75 186.781C152.568 186.712 152.366 186.716 152.187 186.792C152.008 186.869 151.865 187.012 151.79 187.192C151.708 187.368 151.696 187.568 151.754 187.752C151.813 187.937 151.939 188.093 152.107 188.19C152.185 188.243 152.269 188.29 152.356 188.328C152.779 188.548 153.099 188.926 153.246 189.38C153.393 189.834 153.356 190.327 153.142 190.754C152.919 191.177 152.541 191.498 152.087 191.649C151.632 191.8 151.137 191.769 150.705 191.564C143.053 187.73 140.44 180.747 142.334 176.217C143.302 173.907 145.481 172.113 148.641 171.035L155.112 169.347L155.41 169.263C158.437 168.467 171.403 162.958 173.053 158.07C174.669 153.277 167.202 145.454 152.569 136.607C152.393 136.5 152.182 136.469 151.982 136.518C151.783 136.568 151.611 136.695 151.505 136.871C151.398 137.047 151.367 137.258 151.416 137.458C151.466 137.658 151.593 137.829 151.769 137.936C165.103 146.001 172.882 153.707 171.574 157.572C170.222 161.58 157.991 166.976 155.011 167.757C154.992 167.766 154.971 167.772 154.95 167.776L148.19 169.544C144.544 170.791 142.041 172.883 140.895 175.621C138.728 180.808 141.539 188.713 150.005 192.954C150.401 193.155 150.832 193.275 151.274 193.309C151.716 193.342 152.16 193.287 152.581 193.148C153.002 193.008 153.39 192.787 153.725 192.496C154.06 192.205 154.333 191.851 154.53 191.453C154.932 190.651 155 189.723 154.718 188.871C154.828 188.884 154.94 188.89 155.051 188.889C155.831 188.888 156.586 188.617 157.188 188.122C157.79 187.628 158.202 186.94 158.355 186.175C158.484 185.538 158.423 184.878 158.179 184.276C158.517 184.325 158.883 184.381 159.231 184.438C160.113 184.552 161.006 184.32 161.721 183.791C162.436 183.262 162.919 182.476 163.067 181.599C163.162 180.94 163.062 180.267 162.778 179.665C162.494 179.063 162.04 178.557 161.471 178.211C162.323 177.76 163.295 177.236 164.349 176.64C170.743 173.012 182.528 166.335 184.566 161.263C187.324 154.386 176.542 141.713 156.437 128.187Z" fill="#180C47"/>
<path d="M152.931 186.851C152.227 186.382 151.461 185.893 150.651 185.412C150.078 185.074 149.512 184.755 148.965 184.473C148.783 184.376 148.569 184.356 148.371 184.417C148.173 184.477 148.008 184.614 147.911 184.797C147.814 184.98 147.794 185.194 147.855 185.391C147.915 185.589 148.052 185.754 148.235 185.851C148.761 186.131 149.308 186.429 149.855 186.758C150.642 187.227 151.377 187.697 152.06 188.145C152.188 188.235 152.34 188.283 152.497 188.284C152.663 188.283 152.825 188.229 152.959 188.13C153.093 188.031 153.191 187.891 153.24 187.731C153.289 187.572 153.285 187.401 153.229 187.244C153.174 187.087 153.069 186.952 152.931 186.859V186.851Z" fill="#180C47"/>
<path d="M156.702 182.611L152.795 180.62C152.703 180.566 152.602 180.532 152.496 180.519C152.39 180.506 152.283 180.514 152.181 180.544C152.079 180.574 151.984 180.625 151.903 180.693C151.821 180.761 151.754 180.845 151.706 180.939C151.658 181.034 151.629 181.138 151.623 181.244C151.616 181.35 151.631 181.457 151.667 181.557C151.703 181.657 151.76 181.748 151.832 181.826C151.905 181.903 151.993 181.965 152.091 182.007L155.998 183.999C156.108 184.054 156.229 184.084 156.352 184.085C156.528 184.086 156.698 184.027 156.836 183.919C156.973 183.81 157.071 183.659 157.112 183.488C157.153 183.318 157.135 183.138 157.062 182.979C156.988 182.82 156.863 182.69 156.707 182.611H156.702Z" fill="#180C47"/>
<path d="M159.691 177.68L158.212 177.445C158.398 176.819 158.398 176.153 158.212 175.527C157.989 174.762 157.506 174.098 156.848 173.649C156.764 173.589 156.67 173.547 156.57 173.524C156.471 173.502 156.367 173.5 156.267 173.518C156.166 173.536 156.07 173.575 155.985 173.631C155.9 173.688 155.826 173.761 155.77 173.846C155.711 173.929 155.669 174.024 155.648 174.124C155.626 174.223 155.624 174.327 155.642 174.427C155.661 174.528 155.699 174.623 155.754 174.709C155.81 174.795 155.883 174.868 155.967 174.926C156.324 175.18 156.589 175.542 156.723 175.959C156.794 176.24 156.804 176.534 156.753 176.819C156.702 177.105 156.591 177.377 156.427 177.617C156.352 177.726 156.306 177.852 156.293 177.983C156.28 178.115 156.301 178.248 156.353 178.369C156.405 178.491 156.488 178.597 156.592 178.678C156.697 178.759 156.82 178.813 156.951 178.833L159.449 179.206C159.487 179.212 159.526 179.216 159.564 179.218C159.763 179.221 159.956 179.149 160.103 179.015C160.25 178.881 160.34 178.696 160.355 178.497C160.37 178.299 160.309 178.102 160.184 177.948C160.058 177.793 159.879 177.692 159.682 177.666L159.691 177.68Z" fill="#180C47"/>
<path d="M52.6244 166.083L46.0993 164.376L45.8011 164.296C42.8262 163.515 30.2081 158.074 28.6983 153.604C27.2073 149.187 35.0943 141.368 48.8395 133.054L45.0099 124.634C25.5802 137.715 14.5446 150.262 17.1673 156.764C19.1091 161.599 30.8772 168.269 37.0431 171.751C38.9027 172.803 40.4923 173.63 41.6452 174.217L41.4362 174.247L40.8985 174.329C40.2135 174.38 39.5766 174.7 39.1279 175.22C38.6792 175.74 38.4555 176.417 38.5059 177.102C38.5564 177.787 38.8768 178.424 39.3969 178.873C39.9169 179.322 40.5939 179.545 41.2789 179.495C41.4077 179.495 41.5363 179.486 41.664 179.469C43.0563 179.26 44.2702 179.047 45.3621 178.814C44.7443 178.959 44.2014 179.326 43.8369 179.845C43.4725 180.365 43.312 181 43.386 181.63C43.46 182.26 43.7634 182.841 44.2382 183.262C44.7131 183.683 45.3263 183.914 45.9608 183.912C46.132 183.912 46.3027 183.894 46.4703 183.86C47.1637 183.722 47.847 183.538 48.5154 183.308C48.4497 183.341 48.398 183.381 48.3323 183.416C48.0279 183.569 47.7567 183.78 47.5339 184.037C47.3111 184.295 47.1413 184.594 47.034 184.917C46.9267 185.24 46.8841 185.581 46.9087 185.921C46.9332 186.26 47.0244 186.592 47.1771 186.896C47.3297 187.2 47.5408 187.472 47.7982 187.694C48.0557 187.917 48.3546 188.087 48.6777 188.194C49.0008 188.301 49.3419 188.344 49.6815 188.319C50.021 188.295 50.3525 188.204 50.6568 188.051C58.7128 184.013 61.4271 176.569 59.396 171.709C58.3582 169.227 56.022 167.243 52.6244 166.083Z" fill="#F6F7A5"/>
<path d="M52.8758 165.348L46.0666 163.561C46.0454 163.557 46.0249 163.55 46.0055 163.54C43.0259 162.761 30.7952 157.365 29.4427 153.357C28.1396 149.497 35.9115 141.788 49.2481 133.718C49.4208 133.611 49.5442 133.439 49.5916 133.241C49.639 133.043 49.6066 132.835 49.5014 132.661C49.3962 132.486 49.2267 132.36 49.0295 132.31C48.8323 132.26 48.6232 132.289 48.4474 132.392C33.8147 141.237 26.3528 149.063 27.9635 153.853C29.6071 158.743 42.5751 164.249 45.5993 165.045C45.6815 165.071 45.7778 165.097 45.9046 165.132L52.4296 166.839C55.536 167.898 57.715 169.692 58.6823 172.005C60.5772 176.534 57.9615 183.51 50.3117 187.351C49.8793 187.556 49.3847 187.586 48.9308 187.435C48.4769 187.284 48.0986 186.964 47.8745 186.541C47.7675 186.328 47.7036 186.096 47.6864 185.858C47.6692 185.62 47.6991 185.381 47.7744 185.155C47.8496 184.928 47.9687 184.719 48.1249 184.539C48.2811 184.359 48.4713 184.211 48.6846 184.104C48.7057 184.092 48.8536 184.013 48.8724 183.996C49.0374 183.894 49.1603 183.737 49.2189 183.552C49.2775 183.367 49.2679 183.167 49.1918 182.989C49.1229 182.809 48.9853 182.663 48.8091 182.584C48.633 182.505 48.4328 182.5 48.2526 182.569C47.6183 182.785 46.9704 182.959 46.3131 183.09C45.8422 183.176 45.3561 183.076 44.9578 182.811C44.5594 182.545 44.2801 182.135 44.1788 181.667C44.0853 181.207 44.1751 180.729 44.4291 180.334C44.683 179.939 45.081 179.659 45.5383 179.554C45.638 179.53 45.7322 179.487 45.8152 179.427C45.8983 179.367 45.9688 179.292 46.0224 179.204C46.0761 179.117 46.112 179.02 46.1281 178.919C46.1441 178.817 46.1399 178.714 46.1159 178.614C46.0966 178.514 46.057 178.418 45.9994 178.334C45.9419 178.249 45.8676 178.177 45.7812 178.122C45.6948 178.067 45.598 178.03 45.4969 178.014C45.3958 177.998 45.2924 178.002 45.1931 178.027C44.1177 178.262 42.9179 178.469 41.5396 178.671C41.3029 178.713 41.0601 178.706 40.8261 178.651C40.5921 178.596 40.3718 178.493 40.1788 178.35C39.9858 178.206 39.8241 178.025 39.7036 177.817C39.5831 177.609 39.5063 177.379 39.4781 177.14C39.4094 176.664 39.5315 176.181 39.8178 175.794C40.1041 175.408 40.5314 175.151 41.0066 175.078C41.1944 175.053 41.3823 175.029 41.5654 174.992L41.7533 174.968C41.9167 174.942 42.0677 174.865 42.1849 174.748C42.3021 174.632 42.3794 174.481 42.406 174.318C42.431 174.155 42.4038 173.988 42.3283 173.842C42.2528 173.696 42.1329 173.577 41.9857 173.503C40.8446 172.925 39.2644 172.094 37.4165 171.056C31.6287 167.769 19.7173 161.023 17.8788 156.459C15.451 150.403 26.2682 138.158 45.435 125.259C45.5224 125.203 45.5977 125.13 45.6565 125.044C45.7153 124.959 45.7564 124.862 45.7774 124.761C45.7983 124.659 45.7987 124.554 45.7785 124.453C45.7583 124.351 45.718 124.254 45.6598 124.168C45.6016 124.082 45.5268 124.009 45.4398 123.952C45.3528 123.896 45.2554 123.857 45.1532 123.839C45.0511 123.821 44.9463 123.823 44.8451 123.846C44.7438 123.869 44.6482 123.911 44.5638 123.972C24.4603 137.499 13.683 150.171 16.4348 157.036C18.4776 162.108 30.2622 168.776 36.59 172.378C37.6842 172.996 38.6774 173.533 39.5391 173.989C38.8686 174.39 38.3583 175.011 38.0955 175.747C37.8326 176.483 37.8336 177.287 38.0982 178.022C38.3629 178.757 38.8747 179.377 39.5461 179.777C40.2176 180.176 41.0069 180.33 41.7791 180.211L42.8263 180.049C42.5822 180.651 42.521 181.312 42.6502 181.949C42.8256 182.766 43.2935 183.491 43.9659 183.987C44.6383 184.483 45.4688 184.717 46.3014 184.644C46.1556 185.064 46.0959 185.51 46.1257 185.953C46.1556 186.397 46.2744 186.83 46.4751 187.227C46.6719 187.624 46.9455 187.978 47.2801 188.269C47.6146 188.56 48.0036 188.782 48.4243 188.921C48.8451 189.061 49.2894 189.115 49.7314 189.082C50.1735 189.049 50.6046 188.928 50.9997 188.727C59.4666 184.487 62.2701 176.583 60.11 171.394C58.9712 168.668 56.4682 166.576 52.8758 165.348Z" fill="#180C47"/>
<path d="M52.0446 180.263C51.4976 180.552 50.9364 180.866 50.3588 181.202C49.5464 181.672 48.7809 182.16 48.0765 182.641C47.9394 182.735 47.8358 182.871 47.7809 183.027C47.726 183.184 47.7227 183.355 47.7715 183.514C47.8203 183.672 47.9185 183.812 48.052 183.911C48.1854 184.01 48.3471 184.064 48.5133 184.064C48.6694 184.065 48.8218 184.017 48.95 183.928C49.6333 183.459 50.3588 183.001 51.1477 182.545C51.7065 182.214 52.2466 181.911 52.7749 181.632C52.9568 181.534 53.0929 181.369 53.1535 181.171C53.2142 180.974 53.1945 180.761 53.0989 180.578C52.9975 180.399 52.8313 180.267 52.6349 180.209C52.4385 180.15 52.2271 180.17 52.0446 180.263Z" fill="#180C47"/>
<path d="M48.215 176.419L44.308 178.41C44.1517 178.49 44.0267 178.619 43.9532 178.779C43.8797 178.938 43.8621 179.117 43.9031 179.288C43.9441 179.458 44.0413 179.61 44.1791 179.718C44.3169 179.826 44.4872 179.885 44.6625 179.885C44.7855 179.883 44.9066 179.855 45.0171 179.8L48.9241 177.809C49.1073 177.714 49.2455 177.55 49.3088 177.354C49.3721 177.157 49.3553 176.944 49.2622 176.76C49.1656 176.578 49.0026 176.442 48.8073 176.378C48.612 176.315 48.3997 176.329 48.215 176.419Z" fill="#180C47"/>
<path d="M44.1623 169.462C43.5025 169.912 43.0176 170.575 42.7887 171.34C42.6014 171.967 42.6014 172.635 42.7887 173.261L41.3094 173.496C41.1158 173.526 40.9407 173.628 40.819 173.782C40.6973 173.936 40.6379 174.13 40.6527 174.325C40.6675 174.52 40.7554 174.703 40.8989 174.837C41.0423 174.97 41.2308 175.045 41.4268 175.046C41.4652 175.048 41.5036 175.048 41.5419 175.046L44.0402 174.67C44.171 174.65 44.2946 174.597 44.3993 174.516C44.504 174.435 44.5863 174.328 44.6384 174.206C44.6906 174.085 44.7109 173.952 44.6974 173.82C44.6839 173.688 44.6371 173.562 44.5614 173.454C44.3985 173.214 44.2881 172.942 44.2375 172.656C44.187 172.371 44.1973 172.077 44.2679 171.796C44.4009 171.38 44.6664 171.019 45.024 170.768C45.1887 170.65 45.3009 170.472 45.3366 170.273C45.3724 170.073 45.3288 169.868 45.2152 169.7C45.1016 169.532 44.927 169.415 44.7285 169.374C44.5301 169.333 44.3236 169.372 44.1529 169.481L44.1623 169.462Z" fill="#180C47"/>
</svg>
