<svg xmlns="http://www.w3.org/2000/svg" width="290" height="180" fill="none" viewBox="0 0 290 180">
  <path fill="#CA6977" stroke="#000" d="M.5.5h289v179H.5z"/>
  <path fill="#DEF8DA" stroke="#000" d="M277.013 75.956c.29-1.188-.051-2.714-.916-4.387-.872-1.689-2.313-3.597-4.341-5.586-4.057-3.98-10.502-8.318-19.592-11.892-2.017-.792-3.109-2.998-2.43-5.02.685-2.04 2.889-3.125 4.866-2.356 10.128 3.934 18.287 9.112 23.575 14.625 5.298 5.524 7.644 11.3 6.376 16.48-.908 3.695-3.538 6.505-6.979 8.647-3.442 2.142-7.65 3.587-11.613 4.56a.523.523 0 0 0 .049 1.026 1.693 1.693 0 0 1-.247 3.364 2.036 2.036 0 0 1-.258-.019 25.54 25.54 0 0 1-.816-.137c-.458-.084-.772.249-.903.46-.14.224-.256.583-.129.925.105.282.131.588.076.885a1.694 1.694 0 0 1-1.655 1.358c-.11 0-.219-.01-.327-.033h-.001c-.395-.082-.683.173-.81.357-.13.188-.244.508-.107.828a1.669 1.669 0 0 1-.036 1.392 1.694 1.694 0 0 1-2.271.752c-2.792-1.401-4.914-3.487-6.112-5.737-1.198-2.251-1.46-4.636-.601-6.686.765-1.832 2.513-3.332 4.968-4.18l5.74-1.713c3.9-.842 7.299-2.029 9.823-3.377 1.264-.675 2.323-1.397 3.117-2.147.789-.747 1.348-1.55 1.554-2.39Zm-233.96 1.079c10.436 8.782 24.28 7.138 30.987 5.614 2.013-.458 4.212.612 4.906 2.494l.187.507c.673 1.825-.275 3.786-2.103 4.25-3.156.799-8.003 1.721-13.567 1.721-7.962 0-17.364-1.885-25.425-8.67-4.588-3.875-8.146-8.993-10.534-14.87-.242-.597-.846-.844-1.335-.882-4.444-.566-8.96.03-13.105 1.73a1.692 1.692 0 0 1-1.282-3.131c.51-.207.92-.666.816-1.216a.867.867 0 0 0-.486-.622c-.243-.117-.526-.132-.81-.076-.729.142-1.36.296-1.753.465l-.006.003a1.664 1.664 0 0 1-.676.145 1.692 1.692 0 0 1-.666-3.234c.018-.005.043-.012.076-.019.065-.014.15-.028.258-.042.215-.028.497-.053.84-.074a58.508 58.508 0 0 1 2.63-.08c.648-.007 1.161-.07 1.528-.169a1.78 1.78 0 0 0 .491-.2c.112-.07.347-.25.351-.568.005-.335-.248-.516-.37-.584a1.661 1.661 0 0 0-.5-.167c-.367-.07-.879-.09-1.522-.047a1.721 1.721 0 0 1-1.797-1.58 1.694 1.694 0 0 1 1.578-1.79c.963-.062 1.604-.022 2.083.071.471.092.807.24 1.166.425.09.046.18.094.272.144.7.374 1.552.83 3.36 1.12.694.11 1.213.21 1.671.306 1.77.38 3.025.68 3.588.82h.004c1.34.324 2.696.58 4.062.767.972.134 2.008-.066 2.814-.717.495-.4.953-.844 1.368-1.328l.002-.002.02-.025c.819-.965 2.2-2.593 2.788-4.837l.031-.121c.122-.474.248-.963.68-1.275a1.701 1.701 0 0 1 2.682 1.462 12.84 12.84 0 0 1-2.277 6.578v.001c-.222.32-.454.633-.695.938-1.008 1.277-1.535 3.02-.894 4.636 1.498 3.773 4.1 8.362 8.564 12.129ZM13.491 59.834h-.002.002Z"/>
  <path fill="#180C47" stroke="#000" d="m30.22 64.031.305-.396a6.657 6.657 0 0 0-3.058-1.31h-.008c-2.644-.363-4.638 1.04-5.192 1.476l-.006.005-.006.005a.144.144 0 0 1-.207-.024l-.007-.009-.008-.009a.153.153 0 0 1-.028-.053l-.477.142.477-.142a.152.152 0 0 1 .052-.165l.006-.005c.748-.602 2.764-1.942 5.423-1.542a6.938 6.938 0 0 1 3.204 1.37l.039.03.005.002a.155.155 0 0 1 .007.198.156.156 0 0 1-.218.03l-.303.397Zm0 0a.656.656 0 1 0 .795-1.044l-.019-.009a7.438 7.438 0 0 0-3.435-1.469c-2.864-.43-5.021 1.011-5.811 1.648a.652.652 0 0 0-.103.93.643.643 0 0 0 .93.107c.52-.412 2.376-1.709 4.814-1.374a6.158 6.158 0 0 1 2.829 1.211Z"/>
  <path fill="#DEF8DA" stroke="#000" d="m184.705 165.443.006.224.171.145 15.219 12.858-22.807-.103-3.638-138.379 7.759-.206 3.29 125.461ZM158.381 39.885l2.522 138.856h-.265l.029.081-22.372.273 14.441-13.21.166-.153-.004-.225-2.28-125.482 7.763-.14Z"/>
  <path fill="#DEF8DA" stroke="#000" d="M82.111 28.517H250.17a5.566 5.566 0 0 1 5.566 5.567v65.133a5.566 5.566 0 0 1-5.566 5.567H82.111a5.566 5.566 0 0 1-5.566-5.567V34.085a5.567 5.567 0 0 1 5.566-5.567Z"/>
  <path fill="#180C47" stroke="#000" d="M154.19 77.078a7.291 7.291 0 0 1-6.849-5.96 1.11 1.11 0 0 1 .248-.93 1.163 1.163 0 0 1 .881-.416m5.72 7.306h.233m-.233 0 .023-.5h-.011m-.012.5v-.5h.012m.221.5a7.306 7.306 0 0 0 7.096-5.955 1.115 1.115 0 0 0-.232-.93m-6.864 6.885v-.5h-.003m.003.5-.006-.5h.003m6.867-6.385a1.161 1.161 0 0 0-.886-.42m.886.42-.386.317v.001m.386-.318-.385.319h-.001m-.5-.74H148.47m11.931 0-.004.5h.002m.002-.5v.5h-.002m-11.929-.5v.5h.003m-.003-.5.005.5h-.002m0 0h11.926m-11.926 0a.658.658 0 0 0-.5.237l-.004.005a.612.612 0 0 0-.137.511v.002a6.796 6.796 0 0 0 6.37 5.55m6.197-6.305a.663.663 0 0 1 .502.24m0 0c.058.07.099.152.122.24a.621.621 0 0 1 .006.272l-.001.006a6.803 6.803 0 0 1-6.608 5.548m0 0h-.218"/>
  <mask id="a" width="15" height="9" x="147" y="69" maskUnits="userSpaceOnUse" style="mask-type:luminance">
    <path fill="#fff" stroke="#fff" d="M154.19 77.078a7.291 7.291 0 0 1-6.849-5.96 1.11 1.11 0 0 1 .248-.93 1.163 1.163 0 0 1 .881-.416m5.72 7.306h.233m-.233 0 .023-.5h-.011m-.012.5v-.5h.012m.221.5a7.306 7.306 0 0 0 7.096-5.955 1.115 1.115 0 0 0-.232-.93m-6.864 6.885v-.5h-.003m.003.5-.006-.5h.003m6.867-6.385a1.161 1.161 0 0 0-.886-.42m.886.42-.386.317v.001m.386-.318-.385.319h-.001m-.5-.74H148.47m11.931 0-.004.5h.002m.002-.5v.5h-.002m-11.929-.5v.5h.003m-.003-.5.005.5h-.002m0 0h11.926m-11.926 0a.658.658 0 0 0-.5.237l-.004.005a.612.612 0 0 0-.137.511v.002a6.796 6.796 0 0 0 6.37 5.55m6.197-6.305a.663.663 0 0 1 .502.24m0 0c.058.07.099.152.122.24a.621.621 0 0 1 .006.272l-.001.006a6.803 6.803 0 0 1-6.608 5.548m0 0h-.218"/>
  </mask>
  <g mask="url(#a)">
    <path fill="#180C47" stroke="#000" d="M158.421 74.38a6.138 6.138 0 0 1-4.191 1.545 6.13 6.13 0 0 1-5.75-4.976h11.897a6.14 6.14 0 0 1-1.956 3.432Z"/>
    <path fill="#FFC5E1" stroke="#000" d="M152.68 74.106c1.609-.435 3.24.027 4.453.77.604.37 1.083.798 1.388 1.188a2.1 2.1 0 0 1 .307.513c.056.145.053.226.046.256-.008.036-.063.152-.319.31-.244.151-.6.297-1.055.425-.906.256-2.106.416-3.331.458-1.225.042-2.441-.037-3.379-.242-.471-.103-.848-.232-1.116-.38-.276-.151-.376-.287-.405-.372l-.001-.002c-.031-.089-.032-.262.109-.544.137-.274.381-.589.715-.906.67-.637 1.63-1.215 2.588-1.474Z"/>
  </g>
  <path fill="#fff" stroke="#000" d="M168.278 59.935a3.865 3.865 0 1 1-7.73.001 3.865 3.865 0 0 1 7.73 0Z"/>
  <mask id="b" width="9" height="10" x="160" y="55" maskUnits="userSpaceOnUse" style="mask-type:luminance">
    <path fill="#fff" stroke="#fff" d="M168.278 59.935a3.865 3.865 0 1 1-7.73.001 3.865 3.865 0 0 1 7.73 0Z"/>
  </mask>
  <g mask="url(#b)">
    <path fill="#180C47" stroke="#000" d="M164.896 59.74a3.865 3.865 0 1 1-7.73 0 3.865 3.865 0 0 1 7.73 0Z"/>
  </g>
  <path fill="#180C47" stroke="#000" d="m168.89 51.189.032.016a.596.596 0 0 1 .211.778.599.599 0 0 1-.795.257l-8.393-4.343a.595.595 0 0 1 .55-1.053l8.395 4.345Z"/>
  <path fill="#fff" stroke="#000" d="M148.66 58.975a3.865 3.865 0 1 1-7.472 1.984 3.865 3.865 0 0 1 7.472-1.984Z"/>
  <mask id="c" width="10" height="10" x="140" y="55" maskUnits="userSpaceOnUse" style="mask-type:luminance">
    <path fill="#fff" stroke="#fff" d="M148.788 59.935a3.865 3.865 0 1 1-7.73.001 3.865 3.865 0 0 1 7.73 0Z"/>
  </mask>
  <g mask="url(#c)">
    <path fill="#180C47" stroke="#000" d="M145.303 58.884a3.865 3.865 0 1 1-7.524 1.776 3.865 3.865 0 0 1 7.524-1.776Z"/>
  </g>
  <path fill="#180C47" stroke="#000" d="M140.45 46.81a.592.592 0 0 1-.181-.145l-.324.274.324-.274a.602.602 0 0 1-.138-.432.58.58 0 0 1 .208-.404.588.588 0 0 1 .655-.074l8.406 4.339a.594.594 0 0 1-.272 1.123.551.551 0 0 1-.263-.066l-.008-.004-8.407-4.338Z"/>
  <path fill="#F6F7A5" stroke="#000" d="M12.664 19.975c0-2.572 1.26-5.536 3.395-7.862 2.13-2.32 5.083-3.957 8.424-3.957 3.341 0 6.298 1.636 8.432 3.957 2.139 2.327 3.404 5.29 3.408 7.863 0 3.613-1.72 6.678-6.085 13.47-1.842 2.866-3.127 4.359-4.037 5.133-.452.384-.8.581-1.067.684a1.68 1.68 0 0 1-.642.12c-.178 0-.38-.019-.641-.12-.266-.103-.614-.3-1.066-.684-.91-.774-2.194-2.267-4.036-5.133a270.83 270.83 0 0 0-1.88-2.879c-1.216-1.845-2.135-3.239-2.807-4.549-.961-1.87-1.398-3.534-1.398-6.043Z"/>
  <path fill="#180C47" stroke="#000" d="M20.564 23.617h7.387v.003l.497.002a.82.82 0 0 1 .634.304h-9.156a.815.815 0 0 1 .638-.309Zm8.358.977.212-.596a.82.82 0 0 1 .086.71l-4.15 11.62-.002.005a.793.793 0 0 1-.758.533h-.025a.8.8 0 0 1-.448-.144l.618-.19.24-.073.005-.013.233-.075-.098-.305 4.087-11.472Zm-5.247 11.13-.149.048.294.939-.002-.002a.8.8 0 0 1-.287-.404l-.002-.004-3.74-11.621a.813.813 0 0 1 .104-.709l.195.608 3.587 11.145Z"/>
  <mask id="d" fill="#fff">
    <path d="M160.401 69.13h-11.926a1.795 1.795 0 0 0-1.381.652 1.763 1.763 0 0 0-.395 1.462 7.973 7.973 0 0 0 7.496 6.508h.233a7.92 7.92 0 0 0 7.744-6.508 1.778 1.778 0 0 0-1.001-1.941 1.824 1.824 0 0 0-.77-.172Zm.479 1.879c-.581 3.089-3.354 5.418-6.452 5.418h-.21a6.638 6.638 0 0 1-6.227-5.418.45.45 0 0 1 .107-.381.498.498 0 0 1 .377-.18h11.926a.501.501 0 0 1 .381.18.473.473 0 0 1 .084.38h.014Z"/>
  </mask>
  <path fill="#180C47" d="M160.401 69.13h-11.926a1.795 1.795 0 0 0-1.381.652 1.763 1.763 0 0 0-.395 1.462 7.973 7.973 0 0 0 7.496 6.508h.233a7.92 7.92 0 0 0 7.744-6.508 1.778 1.778 0 0 0-1.001-1.941 1.824 1.824 0 0 0-.77-.172Zm.479 1.879c-.581 3.089-3.354 5.418-6.452 5.418h-.21a6.638 6.638 0 0 1-6.227-5.418.45.45 0 0 1 .107-.381.498.498 0 0 1 .377-.18h11.926a.501.501 0 0 1 .381.18.473.473 0 0 1 .084.38h.014Z"/>
  <path fill="#000" d="m160.401 69.13.002-1h-.002v1Zm-11.926 0v-1h-.001l.001 1Zm-1.381.652.76.65.006-.007.005-.006-.771-.637Zm-.395 1.462-.984.178.001.004.983-.182Zm7.496 6.508-.043.999h.043v-1Zm.233 0v1h.006l-.006-1Zm7.744-6.508-.983-.182-.001.003.984.179Zm-.376-1.46.773-.635-.006-.007-.767.642Zm-.916 1.225.983.185.223-1.185h-1.206v1Zm-6.662 5.418-.045.999.023.001h.022v-1Zm-6.227-5.418-.983.18v.003l.983-.183Zm.107-.381.747.665.013-.015.013-.015-.773-.635Zm.377-.18v-1h-.005l.005 1Zm11.926 0 .011-1h-.011v1Zm.381.18.804-.596-.02-.026-.021-.025-.763.647Zm.084.38-.979-.204-.251 1.205h1.23v-1Zm-.465-2.877h-11.926v2h11.926v-2Zm-11.927 0c-.411 0-.817.091-1.189.266l.853 1.81a.797.797 0 0 1 .338-.076l-.002-2Zm-1.189.266c-.371.176-.7.43-.961.747l1.541 1.275a.795.795 0 0 1 .273-.212l-.853-1.81Zm-.951.735c-.267.312-.46.68-.567 1.075l1.93.522a.782.782 0 0 1 .157-.298l-1.52-1.299Zm-.567 1.075a2.77 2.77 0 0 0-.052 1.215l1.968-.356a.78.78 0 0 1 .014-.337l-1.93-.522Zm-.051 1.22a8.975 8.975 0 0 0 2.939 5.135l1.311-1.51a6.97 6.97 0 0 1-2.284-3.991l-1.966.365Zm2.939 5.135a8.972 8.972 0 0 0 5.497 2.189l.086-1.998a6.975 6.975 0 0 1-4.272-1.701l-1.311 1.51Zm5.54 2.19h.233v-2h-.233v2Zm.239 0a8.924 8.924 0 0 0 5.684-2.091l-1.287-1.532a6.923 6.923 0 0 1-4.41 1.623l.013 2Zm5.684-2.091a8.923 8.923 0 0 0 3.038-5.239l-1.968-.357a6.915 6.915 0 0 1-2.357 4.064l1.287 1.532Zm3.038-5.236c.074-.399.059-.81-.042-1.203l-1.937.5a.78.78 0 0 1 .012.34l1.967.363Zm-.042-1.203a2.806 2.806 0 0 0-.545-1.073l-1.546 1.27a.776.776 0 0 1 .154.303l1.937-.5Zm-.551-1.08a2.822 2.822 0 0 0-.968-.745l-.848 1.811a.812.812 0 0 1 .282.218l1.534-1.284Zm-.968-.745a2.824 2.824 0 0 0-1.192-.266l-.004 2c.121 0 .239.026.348.077l.848-1.81Zm-1.698 2.427c-.494 2.627-2.863 4.603-5.469 4.603v2c3.589 0 6.767-2.682 7.435-6.233l-1.966-.37Zm-5.469 4.603h-.21v2h.21v-2Zm-.164.001a5.643 5.643 0 0 1-3.447-1.38l-1.313 1.51a7.643 7.643 0 0 0 4.669 1.868l.091-1.998Zm-3.447-1.38a5.648 5.648 0 0 1-1.843-3.222l-1.966.366a7.647 7.647 0 0 0 2.496 4.365l1.313-1.508Zm-1.842-3.22a.558.558 0 0 1-.011.248l-1.926-.54c-.06.213-.07.436-.03.653l1.967-.36Zm-.011.248a.561.561 0 0 1-.119.217l-1.493-1.33c-.147.164-.254.36-.314.573l1.926.54Zm-.093.187a.51.51 0 0 1-.175.136l-.859-1.806c-.197.094-.372.23-.511.4l1.545 1.27Zm-.175.136a.512.512 0 0 1-.216.05l-.01-2c-.219 0-.435.05-.633.144l.859 1.806Zm-.221.05h11.926v-2h-11.926v2Zm11.916 0a.495.495 0 0 1-.205-.047l.85-1.81a1.503 1.503 0 0 0-.624-.143l-.021 2Zm-.205-.047a.487.487 0 0 1-.166-.128l1.525-1.293a1.508 1.508 0 0 0-.509-.39l-.85 1.81Zm-.207-.179a.523.523 0 0 1-.091-.2l1.954-.428a1.48 1.48 0 0 0-.256-.563l-1.607 1.191Zm-.091-.2a.54.54 0 0 1-.001-.219l1.958.41a1.465 1.465 0 0 0-.003-.62l-1.954.43Zm.978.986h.014v-2h-.014v2Z" mask="url(#d)"/>
  <path fill="#5968FE" stroke="#000" d="M21.154 35.597h6.737c1.04 0 1.884.844 1.884 1.885v8.51a1.885 1.885 0 0 1-1.884 1.884h-6.736a1.885 1.885 0 0 1-1.885-1.884v-8.51c0-1.041.844-1.885 1.884-1.885Z"/>
  <path fill="#180C47" stroke="#000" d="M30.115 45.995v-8.513a2.227 2.227 0 0 0-2.224-2.227H21.15a2.227 2.227 0 0 0-2.225 2.227v8.513a2.23 2.23 0 0 0 2.223 2.223h6.744a2.23 2.23 0 0 0 2.223-2.223ZM19.353 47.79l-.345.345.345-.345a2.548 2.548 0 0 1-.746-1.797v-8.51a2.55 2.55 0 0 1 2.543-2.546h6.74a2.55 2.55 0 0 1 2.543 2.545v8.511a2.548 2.548 0 0 1-2.543 2.543h-6.74a2.547 2.547 0 0 1-1.797-.746Z"/>
</svg>
