<svg xmlns="http://www.w3.org/2000/svg" width="290" height="181" fill="none" viewBox="0 0 290 181">
  <path fill="#87CEDA" stroke="#000" d="M.5.5h289v179H.5z"/>
  <path fill="#C9C0FC" d="M200.788 83.99a60.288 60.288 0 0 0 1.871-30.948C197.44 26.97 175.223 6.974 148.735 4.637 112.77 1.463 82.594 29.72 82.594 65.022A60.297 60.297 0 0 0 88.361 90.7c-1.898 7.92-4.064 15.825-6.59 23.54a303.704 303.704 0 0 1-14.39 35.935c-2.086.03-4.165.124-6.22.336a67.372 67.372 0 0 0-3.655.487 1.746 1.746 0 0 0-1.473 1.863 1.744 1.744 0 0 0 1.752 1.603c.093 0 .187-.007.279-.02.672-.111 1.4-.192 2.109-.282a33.619 33.619 0 0 0-3.842 2.209 1.746 1.746 0 0 0 1.958 2.889 30.369 30.369 0 0 1 4.366-2.472c.39-.178.806-.282 1.202-.443a20.524 20.524 0 0 0-2.643 2.451 1.754 1.754 0 0 0-.434 1.262 1.74 1.74 0 0 0 1.173 1.543 1.754 1.754 0 0 0 1.332-.082c.206-.101.39-.241.542-.412a16.987 16.987 0 0 1 9.263-5.374c.154-.042.3-.106.436-.191l2.667 2.394a1.745 1.745 0 0 0 2.33-2.596l-4.124-3.717a310 310 0 0 0 14.002-35.217c1.823-5.572 3.442-11.248 4.954-16.947a60.713 60.713 0 0 0 32.241 23.563v45.47l-9.313 8.316-3.137 2.801h19.425v-54.948c3.519.648 7.088.985 10.667 1.008 1.722 0 3.412-.118 5.094-.259l5.589 54.199h19.408l-13.662-12.188-4.433-42.955a60.447 60.447 0 0 0 32.167-17.991c19.731 12.806 27.859 16.121 31.771 16.121 2.166 0 3.043-1.008 3.886-1.992 2.932-3.399 3.059-8.359-22.27-36.607v-.007Zm15.576 30.837c-3.227-1.145-10.095-4.51-24.452-13.769a60.52 60.52 0 0 0 5.951-9.87c12.275 13.863 16.849 20.526 18.505 23.646l-.004-.007Z"/>
  <path fill="#180C47" d="M203.172 52.931c-5.282-26.38-27.65-46.454-54.39-48.812-17.393-1.534-34.041 4.07-46.847 15.785A61.345 61.345 0 0 0 82.07 65.022a60.613 60.613 0 0 0 5.736 25.735c-2.015 8.467-4.17 16.101-6.528 23.318a302.64 302.64 0 0 1-14.234 35.58c-2.253.04-4.15.147-5.937.335a66.9 66.9 0 0 0-3.695.491 2.214 2.214 0 0 0-1.477.91 2.262 2.262 0 0 0 1.622 3.583c-.538.318-1.048.642-1.532.971a2.27 2.27 0 0 0-.604 3.147 2.316 2.316 0 0 0 3.15.604 30.683 30.683 0 0 1 2.519-1.534c-.088.097-.178.194-.266.295a2.265 2.265 0 0 0-.337 2.497c.13.267.312.507.536.704a2.329 2.329 0 0 0 3.197-.198 16.45 16.45 0 0 1 8.98-5.219c.083-.018.164-.044.242-.078l2.402 2.16a2.348 2.348 0 0 0 3.2-.175 2.266 2.266 0 0 0-.171-3.2l-3.856-3.456a311.508 311.508 0 0 0 13.867-34.928c1.562-4.769 3.053-9.847 4.675-15.899a61.407 61.407 0 0 0 31.486 22.737v44.855l-8.027 7.167-1.101.984-1.579 1.411a105.34 105.34 0 0 0-1.565 1.397.52.52 0 0 0 .336.917h19.429a.526.526 0 0 0 .523-.524v-54.327c3.351.585 6.745.885 10.146.897 1.582 0 3.151-.097 4.628-.215l5.532 53.611a.523.523 0 0 0 .524.558h19.411a.527.527 0 0 0 .483-.341.52.52 0 0 0-.147-.573l-13.497-12.057-4.366-42.289a60.676 60.676 0 0 0 31.68-17.733c17.068 11.039 26.847 15.983 31.717 15.983 2.405 0 3.399-1.152 4.282-2.173 3.197-3.694 3.486-8.541-22.075-37.074a60.581 60.581 0 0 0 1.793-30.945Zm19.479 67.31c-.836.971-1.561 1.81-3.486 1.81-4.628 0-14.632-5.098-31.485-16.036a.54.54 0 0 0-.672.08 59.633 59.633 0 0 1-31.888 17.837.524.524 0 0 0-.417.568l4.433 42.964a.513.513 0 0 0 .175.336l12.625 11.275h-17.552l-5.541-53.736a.523.523 0 0 0-.521-.466h-.037c-1.588.134-3.304.258-5.037.258a60.345 60.345 0 0 1-10.579-.987.475.475 0 0 0-.427.114.528.528 0 0 0-.188.4v54.427h-17.531l.544-.487 1.572-1.401 1.82-1.629c2.67-2.381 7.341-6.552 7.493-6.683a.526.526 0 0 0 .174-.393v-45.463a.53.53 0 0 0-.369-.501 60.383 60.383 0 0 1-31.952-23.361.521.521 0 0 0-.934.161c-1.73 6.516-3.298 11.892-4.947 16.923a310.233 310.233 0 0 1-14.005 35.15.524.524 0 0 0 .124.611l4.145 3.718a1.222 1.222 0 0 1 .09 1.723 1.257 1.257 0 0 1-1.723.094l-2.666-2.395a.632.632 0 0 0-.322-.112.631.631 0 0 0-.333.075 1.3 1.3 0 0 1-.238.105 17.645 17.645 0 0 0-6.106 2.552 17.343 17.343 0 0 0-3.44 2.999 1.258 1.258 0 0 1-1.726.104 1.219 1.219 0 0 1-.103-1.723 19.677 19.677 0 0 1 2.575-2.388.524.524 0 0 0-.523-.893c-.162.067-.336.124-.5.178-.246.084-.488.165-.723.272a30.928 30.928 0 0 0-4.453 2.516 1.266 1.266 0 0 1-1.7-.336 1.226 1.226 0 0 1 .336-1.679 33.2 33.2 0 0 1 3.782-2.187.52.52 0 0 0 .05-.904.529.529 0 0 0-.35-.083l-.463.057a51.47 51.47 0 0 0-1.679.228 1.222 1.222 0 0 1-.386-2.411 95.255 95.255 0 0 1 3.624-.484c1.843-.191 3.805-.299 6.173-.336a.526.526 0 0 0 .466-.295 304.478 304.478 0 0 0 14.422-36.016c2.387-7.298 4.544-15.012 6.596-23.58a.525.525 0 0 0-.034-.336 59.526 59.526 0 0 1-5.703-25.453 60.276 60.276 0 0 1 19.513-44.332c12.581-11.523 28.913-17.027 46.048-15.523 26.28 2.318 48.264 22.048 53.453 47.986a59.538 59.538 0 0 1-1.854 30.676.506.506 0 0 0 .074.47.513.513 0 0 0 .057.067c25.071 27.959 24.906 32.792 22.236 35.885l-.007-.01Z"/>
  <path fill="#180C47" d="M197.789 90.66a.512.512 0 0 0-.396.292 60.66 60.66 0 0 1-5.898 9.787.5.5 0 0 0 .134.739c14.559 9.403 21.394 12.708 24.564 13.83a.522.522 0 0 0 .635-.739c-1.679-3.15-6.25-9.83-18.576-23.748a.5.5 0 0 0-.463-.161Zm-5.128 10.25a60.67 60.67 0 0 0 5.329-8.8c10.432 11.819 15.113 18.237 17.199 21.696-3.543-1.477-10.173-4.94-22.528-12.896Zm-31.667-47.915a12.136 12.136 0 0 0-17.804 7.667 12.13 12.13 0 0 0 2.402 10.56 12.133 12.133 0 0 0 9.88 4.436l4.135 14.552c.493 1.797 2.102 2.922 3.593 2.512 1.491-.41 2.297-2.196 1.804-3.993l-4.141-14.6a12.116 12.116 0 0 0 .131-21.158v.024Zm-3.899 18.21a7.983 7.983 0 0 1-2.11.285 7.941 7.941 0 0 1-6.614-12.322 7.94 7.94 0 0 1 4.515-3.278 7.943 7.943 0 0 1 4.209 15.314Z"/>
  <path fill="#fff" d="M134.455 69.018a4.887 4.887 0 1 0 0-9.774 4.887 4.887 0 0 0 0 9.774Z"/>
  <path fill="#180C47" d="M135.188 67.258a3.207 3.207 0 1 0-1.473-6.244 3.207 3.207 0 0 0 1.473 6.244Z"/>
  <path fill="#fff" d="M156.386 70.053a6.079 6.079 0 1 0-2.792-11.832 6.079 6.079 0 0 0 2.792 11.832Z"/>
  <path fill="#180C47" d="M155.906 68.02a3.99 3.99 0 1 0-1.832-7.766 3.99 3.99 0 0 0 1.832 7.766Zm-13.904 4.618a2.264 2.264 0 1 0 2.263 2.264 2.272 2.272 0 0 0-2.263-2.264Zm0 3.483a1.22 1.22 0 1 1-.007-2.44 1.22 1.22 0 0 1 .007 2.44Z"/>
  <path fill="#C9C0FC" d="M210.89 106.76a63.652 63.652 0 0 1 3.55 4.911 64.343 64.343 0 0 1 1.928 3.156c-4.625-1.635-16.665-7.791-47.573-29.393a11.193 11.193 0 0 0-2.636-5.41c-.739-.823-2.687-3.023-6.079-3.416a9.353 9.353 0 0 0-6.045 1.414 1.746 1.746 0 0 0-.542 2.406 1.743 1.743 0 0 0 2.406.543 5.898 5.898 0 0 1 3.758-.9 5.02 5.02 0 0 1 1.609.49 6.802 6.802 0 0 0-.783-.181c-3.607-.507-6.22 1.783-6.717 2.247a1.743 1.743 0 0 0 2.412 2.519c.171-.165 1.749-1.6 3.798-1.314a4.157 4.157 0 0 1 1.615.642 6.373 6.373 0 0 0-2.112-.114 7.05 7.05 0 0 0-4.396 2.35 1.75 1.75 0 0 0 .105 2.498 1.751 1.751 0 0 0 1.285.439 1.745 1.745 0 0 0 1.209-.616 3.582 3.582 0 0 1 2.193-1.209c1.475-.161 3.023.79 3.869 2.378.057.107.161.158.235.245l-.07.1c37.42 26.197 50.041 32.037 55.243 32.037 2.166 0 3.043-1.007 3.886-1.991a8.832 8.832 0 0 0 1.101-1.854c.672-1.616-2.418-8.588-8.396-17.078l-4.853 5.101Z"/>
  <path fill="#180C47" d="M215.35 101.981c10.076 13.018 9.206 16.071 7.308 18.27-.836.971-1.561 1.811-3.486 1.811-6.341 0-23.717-10.076-54.669-31.755a.443.443 0 0 0-.107-.198.76.76 0 0 0-.168-.154c-.94-1.77-2.687-2.835-4.39-2.653a4.15 4.15 0 0 0-2.529 1.38 1.215 1.215 0 0 1-1.757.14 1.22 1.22 0 0 1-.059-1.762 6.54 6.54 0 0 1 4.07-2.183 5.886 5.886 0 0 1 1.941.107.512.512 0 0 0 .591-.315.52.52 0 0 0-.208-.642 4.678 4.678 0 0 0-1.82-.712c-2.314-.336-4.03 1.27-4.235 1.454a1.156 1.156 0 0 1-.863.336 1.215 1.215 0 0 1-.86-.38 1.209 1.209 0 0 1-.336-.87c.007-.323.142-.631.376-.856.457-.433 2.915-2.579 6.27-2.105.188.03.375.072.558.124l.171.047a.526.526 0 0 0 .624-.706.523.523 0 0 0-.264-.275 5.605 5.605 0 0 0-1.777-.537 6.312 6.312 0 0 0-4.101.977 1.23 1.23 0 0 1-.913.161 1.19 1.19 0 0 1-.766-.54 1.222 1.222 0 0 1 .376-1.68 8.733 8.733 0 0 1 5.693-1.343c3.194.38 5.037 2.462 5.753 3.248a10.66 10.66 0 0 1 2.512 5.162.54.54 0 0 0 .215.336c30.139 21.06 42.572 27.64 47.69 29.453a.527.527 0 0 0 .693-.434.52.52 0 0 0-.058-.305c-1.042-1.968-2.949-4.769-5.572-8.201l-.783.702a78.096 78.096 0 0 1 4.702 6.717c-5.115-2.143-17.346-8.732-45.92-28.678a11.635 11.635 0 0 0-2.717-5.45c-.772-.864-2.821-3.161-6.404-3.588a9.795 9.795 0 0 0-6.382 1.492 2.27 2.27 0 0 0-1.034 2.143 2.267 2.267 0 0 0 1.451 1.887 8.325 8.325 0 0 0-.759.628 2.268 2.268 0 0 0 1.478 3.902l-.192.212a2.267 2.267 0 0 0 .942 3.652 2.267 2.267 0 0 0 2.44-.63 3.098 3.098 0 0 1 1.861-1.04c1.216-.125 2.609.708 3.358 2.112a.808.808 0 0 0 .101.148v.03a.52.52 0 0 0 .215.336c40.694 28.496 51.069 32.167 55.562 32.167 2.405 0 3.399-1.152 4.282-2.173 2.687-3.127 2.331-7.174-7.278-19.593l-.826.624ZM61.594 153.057a65.46 65.46 0 0 0-2.036.718l.367.981c.644-.242 1.31-.477 2.015-.709.63-.212 1.249-.408 1.853-.587l-.298-1.008a74.3 74.3 0 0 0-1.901.605Zm2.576 2.404c-.442.304-.86.641-1.25 1.008l.715.766a8.871 8.871 0 0 1 2.432-1.616l-.42-.957a9.64 9.64 0 0 0-1.478.799Z"/>
</svg>
