<svg xmlns="http://www.w3.org/2000/svg" width="290" height="181" fill="none" viewBox="0 0 290 181">
  <path fill="#F6F7A5" stroke="#000" d="M.5.5h289v179H.5z"/>
  <path fill="#C9C0FC" d="M172.057 69.836H63.459v108.598h108.598V69.836Z"/>
  <path fill="#180C47" d="M62.51 179.389h110.496V68.887H62.51V179.39Zm1.898-108.61h106.694v106.713H64.407V70.779Z"/>
  <path fill="#fff" d="M135.286 129.949a5.448 5.448 0 0 0 5.449-5.449 5.448 5.448 0 0 0-5.449-5.449 5.448 5.448 0 0 0-5.449 5.449 5.448 5.448 0 0 0 5.449 5.449Z"/>
  <path fill="#180C47" d="M132.841 118.765a5.475 5.475 0 0 0-5.369 6.541 5.48 5.48 0 0 0 4.301 4.301 5.476 5.476 0 0 0 4.939-9.239 5.473 5.473 0 0 0-3.871-1.603Zm3.965-10.388-8.897 5.249a2.837 2.837 0 0 0-.287 4.709 2.839 2.839 0 0 0 3.169.186l8.898-5.248a2.836 2.836 0 0 0 1.309-1.736 2.831 2.831 0 0 0-.302-2.154 2.847 2.847 0 0 0-1.736-1.308 2.831 2.831 0 0 0-2.154.302Z"/>
  <path fill="#fff" d="M108.392 129.949a5.449 5.449 0 1 0 0-10.898 5.45 5.45 0 1 0 0 10.898Z"/>
  <path fill="#180C47" d="M106.585 129.609a5.45 5.45 0 1 0 0-10.9 5.45 5.45 0 0 0 0 10.9Zm.153-31.663h-.092a11.821 11.821 0 0 0-8.514 3.911 2.847 2.847 0 0 0 4.257 3.765 6.013 6.013 0 0 1 4.312-1.989c2.7-.182 4.653 2.299 4.866 2.56a2.83 2.83 0 0 0 2.292 1.168 2.883 2.883 0 0 0 1.679-.547 2.853 2.853 0 0 0 .608-3.972 11.936 11.936 0 0 0-9.408-4.896Zm18.16 43.334a6.767 6.767 0 0 1-6.234-4.774l-1.788.608a8.658 8.658 0 0 0 8.022 6.082 8.664 8.664 0 0 0 8.077-6.161l-1.825-.608a6.77 6.77 0 0 1-6.252 4.853Z"/>
  <path fill="#C9C0FC" d="m79.339 121.94-3.552-.28a39.54 39.54 0 0 1 .085-11.015 40.633 40.633 0 0 1 1.891-7.298 3.157 3.157 0 1 0-5.936-2.153 47.03 47.03 0 0 0-2.08 7.907c-.09-.967-.28-1.928-.328-2.901a70.071 70.071 0 0 1 .037-7.493 3.163 3.163 0 0 0-2.969-3.34 3.125 3.125 0 0 0-3.332 2.969 73.505 73.505 0 0 0-.037 8.18c0 .286.08.565.091.851a52.2 52.2 0 0 1-1.447-5.601 3.162 3.162 0 0 0-6.204 1.216 56.406 56.406 0 0 0 5.638 15.959c-18.136 10.248-46.344 29.053-40.937 44.398 3.254 9.263 17.364 11.963 32.696 11.963 3.48 0 7.007-.164 10.504-.401v-12.663c-18.118 1.217-29.71-.882-31.255-2.95-.207-2.749 8.916-15.204 39.587-31.735l7.055.681h.255a3.156 3.156 0 0 0 .238-6.301v.007Z"/>
  <path fill="#180C47" d="m79.418 120.997-2.774-.219a37.539 37.539 0 0 1 .164-9.974 39.407 39.407 0 0 1 1.825-7.11 4.102 4.102 0 0 0-1.063-4.458 4.099 4.099 0 0 0-6.643 1.66 43.704 43.704 0 0 0-.663 1.952c0-1.344.037-2.712.116-4.075a4.086 4.086 0 0 0-3.832-4.33 3.911 3.911 0 0 0-2.95.973 4.136 4.136 0 0 0-1.404 2.877 62.507 62.507 0 0 0-.086 1.885 4.168 4.168 0 0 0-4.257-1.824 4.112 4.112 0 0 0-3.248 4.817 62.034 62.034 0 0 0 1.874 7.219 58.983 58.983 0 0 0 3.442 8.186c-21.645 12.322-45.894 29.996-40.578 45.091 2.937 8.357 14.237 12.596 33.59 12.596 3.04 0 6.416-.134 10.564-.401a.945.945 0 0 0 .888-.943v-12.681a.943.943 0 0 0-.304-.693.988.988 0 0 0-.705-.25c-18.106 1.217-28.342-.881-30.221-2.359.553-2.324 8.1-13.849 38.808-30.41l6.818.639h.322a4.106 4.106 0 0 0 1.857-7.76 4.108 4.108 0 0 0-1.54-.433v.025Zm-.475 6.295-7.06-.688a1.128 1.128 0 0 0-.542.116c-30.598 16.458-40.335 29.302-40.08 32.635a.94.94 0 0 0 .183.499c1.824 2.481 13.38 4.489 31.066 3.394v10.777c-3.704.225-6.757.328-9.555.328-18.464 0-29.162-3.801-31.802-11.318-5.206-14.785 23.111-33.451 40.511-43.261a.958.958 0 0 0 .378-1.259 55.408 55.408 0 0 1-5.553-15.709 2.209 2.209 0 0 1 1.758-2.597c.138-.028.278-.044.42-.049a2.246 2.246 0 0 1 2.164 1.825 52.97 52.97 0 0 0 1.472 5.699.949.949 0 0 0 1.656.302.937.937 0 0 0 .193-.643c0-.158-.03-.31-.049-.462-.018-.152-.036-.25-.042-.377a77.914 77.914 0 0 1 .036-8.077 2.257 2.257 0 0 1 .767-1.557 2.342 2.342 0 0 1 1.587-.547 2.207 2.207 0 0 1 2.074 2.335 68.805 68.805 0 0 0-.037 7.59c.031.612.096 1.221.195 1.825.049.377.097.754.134 1.131a.938.938 0 0 0 .906.851h.037a.95.95 0 0 0 .93-.79 46.097 46.097 0 0 1 2.044-7.73 2.246 2.246 0 0 1 2.84-1.32 2.211 2.211 0 0 1 1.326 2.834 41.302 41.302 0 0 0-1.934 7.45 40.141 40.141 0 0 0-.092 11.27.95.95 0 0 0 .87.833l3.558.28a2.207 2.207 0 0 1 2.025 2.378 2.25 2.25 0 0 1-2.384 2.032Z"/>
  <path fill="#C9C0FC" d="M172.057 165.82v12.608h-7.395l104.14.189v-2.159l.608-33.037-20.867 22.539-76.486-.14Z"/>
  <path fill="#180C47" d="M269.781 142.545a.917.917 0 0 0-1.052.237l-20.599 22.224-76.073-.134c-.253 0-.496.1-.675.28a.978.978 0 0 0-.28.669v11.671h-6.44a.948.948 0 1 0 0 1.897l104.146.183a.943.943 0 0 0 .949-.949l.608-35.184a.95.95 0 0 0-.584-.894Zm-1.928 33.919v1.216l-94.847-.164v-10.747l75.537.14a.95.95 0 0 0 .693-.31l19.201-20.709-.584 30.574Z"/>
  <path fill="#C9C0FC" d="M229.367 134.858c-8.788-9.269-20.441-14.354-31.146-13.715-9.889.608-19.078 5.802-26.152 13.769v26.894c3.874-16.67 16.178-27.368 26.967-28.055 7.128-.475 14.938 3.217 21.184 9.798a40.865 40.865 0 0 1 10.339 20.161c.109 4.963.221 9.93.334 14.901l8.284.158 21.287.401-17.261-15.946a53.558 53.558 0 0 0-13.836-28.366Z"/>
  <path fill="#180C47" d="M244.085 162.719a54.315 54.315 0 0 0-14.031-28.512c-8.934-9.433-20.897-14.688-31.893-13.989-9.762.609-19.286 5.632-26.815 14.086a.95.95 0 0 0-.244.608v26.894a.955.955 0 0 0 .84.943 1.049 1.049 0 0 0 1.04-.724c3.935-16.92 16.384-26.711 26.103-27.332 6.818-.432 14.366 3.114 20.435 9.512a39.921 39.921 0 0 1 10.066 19.517l.334 14.907a.955.955 0 0 0 .931.93l29.564.554a.951.951 0 0 0 .884-1.167.944.944 0 0 0-.276-.475l-16.938-15.752Zm-12.291 14.961-.329-14.159a41.899 41.899 0 0 0-10.57-20.623c-6.55-6.903-14.597-10.564-21.932-10.096-9.122.608-20.532 8.642-25.957 22.697v-20.222c7.152-7.906 16.111-12.602 25.27-13.192 10.461-.553 21.84 4.392 30.41 13.423a52.512 52.512 0 0 1 13.581 27.843c.038.207.14.396.292.541l15.405 14.281-26.17-.493Z"/>
  <path fill="#C9C0FC" d="M200.788 92.065c-9.044-1.46-18.817.505-27.873 5.42v15.07c8.156-6.313 17.765-9.299 25.872-8.016 4.257.687 6.757 2.403 7.651 3.783 2.074 3.199.748 12.134-6.404 21.001a23.682 23.682 0 0 0-12.164 17.558 3.163 3.163 0 0 0 2.652 3.57 3.173 3.173 0 0 0 3.57-2.682 17.55 17.55 0 0 1 2.621-7.049c.195-.31.42-.541.608-.821a28.518 28.518 0 0 0-2.402 7.585 3.163 3.163 0 0 0 3.126 3.643 3.16 3.16 0 0 0 3.114-2.676 22.175 22.175 0 0 1 1.174-4.379 26.377 26.377 0 0 0 .219 4.166 3.157 3.157 0 0 0 3.12 2.706c.152.012.304.012.456 0a3.159 3.159 0 0 0 2.676-3.57 19.529 19.529 0 0 1 0-5.474 18.974 18.974 0 0 1 1.691-5.473c9.39-12.097 12.224-26.201 6.52-34.983-3.139-4.878-8.917-8.205-16.227-9.379Z"/>
  <path fill="#180C47" d="M200.94 91.123c-9.123-1.442-19.2.498-28.469 5.522a.945.945 0 0 0-.505.827v15.071a.945.945 0 0 0 .531.847.947.947 0 0 0 .995-.099c7.907-6.124 17.334-9.056 25.137-7.827 3.978.644 6.258 2.213 7.006 3.369 1.825 2.773.609 11.154-6.228 19.742a24.664 24.664 0 0 0-12.498 18.167 4.107 4.107 0 0 0 5.223 4.511 4.109 4.109 0 0 0 2.185-1.556 4.142 4.142 0 0 0 3.102 2.348c.201.03.404.046.608.049a4.135 4.135 0 0 0 3.85-2.701 4.142 4.142 0 0 0 3.783 2.524 5.16 5.16 0 0 0 .608-.042 4.115 4.115 0 0 0 3.479-4.653 18.079 18.079 0 0 1 0-5.194 18.849 18.849 0 0 1 1.496-5.018c9.767-12.595 12.407-27.088 6.568-36.09-3.29-5.09-9.287-8.575-16.871-9.797Zm8.715 44.908a19.67 19.67 0 0 0-1.769 11.465 2.213 2.213 0 0 1-4.379.608 23.494 23.494 0 0 1-.207-4.002.948.948 0 0 0-.766-.949.966.966 0 0 0-1.071.608 23.59 23.59 0 0 0-1.216 4.568 2.29 2.29 0 0 1-2.518 1.824 2.211 2.211 0 0 1-1.825-2.524 27.354 27.354 0 0 1 2.324-7.334.946.946 0 0 0-.378-1.217.868.868 0 0 0-.48-.14.966.966 0 0 0-.766.39l-.219.286a6.246 6.246 0 0 0-.438.608 18.455 18.455 0 0 0-2.749 7.414 2.224 2.224 0 0 1-2.184 1.891 1.783 1.783 0 0 1-.31 0 2.217 2.217 0 0 1-1.46-.856 2.203 2.203 0 0 1-.425-1.638 22.755 22.755 0 0 1 11.701-16.871c.109-.061.206-.142.286-.237 7.116-8.831 8.892-18.355 6.453-22.102-1.301-2.013-4.397-3.582-8.296-4.214-7.815-1.217-17.071 1.405-25.063 7.073V98.044c8.764-4.635 18.246-6.417 26.76-5.048 7.049 1.137 12.59 4.318 15.6 8.964 5.377 8.314 2.78 21.932-6.605 34.071Z"/>
  <path fill="#180C47" d="M203.707 140.41a.958.958 0 0 0-1.259.469c-.178.405-.348.843-.511 1.313-.236.72-.413 1.459-.529 2.208a.953.953 0 0 0 .797 1.077h.14a.953.953 0 0 0 .937-.809c.1-.642.253-1.275.456-1.892.14-.413.286-.791.438-1.125a.947.947 0 0 0 .021-.717.947.947 0 0 0-.49-.524ZM64.468 109.411a39.852 39.852 0 0 1-.316-2.141 1.014 1.014 0 0 0-1.052-.833.953.953 0 0 0-.833 1.052c.085.712.2 1.46.34 2.256.122.7.262 1.351.408 1.983a.946.946 0 0 0 .924.736c.069.006.138.006.207 0a.948.948 0 0 0 .718-1.131 53.547 53.547 0 0 1-.396-1.922Zm5.334-1.241h-.055a.942.942 0 0 0-.942.894l-.17 2.725a.94.94 0 0 0 .887.997h.061a.948.948 0 0 0 .943-.894l.164-2.724a.948.948 0 0 0-.531-.906.96.96 0 0 0-.357-.092Z"/>
</svg>
