<svg width="990" height="358" viewBox="0 0 990 358" fill="none" xmlns="http://www.w3.org/2000/svg">
<rect width="990" height="358" fill="#DEF8DA"/>
<path d="M509.191 28.209L404.728 11.3401C403.893 11.2061 403.039 11.2548 402.224 11.4831C401.41 11.7113 400.655 12.1137 400.012 12.6622C399.368 13.2108 398.851 13.8925 398.497 14.6603C398.142 15.4281 397.959 16.2637 397.959 17.1094V86.3725C397.959 87.7552 398.449 89.0932 399.341 90.1493C400.233 91.2054 401.471 91.9113 402.835 92.1417L507.314 109.011C508.149 109.145 509.003 109.096 509.818 108.868C510.632 108.639 511.387 108.237 512.03 107.689C512.674 107.14 513.191 106.458 513.545 105.69C513.9 104.923 514.083 104.087 514.083 103.241V33.9782C514.084 32.5927 513.593 31.2519 512.697 30.1952C511.801 29.1384 510.558 28.4345 509.191 28.209Z" fill="#5968FE"/>
<path d="M509.411 26.9578L404.931 10.0889C403.915 9.9268 402.876 9.9869 401.885 10.2651C400.895 10.5432 399.976 11.0328 399.193 11.7001C398.41 12.3674 397.781 13.1965 397.349 14.1304C396.917 15.0642 396.693 16.0806 396.691 17.1095V86.3645C396.685 88.0564 397.284 89.6947 398.381 90.9826C399.478 92.2705 401.001 93.1228 402.672 93.3851L507.152 110.262C507.525 110.321 507.903 110.351 508.281 110.351C510.165 110.345 511.97 109.594 513.302 108.262C514.634 106.93 515.385 105.125 515.391 103.241V33.9783C515.393 32.2878 514.792 30.6521 513.696 29.3652C512.599 28.0783 511.08 27.2247 509.411 26.9578ZM512.848 103.241C512.845 103.904 512.698 104.558 512.417 105.159C512.136 105.759 511.729 106.292 511.223 106.719C510.72 107.155 510.127 107.475 509.487 107.654C508.846 107.834 508.174 107.87 507.517 107.759L403.062 90.8824C401.988 90.7116 401.012 90.1621 400.308 89.3334C399.605 88.5047 399.221 87.4515 399.227 86.3645V17.1095C399.226 16.4467 399.37 15.7917 399.648 15.19C399.926 14.5882 400.331 14.054 400.836 13.6243C401.34 13.1946 401.932 12.8797 402.571 12.7014C403.209 12.5231 403.878 12.4856 404.533 12.5916L509.004 29.4605C510.079 29.6295 511.058 30.1782 511.763 31.0071C512.469 31.836 512.853 32.8901 512.848 33.9783V103.241Z" fill="#180C47"/>
<path d="M508.021 109.311L402.623 92.2475C399.564 91.7577 396.43 92.0627 393.523 93.1332L354.885 107.443C354.404 107.62 353.995 107.951 353.723 108.386C353.45 108.82 353.33 109.332 353.38 109.843C353.43 110.353 353.648 110.832 354 111.205C354.352 111.578 354.817 111.824 355.324 111.903L459.137 128.659C461.521 129.048 463.965 128.813 466.231 127.976L508.322 112.432C508.655 112.305 508.937 112.073 509.125 111.77C509.313 111.467 509.396 111.111 509.362 110.757C509.328 110.402 509.178 110.069 508.936 109.808C508.693 109.547 508.372 109.372 508.021 109.311Z" fill="#5968FE"/>
<path d="M508.224 108.052L402.826 91.0367C399.549 90.5051 396.189 90.8327 393.076 91.9874L354.446 106.256C353.704 106.53 353.073 107.042 352.652 107.713C352.231 108.383 352.044 109.174 352.12 109.962C352.196 110.75 352.531 111.491 353.073 112.068C353.614 112.646 354.331 113.028 355.112 113.155L458.926 129.934C459.732 130.06 460.547 130.125 461.364 130.129C463.174 130.129 464.97 129.81 466.67 129.187L508.752 113.642C509.351 113.421 509.859 113.008 510.198 112.468C510.537 111.928 510.688 111.291 510.628 110.656C510.568 110.021 510.299 109.424 509.865 108.958C509.43 108.491 508.853 108.181 508.224 108.076V108.052ZM507.883 111.245L465.8 126.79C463.724 127.558 461.483 127.771 459.3 127.407L355.519 110.652C355.288 110.617 355.076 110.506 354.915 110.336C354.755 110.167 354.656 109.949 354.633 109.716C354.611 109.484 354.667 109.251 354.792 109.054C354.917 108.857 355.104 108.707 355.324 108.629L393.961 94.3601C395.82 93.6782 397.783 93.3289 399.763 93.3281C400.653 93.3241 401.542 93.3975 402.42 93.5475L507.826 110.555C507.904 110.563 507.977 110.6 508.03 110.658C508.082 110.717 508.111 110.793 508.111 110.871C508.122 110.951 508.106 111.031 508.065 111.1C508.023 111.168 507.959 111.219 507.883 111.245Z" fill="#180C47"/>
<path d="M501.578 33.2876L412.423 19.5553C411.52 19.4119 410.596 19.4661 409.716 19.7143C408.836 19.9624 408.02 20.3985 407.325 20.9926C406.63 21.5866 406.072 22.3244 405.689 23.1551C405.307 23.9857 405.109 24.8894 405.11 25.8039V80.8146C405.111 82.3246 405.653 83.7843 406.636 84.9302C407.62 86.076 408.98 86.8326 410.473 87.0633L499.619 100.796C500.522 100.939 501.446 100.885 502.326 100.637C503.206 100.389 504.022 99.9524 504.717 99.3583C505.413 98.7643 505.971 98.0265 506.353 97.1958C506.736 96.3652 506.933 95.4615 506.932 94.547V39.5363C506.933 38.027 506.393 36.5674 505.411 35.4214C504.429 34.2753 503.069 33.5185 501.578 33.2876Z" fill="#180C47"/>
<path d="M394.619 55.9908C387.671 54.0612 380.3 54.3022 373.493 56.6815C368.193 57.1322 362.974 58.2656 357.965 60.0536C306.407 78.5558 298.371 161.624 297.274 178.046L314.118 179.151C314.687 170.481 320.822 96.3591 359.793 77.7676C359.768 80.0536 359.964 82.3366 360.378 84.585C360.563 85.546 361.077 86.4124 361.832 87.0353C362.587 87.6581 363.535 87.9985 364.514 87.9978C364.786 87.9982 365.058 87.9737 365.326 87.9247C365.505 87.884 367.61 87.0552 368.666 82.9761C369.438 79.9859 368.601 79.2871 369.405 77.3857C370.108 75.8755 371.283 74.6349 372.753 73.851C375.488 74.9957 378.09 76.4343 380.513 78.1414C384.485 80.9646 387.963 84.4239 390.808 88.3797C391.202 88.9206 391.717 89.3609 392.313 89.6645C392.909 89.9681 393.569 90.1265 394.237 90.1267C395.013 90.1243 395.774 89.9084 396.435 89.5025C397.096 89.0966 397.633 88.5165 397.986 87.8257C398.34 87.1349 398.496 86.3602 398.438 85.5865C398.38 84.8127 398.11 84.0699 397.658 83.4393C394.353 78.869 390.334 74.8605 385.754 71.5677C387.18 72.1036 388.567 72.7361 389.907 73.461C394.18 75.969 397.892 79.3296 400.811 83.3337C401.205 83.8679 401.72 84.3021 402.312 84.6013C402.905 84.9005 403.56 85.0563 404.224 85.0563C405.003 85.0556 405.767 84.8391 406.43 84.4308C407.094 84.0226 407.631 83.4384 407.983 82.7433C408.335 82.0481 408.487 81.2691 408.423 80.4927C408.359 79.7162 408.081 78.9727 407.62 78.3445C404.019 73.3981 399.435 69.2486 394.156 66.156C392.396 65.1464 390.566 64.2639 388.68 63.5152C389.904 63.6273 391.119 63.8338 392.312 64.1327C396.132 65.229 399.658 67.167 402.631 69.8044C403.474 70.5404 404.574 70.9115 405.691 70.836C406.807 70.7606 407.847 70.2449 408.583 69.4022C409.319 68.5596 409.69 67.4591 409.615 66.3429C409.539 65.2267 409.024 64.1861 408.181 63.4502C404.276 59.9798 399.641 57.4306 394.619 55.9908Z" fill="#9783FE"/>
<path d="M409.538 70.2026C410.012 69.6603 410.375 69.0299 410.605 68.3474C410.835 67.6649 410.928 66.9438 410.879 66.2252C410.83 65.5067 410.639 64.8049 410.319 64.16C409.998 63.5151 409.553 62.9398 409.01 62.467C404.949 58.8989 400.144 56.2812 394.944 54.8045C387.851 52.8044 380.315 53.0313 373.355 55.4545C367.958 55.9016 362.641 57.0404 357.534 58.8429C305.278 77.6051 297.111 161.348 296.015 177.949C295.993 178.28 296.1 178.606 296.315 178.859C296.424 178.987 296.559 179.091 296.71 179.165C296.86 179.239 297.025 179.281 297.193 179.29L314.029 180.403H314.118C314.439 180.4 314.747 180.276 314.98 180.056C315.213 179.836 315.356 179.536 315.378 179.216C315.922 171.01 321.643 99.5362 358.574 79.7746C358.634 81.463 358.821 83.1444 359.135 84.8044C359.379 86.0523 360.049 87.1766 361.03 87.9857C362.011 88.7947 363.242 89.2384 364.514 89.241C364.879 89.2374 365.243 89.2021 365.603 89.1354C366.032 89.0328 366.447 88.8772 366.838 88.6722C368.682 87.6646 369.763 83.7237 369.885 83.2687C370.069 82.5852 370.188 81.8861 370.242 81.1804C370.269 80.704 370.269 80.2266 370.242 79.7503C370.183 79.1108 370.281 78.4665 370.527 77.8732C371.009 76.7966 371.805 75.8905 372.81 75.273C375.245 76.3305 377.565 77.6347 379.733 79.1652C383.592 81.9099 386.974 85.2699 389.744 89.111C390.615 90.2632 391.897 91.0348 393.323 91.2649C394.749 91.495 396.209 91.1659 397.398 90.3461C398.574 89.493 399.365 88.2093 399.598 86.7752C399.831 85.3412 399.487 83.8732 398.642 82.6917C398.528 82.5374 398.398 82.3748 398.284 82.2123C398.788 82.8136 399.275 83.4312 399.747 84.0812C400.642 85.2209 401.939 85.9758 403.372 86.1917C404.805 86.4077 406.267 86.0684 407.458 85.2432C408.625 84.3774 409.403 83.0862 409.624 81.65C409.844 80.2139 409.489 78.7487 408.636 77.5726C407.117 75.5056 405.432 73.5653 403.598 71.7708C404.633 72.118 405.747 72.1544 406.803 71.8758C407.858 71.5971 408.809 71.0154 409.538 70.2026ZM388.192 64.6934C390.024 65.4227 391.803 66.2807 393.514 67.2611C398.64 70.2561 403.091 74.2785 406.589 79.0758C407.049 79.7074 407.242 80.4954 407.125 81.2685C407.008 82.0415 406.59 82.737 405.963 83.2037C405.323 83.646 404.538 83.8267 403.769 83.7089C403 83.591 402.305 83.1835 401.827 82.5699C398.815 78.4242 394.978 74.9467 390.557 72.3559C389.432 71.7325 388.264 71.1894 387.063 70.7308L386.25 70.3976C385.962 70.2753 385.639 70.2638 385.343 70.3652C385.047 70.4667 384.799 70.674 384.647 70.9473C384.495 71.2206 384.449 71.5405 384.518 71.8456C384.588 72.1506 384.768 72.4192 385.023 72.5997C389.491 75.8128 393.412 79.7254 396.635 84.1869C396.862 84.5006 397.025 84.856 397.115 85.2328C397.205 85.6096 397.22 86.0005 397.159 86.3831C397.098 86.7656 396.962 87.1324 396.759 87.4624C396.556 87.7925 396.29 88.0793 395.976 88.3066C395.333 88.7429 394.548 88.917 393.78 88.7931C393.013 88.6693 392.322 88.2569 391.849 87.6403C388.933 83.5613 385.364 79.992 381.285 77.0769C378.789 75.3078 376.105 73.8199 373.281 72.6403C373.103 72.5656 372.909 72.5333 372.716 72.5459C372.523 72.5586 372.335 72.616 372.168 72.7134C370.451 73.624 369.085 75.0787 368.284 76.8494C367.893 77.7667 367.726 78.7638 367.797 79.7584C367.824 80.194 367.824 80.631 367.797 81.0666C367.743 81.5907 367.648 82.1096 367.512 82.6186C367.033 84.5281 366.651 86.0314 365.887 86.3564L365.188 86.6408C364.42 86.7824 363.627 86.6177 362.978 86.1819C362.33 85.746 361.878 85.0737 361.719 84.3088C361.32 82.138 361.132 79.9338 361.158 77.727C361.16 77.5122 361.107 77.3005 361.003 77.1125C360.899 76.9245 360.748 76.7667 360.565 76.6544C360.384 76.5413 360.178 76.4753 359.965 76.4625C359.752 76.4497 359.539 76.4906 359.346 76.5812C321.058 94.8559 314.013 164.883 313.03 177.77L298.704 176.828C300.11 157.927 308.894 78.9946 358.476 61.2075C363.475 59.4496 368.676 58.3328 373.956 57.8841C380.521 55.6004 387.626 55.368 394.327 57.2178C399.173 58.5888 403.651 61.0264 407.434 64.3521C408.022 64.8674 408.381 65.595 408.433 66.3751C408.485 67.1552 408.225 67.924 407.71 68.5125C407.184 69.0856 406.458 69.4348 405.682 69.4877C404.907 69.5406 404.14 69.2933 403.541 68.7969C400.422 66.0519 396.73 64.0366 392.734 62.8976C391.669 62.6161 390.581 62.4231 389.484 62.3207L388.899 62.2476C388.576 62.1624 388.232 62.2092 387.943 62.3776C387.654 62.546 387.444 62.8222 387.359 63.1455C387.274 63.4687 387.321 63.8126 387.489 64.1013C387.658 64.3901 387.934 64.6001 388.257 64.6853L388.192 64.6934Z" fill="#180C47"/>
<path d="M380.887 69.7474L386.738 71.9576C385.563 71.2937 384.324 70.7493 383.04 70.3325C382.335 70.0946 381.616 69.8993 380.887 69.7474Z" fill="#9783FE"/>
<path d="M381.139 68.5123C380.966 68.4786 380.787 68.4802 380.615 68.5171C380.442 68.5541 380.279 68.6256 380.135 68.7273C379.99 68.829 379.868 68.9589 379.776 69.1091C379.683 69.2592 379.621 69.4266 379.595 69.6012C379.567 69.9181 379.656 70.2343 379.847 70.4892C380.037 70.7441 380.315 70.9197 380.627 70.9825C381.261 71.1207 381.935 71.2994 382.65 71.5269C383.852 71.921 385.011 72.4327 386.112 73.0546L387.363 70.8606C386.117 70.155 384.806 69.5726 383.447 69.1218C382.69 68.8738 381.919 68.6703 381.139 68.5123Z" fill="#180C47"/>
<path d="M384.552 63.0031C384.544 63.2706 384.618 63.534 384.763 63.7588C384.908 63.9837 385.118 64.1593 385.364 64.2626L388.477 64.7745L388.883 62.2718L385.763 61.7599C385.447 61.7915 385.152 61.9336 384.931 62.161C384.709 62.3883 384.575 62.6866 384.552 63.0031Z" fill="#180C47"/>
<path d="M476.843 196.565C457.829 214.116 444.024 237.713 436.922 264.82L453.246 269.094C457.634 252.372 467.263 228.369 488.284 208.965C524.516 175.536 581.234 167.223 636.293 187.269C639.115 171.895 641.93 156.521 644.736 141.148L617.36 164.208C564.389 152.32 512.23 163.9 476.843 196.565Z" fill="#9783FE"/>
<path d="M645.369 140.034C645.142 139.905 644.881 139.848 644.62 139.873C644.36 139.898 644.113 140.002 643.915 140.173L617.019 162.827C563.706 151.037 511.02 163.29 475.99 195.622C456.797 213.336 442.87 237.144 435.703 264.479C435.619 264.806 435.666 265.153 435.833 265.446C436.008 265.731 436.283 265.94 436.605 266.031L452.929 270.305C453.033 270.331 453.139 270.344 453.246 270.346C453.526 270.345 453.797 270.252 454.019 270.082C454.241 269.911 454.4 269.673 454.473 269.403C458.812 252.843 468.352 229.067 489.145 209.883C525.02 176.771 581.233 168.556 635.862 188.439C636.033 188.513 636.22 188.544 636.406 188.528C636.592 188.513 636.771 188.451 636.927 188.35C637.087 188.26 637.225 188.137 637.332 187.988C637.439 187.839 637.511 187.668 637.544 187.488L645.979 141.367C646.026 141.109 645.994 140.843 645.884 140.604C645.775 140.366 645.596 140.167 645.369 140.034ZM635.326 185.538C580.226 165.972 523.688 174.528 487.439 207.997C466.702 227.133 456.935 250.69 452.36 267.51L438.498 263.894C445.632 237.542 459.178 214.604 477.729 197.483C512.287 165.59 564.421 153.604 617.1 165.427C617.291 165.472 617.49 165.47 617.681 165.424C617.871 165.377 618.048 165.287 618.197 165.159L642.883 144.374L635.326 185.538Z" fill="#180C47"/>
<path d="M536.412 182.272C528.733 179.468 505.413 170.969 444.056 264.91L458.178 274.132C479.549 241.418 496.076 221.836 508.054 210.752C519.048 200.546 525.532 196.492 530.619 198.149C541.507 201.692 546.951 233.415 529.327 344.939L576.455 346.67L550.388 321.7C559.091 265.324 564.446 192.502 536.412 182.272Z" fill="#9783FE"/>
<path d="M551.737 321.196C560.708 262.878 565.332 191.502 536.819 181.126C528.945 178.233 504.909 169.433 442.967 264.26C442.878 264.399 442.816 264.555 442.787 264.718C442.758 264.881 442.761 265.048 442.797 265.21C442.864 265.542 443.059 265.834 443.341 266.023L457.472 275.245C457.607 275.343 457.763 275.41 457.927 275.441C458.091 275.472 458.26 275.466 458.422 275.424C458.753 275.354 459.044 275.159 459.235 274.88C477.753 246.505 494.931 224.663 508.899 211.703C519.958 201.424 525.963 197.954 530.212 199.376C539.256 202.253 546.22 229.88 528.075 344.72C528.047 344.898 528.056 345.08 528.104 345.254C528.152 345.428 528.236 345.589 528.352 345.727C528.465 345.865 528.606 345.977 528.766 346.055C528.925 346.133 529.1 346.177 529.278 346.183L576.407 347.905H576.456C576.709 347.902 576.955 347.823 577.162 347.678C577.369 347.533 577.528 347.329 577.618 347.093C577.717 346.857 577.742 346.597 577.692 346.346C577.641 346.095 577.516 345.866 577.333 345.687L551.737 321.196ZM530.806 343.712C545.578 249.698 545.643 201.684 531.017 196.922C524.833 194.891 517.35 200.376 507.201 209.793C493.054 222.916 476.445 243.97 457.813 272.361L445.811 264.536C506.12 172.521 528.563 180.76 536.006 183.458C557.06 191.153 561.732 240.167 549.162 321.472C549.133 321.673 549.153 321.877 549.218 322.069C549.282 322.261 549.391 322.435 549.535 322.577L573.157 345.264L530.806 343.712Z" fill="#180C47"/>
<path d="M463.858 133.623C461.134 132.455 458.325 131.493 455.456 130.747C457.504 130.747 459.519 130.666 461.583 130.804C462.694 130.856 463.782 130.475 464.619 129.742C465.455 129.009 465.975 127.979 466.068 126.871C466.105 126.318 466.032 125.764 465.854 125.239C465.676 124.714 465.396 124.23 465.031 123.813C464.666 123.397 464.222 123.056 463.725 122.811C463.229 122.566 462.688 122.422 462.136 122.386C459.625 122.207 455.237 119.371 439.311 123.434C431.185 125.506 429.34 126.749 424.741 126.253C421.009 125.978 417.445 124.588 414.511 122.264C411.749 119.956 409.738 116.879 408.734 113.423C408.436 112.551 407.868 111.795 407.113 111.267C406.358 110.738 405.454 110.463 404.533 110.481C403.43 110.58 402.405 111.09 401.662 111.911C400.92 112.732 400.514 113.803 400.527 114.91C400.75 119.643 402.329 124.213 405.077 128.074C406.404 129.901 407.986 131.529 409.774 132.908C392.665 167.052 384.065 204.826 384.706 243.011L401.583 242.743C400.964 208.415 408.444 174.425 423.417 143.529C423.946 143.673 424.497 143.714 425.042 143.65C433.445 142.579 441.982 143.699 449.825 146.901C450.34 147.116 450.893 147.223 451.45 147.218C452.432 147.227 453.387 146.894 454.149 146.275C454.912 145.656 455.435 144.791 455.627 143.828C455.82 142.865 455.67 141.865 455.205 141C454.739 140.136 453.986 139.461 453.075 139.092C452.206 138.734 451.296 138.483 450.402 138.166C453.849 138.855 457.213 139.91 460.437 141.31C461.461 141.762 462.622 141.788 463.665 141.383C464.708 140.979 465.548 140.177 465.999 139.153C466.451 138.129 466.477 136.968 466.073 135.925C465.668 134.882 464.866 134.042 463.842 133.591L463.858 133.623Z" fill="#9783FE"/>
<path d="M464.37 132.478C463.931 132.283 463.493 132.096 463.046 131.917C464.333 131.635 465.475 130.898 466.262 129.841C467.049 128.784 467.428 127.479 467.329 126.165C467.231 124.851 466.661 123.616 465.724 122.689C464.788 121.762 463.548 121.204 462.233 121.118C461.723 121.059 461.218 120.964 460.722 120.834C457.764 120.151 452.255 118.851 439.026 122.231C436.751 122.816 434.963 123.328 433.468 123.767C429.682 124.848 427.918 125.343 424.912 125.01C421.425 124.768 418.091 123.48 415.348 121.313C412.76 119.15 410.881 116.26 409.953 113.017C409.578 111.934 408.882 110.992 407.957 110.317C407.031 109.641 405.922 109.265 404.777 109.238H404.5C403.066 109.361 401.733 110.024 400.768 111.091C399.803 112.159 399.278 113.552 399.3 114.991C399.533 119.96 401.194 124.757 404.086 128.805C405.273 130.448 406.66 131.939 408.214 133.241C391.308 167.329 382.823 204.975 383.471 243.019C383.477 243.352 383.613 243.669 383.85 243.903C384.087 244.137 384.406 244.268 384.739 244.271L401.616 244.002C401.95 243.992 402.268 243.852 402.501 243.612C402.619 243.494 402.713 243.353 402.775 243.198C402.838 243.043 402.869 242.878 402.867 242.71C402.256 208.902 409.548 175.418 424.164 144.926C424.51 144.959 424.859 144.959 425.204 144.926C429.864 144.349 434.581 144.445 439.213 145.211C442.684 145.802 446.079 146.772 449.338 148.103C450.687 148.626 452.187 148.607 453.523 148.05C454.858 147.493 455.927 146.44 456.505 145.113C457.02 143.864 457.052 142.468 456.594 141.197C457.756 141.603 458.877 142.009 459.958 142.521C461.296 143.067 462.792 143.077 464.137 142.549C465.482 142.021 466.573 140.995 467.182 139.685C467.761 138.356 467.79 136.852 467.263 135.501C466.736 134.151 465.696 133.064 464.37 132.478ZM464.866 138.678C464.53 139.378 463.94 139.925 463.216 140.207C462.491 140.489 461.687 140.486 460.965 140.197C457.642 138.743 454.171 137.653 450.613 136.947C450.298 136.875 449.967 136.929 449.691 137.098C449.415 137.266 449.215 137.536 449.135 137.849C449.051 138.159 449.089 138.489 449.24 138.773C449.39 139.056 449.643 139.272 449.947 139.376L450.947 139.718C451.491 139.888 452.027 140.059 452.572 140.278C452.93 140.426 453.256 140.642 453.531 140.915C453.806 141.189 454.024 141.513 454.174 141.871C454.323 142.229 454.401 142.612 454.402 143C454.403 143.387 454.328 143.771 454.181 144.13C454.033 144.488 453.817 144.814 453.544 145.089C453.27 145.364 452.946 145.583 452.588 145.732C452.23 145.881 451.847 145.959 451.459 145.96C451.072 145.961 450.688 145.886 450.329 145.739C442.283 142.455 433.526 141.302 424.904 142.391C424.522 142.437 424.136 142.407 423.766 142.302C423.484 142.237 423.189 142.269 422.927 142.391C422.665 142.513 422.452 142.719 422.32 142.976C407.428 173.664 399.891 207.4 400.307 241.508L385.958 241.743C385.526 204.184 394.082 167.066 410.911 133.485C411.042 133.223 411.078 132.923 411.013 132.637C410.948 132.351 410.786 132.097 410.554 131.917C408.863 130.611 407.364 129.074 406.101 127.35C403.514 123.706 402.022 119.398 401.803 114.934C401.786 114.151 402.066 113.389 402.585 112.802C403.105 112.215 403.826 111.845 404.606 111.765H404.752C405.365 111.786 405.957 111.99 406.452 112.35C406.948 112.711 407.323 113.212 407.531 113.789C408.594 117.496 410.749 120.797 413.715 123.263C416.842 125.738 420.642 127.213 424.619 127.497C428.211 127.862 430.307 127.269 434.159 126.164C435.63 125.733 437.409 125.221 439.636 124.653C452.214 121.402 457.374 122.621 460.137 123.263C460.763 123.432 461.401 123.549 462.046 123.613C462.827 123.669 463.555 124.03 464.072 124.619C464.589 125.207 464.854 125.975 464.809 126.757C464.741 127.517 464.389 128.223 463.822 128.734C463.256 129.245 462.517 129.523 461.754 129.512H461.664C460.129 129.406 458.585 129.431 457.073 129.431H455.448C455.144 129.436 454.853 129.55 454.626 129.753C454.399 129.955 454.253 130.232 454.214 130.534C454.174 130.835 454.244 131.14 454.411 131.394C454.578 131.648 454.831 131.834 455.123 131.917C457.933 132.675 460.681 133.642 463.346 134.81C464.057 135.125 464.615 135.708 464.9 136.432C465.184 137.156 465.172 137.963 464.866 138.678Z" fill="#180C47"/>
<path d="M174.3 183.978C174.3 270.159 244.181 339.991 330.313 339.991C355.983 340.004 381.259 333.679 403.897 321.576C426.534 309.473 445.833 291.968 460.08 270.614L200.871 96.8547C183.506 122.588 174.25 152.934 174.3 183.978Z" fill="#9783FE"/>
<path d="M460.811 269.59L201.57 95.8064C201.289 95.6248 200.949 95.5597 200.621 95.6249C200.294 95.6902 200.004 95.8806 199.815 96.1558C182.299 122.089 172.959 152.676 173 183.97C173 270.703 243.563 341.266 330.305 341.266C356.183 341.278 381.663 334.9 404.485 322.7C427.306 310.499 446.763 292.854 461.128 271.329C461.31 271.054 461.379 270.72 461.32 270.396C461.26 270.072 461.078 269.783 460.811 269.59ZM330.337 338.764C245.018 338.764 175.568 269.338 175.568 184.002C175.522 153.639 184.45 123.94 201.229 98.6342L458.341 270.988C444.16 291.877 425.079 308.976 402.766 320.79C380.452 332.605 355.586 338.776 330.337 338.764Z" fill="#180C47"/>
<path d="M248.642 215.254C246.977 215.254 245.349 215.748 243.965 216.674C242.581 217.6 241.504 218.916 240.868 220.455C240.233 221.994 240.069 223.687 240.397 225.32C240.724 226.952 241.529 228.451 242.71 229.625C243.89 230.8 245.392 231.597 247.026 231.917C248.66 232.237 250.353 232.065 251.889 231.422C253.425 230.779 254.735 229.695 255.654 228.307C256.574 226.918 257.06 225.288 257.052 223.623C257.043 221.399 256.153 219.269 254.577 217.7C253 216.131 250.866 215.252 248.642 215.254Z" fill="white"/>
<mask id="mask0_42_40" style="mask-type:luminance" maskUnits="userSpaceOnUse" x="240" y="215" width="18" height="18">
<path d="M248.65 232.025C253.29 232.025 257.052 228.263 257.052 223.623C257.052 218.983 253.29 215.221 248.65 215.221C244.01 215.221 240.248 218.983 240.248 223.623C240.248 228.263 244.01 232.025 248.65 232.025Z" fill="white"/>
</mask>
<g mask="url(#mask0_42_40)">
<path d="M253.777 229.482C258.418 229.482 262.179 225.72 262.179 221.08C262.179 216.44 258.418 212.678 253.777 212.678C249.137 212.678 245.375 216.44 245.375 221.08C245.375 225.72 249.137 229.482 253.777 229.482Z" fill="#180C47"/>
</g>
<path d="M255.776 197.556L239.582 205.925C239.165 206.145 238.834 206.498 238.64 206.928C238.447 207.357 238.403 207.839 238.515 208.297C238.627 208.755 238.889 209.162 239.259 209.453C239.629 209.745 240.086 209.905 240.557 209.907C240.897 209.909 241.233 209.826 241.532 209.663L257.702 201.294C257.96 201.175 258.192 201.005 258.383 200.795C258.574 200.584 258.721 200.337 258.814 200.068C258.906 199.799 258.944 199.514 258.923 199.23C258.903 198.947 258.825 198.67 258.695 198.417C258.565 198.164 258.385 197.94 258.165 197.759C257.946 197.578 257.693 197.443 257.42 197.363C257.147 197.282 256.861 197.258 256.578 197.291C256.296 197.324 256.023 197.414 255.776 197.556Z" fill="#180C47"/>
<path d="M282.022 207.323C280.358 207.322 278.731 207.814 277.347 208.737C275.962 209.661 274.883 210.974 274.246 212.511C273.608 214.048 273.441 215.74 273.765 217.372C274.089 219.004 274.89 220.503 276.067 221.68C277.244 222.857 278.743 223.658 280.375 223.982C282.007 224.306 283.699 224.139 285.236 223.502C286.773 222.864 288.087 221.785 289.01 220.401C289.934 219.016 290.426 217.389 290.424 215.725C290.424 213.497 289.539 211.36 287.963 209.784C286.387 208.208 284.25 207.323 282.022 207.323Z" fill="white"/>
<mask id="mask1_42_40" style="mask-type:luminance" maskUnits="userSpaceOnUse" x="273" y="207" width="18" height="18">
<path d="M282.022 224.127C286.662 224.127 290.424 220.365 290.424 215.725C290.424 211.085 286.662 207.323 282.022 207.323C277.382 207.323 273.62 211.085 273.62 215.725C273.62 220.365 277.382 224.127 282.022 224.127Z" fill="white"/>
</mask>
<g mask="url(#mask1_42_40)">
<path d="M287.149 204.772C285.486 204.77 283.859 205.262 282.475 206.185C281.091 207.108 280.012 208.421 279.374 209.958C278.736 211.494 278.568 213.185 278.892 214.817C279.215 216.449 280.016 217.949 281.192 219.126C282.367 220.303 283.866 221.104 285.498 221.43C287.129 221.755 288.821 221.589 290.358 220.952C291.895 220.316 293.209 219.238 294.133 217.855C295.058 216.472 295.551 214.845 295.551 213.182C295.551 210.953 294.666 208.815 293.091 207.238C291.516 205.661 289.378 204.774 287.149 204.772Z" fill="#180C47"/>
</g>
<path d="M276.554 235.478C273.651 236.715 270.41 236.91 267.38 236.031L266.656 238.469C268.151 238.904 269.699 239.123 271.256 239.119C273.43 239.128 275.583 238.685 277.577 237.819C280.439 236.547 282.864 234.461 284.549 231.822L282.404 230.457C280.987 232.666 278.953 234.412 276.554 235.478Z" fill="#180C47"/>
<path d="M265.34 237.193C264.739 238.465 263.913 239.619 262.902 240.598L264.649 242.426C267.278 239.905 268.845 236.475 269.029 232.838L266.51 232.699C266.423 234.26 266.026 235.788 265.34 237.193Z" fill="#180C47"/>
<path d="M289.148 187.561L272.962 195.915C272.539 196.129 272.201 196.48 272.002 196.911C271.804 197.342 271.757 197.827 271.869 198.288C271.98 198.749 272.245 199.159 272.619 199.451C272.993 199.743 273.455 199.9 273.929 199.896C274.264 199.899 274.595 199.815 274.888 199.652L291.082 191.299C291.333 191.175 291.556 191.002 291.739 190.791C291.921 190.58 292.06 190.334 292.147 190.069C292.234 189.803 292.268 189.523 292.245 189.245C292.223 188.966 292.145 188.695 292.017 188.447C291.888 188.198 291.712 187.978 291.497 187.799C291.283 187.62 291.035 187.485 290.768 187.403C290.501 187.32 290.22 187.292 289.942 187.319C289.664 187.346 289.394 187.429 289.148 187.561Z" fill="#180C47"/>
<path d="M445.762 130.893C443.201 131.237 440.677 131.816 438.222 132.624L455.456 130.747C452.23 130.42 448.977 130.469 445.762 130.893Z" fill="#9783FE"/>
<path d="M445.584 129.642C442.947 129.991 440.349 130.587 437.824 131.421C437.525 131.594 437.302 131.873 437.199 132.203C437.097 132.533 437.123 132.889 437.271 133.201C437.409 133.427 437.611 133.606 437.851 133.718C438.091 133.829 438.359 133.867 438.62 133.826C439.668 133.485 440.871 133.128 442.22 132.819C443.569 132.51 444.657 132.315 445.925 132.144C449.046 131.738 452.203 131.689 455.335 131.998L455.578 129.471C452.251 129.15 448.898 129.207 445.584 129.642Z" fill="#180C47"/>
<path d="M440.391 136.475C440.088 136.569 439.828 136.768 439.658 137.036C439.489 137.304 439.42 137.624 439.465 137.938C439.513 138.204 439.641 138.449 439.833 138.639C440.025 138.83 440.271 138.957 440.538 139.002C441.781 138.929 443.113 138.905 444.535 138.954C446.421 139.004 448.301 139.17 450.167 139.449L450.548 136.947C448.581 136.653 446.597 136.474 444.609 136.41C443.122 136.386 441.7 136.435 440.391 136.475Z" fill="#180C47"/>
<mask id="path-33-inside-1_42_40" fill="white">
<path fill-rule="evenodd" clip-rule="evenodd" d="M594 25C576.327 25 562 39.3269 562 57V93C562 95.3706 562.258 97.6809 562.747 99.9046L485 129L574.268 118.194C579.704 122.458 586.555 125 594 125H785C802.673 125 817 110.673 817 93V57C817 39.3269 802.673 25 785 25H594Z"/>
</mask>
<path fill-rule="evenodd" clip-rule="evenodd" d="M594 25C576.327 25 562 39.3269 562 57V93C562 95.3706 562.258 97.6809 562.747 99.9046L485 129L574.268 118.194C579.704 122.458 586.555 125 594 125H785C802.673 125 817 110.673 817 93V57C817 39.3269 802.673 25 785 25H594Z" fill="white"/>
<path d="M562.747 99.9046L563.097 100.841L563.91 100.537L563.724 99.6898L562.747 99.9046ZM485 129L484.65 128.063L485.12 129.993L485 129ZM574.268 118.194L574.885 117.407L574.559 117.151L574.148 117.201L574.268 118.194ZM563 57C563 39.8792 576.879 26 594 26V24C575.775 24 561 38.7746 561 57H563ZM563 93V57H561V93H563ZM563.724 99.6898C563.25 97.5362 563 95.2979 563 93H561C561 95.4433 561.266 97.8256 561.77 100.119L563.724 99.6898ZM485.35 129.937L563.097 100.841L562.396 98.968L484.65 128.063L485.35 129.937ZM574.148 117.201L484.88 128.007L485.12 129.993L574.388 119.187L574.148 117.201ZM594 124C586.787 124 580.152 121.538 574.885 117.407L573.651 118.981C579.257 123.378 586.324 126 594 126V124ZM785 124H594V126H785V124ZM816 93C816 110.121 802.121 124 785 124V126C803.225 126 818 111.225 818 93H816ZM816 57V93H818V57H816ZM785 26C802.121 26 816 39.8792 816 57H818C818 38.7746 803.225 24 785 24V26ZM594 26H785V24H594V26Z" fill="black" mask="url(#path-33-inside-1_42_40)"/>
<path d="M602.92 60C602.92 61.08 602.767 62.0533 602.46 62.92C602.167 63.7867 601.727 64.52 601.14 65.12C600.567 65.72 599.853 66.1867 599 66.52C598.16 66.84 597.2 67 596.12 67H592.56C592.427 67 592.36 66.94 592.36 66.82V53.34C592.36 53.22 592.42 53.16 592.54 53.16H596.46C597.5 53.16 598.42 53.3267 599.22 53.66C600.033 53.9933 600.713 54.46 601.26 55.06C601.807 55.66 602.22 56.38 602.5 57.22C602.78 58.06 602.92 58.9867 602.92 60ZM601.04 60.14H601.06C601.06 59.3267 600.967 58.5933 600.78 57.94C600.607 57.2867 600.327 56.7267 599.94 56.26C599.553 55.7933 599.06 55.4333 598.46 55.18C597.86 54.9267 597.133 54.8 596.28 54.8H594.2V65.34H595.94C597.607 65.34 598.873 64.8933 599.74 64C600.607 63.0933 601.04 61.8067 601.04 60.14ZM609.803 58.18L609.623 58.36C609.583 58.36 609.537 58.36 609.483 58.36C609.43 58.3467 609.377 58.34 609.323 58.34C609.23 58.3267 609.137 58.32 609.043 58.32C608.963 58.3067 608.883 58.3 608.803 58.3C608.39 58.3 608.037 58.4267 607.743 58.68C607.463 58.9333 607.237 59.2467 607.063 59.62C606.89 59.98 606.763 60.38 606.683 60.82C606.603 61.2467 606.563 61.64 606.563 62V66.82C606.563 66.94 606.503 67 606.383 67H605.083C604.977 67 604.923 66.94 604.923 66.82V56.98C604.923 56.8733 604.977 56.82 605.083 56.82H606.263C606.37 56.82 606.423 56.8733 606.423 56.98V58.32C606.663 57.84 606.983 57.4333 607.383 57.1C607.783 56.7533 608.277 56.58 608.863 56.58C608.97 56.58 609.063 56.5867 609.143 56.6C609.223 56.6 609.303 56.6067 609.383 56.62C609.517 56.6467 609.597 56.66 609.623 56.66C609.743 56.66 609.803 56.72 609.803 56.84V58.18ZM620.066 61.9C620.066 62.62 619.966 63.3067 619.766 63.96C619.58 64.6 619.286 65.1667 618.886 65.66C618.5 66.14 618.013 66.52 617.426 66.8C616.84 67.08 616.16 67.22 615.386 67.22C614.613 67.22 613.933 67.08 613.346 66.8C612.76 66.5067 612.273 66.12 611.886 65.64C611.5 65.16 611.206 64.6 611.006 63.96C610.806 63.3067 610.706 62.62 610.706 61.9C610.706 61.1667 610.8 60.48 610.986 59.84C611.186 59.1867 611.48 58.62 611.866 58.14C612.253 57.66 612.733 57.28 613.306 57C613.893 56.72 614.58 56.58 615.366 56.58C616.14 56.58 616.82 56.7267 617.406 57.02C618.006 57.3 618.5 57.68 618.886 58.16C619.273 58.64 619.566 59.2067 619.766 59.86C619.966 60.5 620.066 61.18 620.066 61.9ZM618.206 61.9H618.226C618.226 61.4467 618.173 60.9933 618.066 60.54C617.973 60.0733 617.813 59.66 617.586 59.3C617.36 58.9267 617.066 58.6267 616.706 58.4C616.346 58.1733 615.906 58.06 615.386 58.06C614.866 58.06 614.426 58.1733 614.066 58.4C613.706 58.6267 613.406 58.92 613.166 59.28C612.94 59.64 612.773 60.0533 612.666 60.52C612.573 60.9733 612.526 61.4333 612.526 61.9C612.526 62.3667 612.573 62.8267 612.666 63.28C612.773 63.7333 612.94 64.14 613.166 64.5C613.393 64.86 613.686 65.1533 614.046 65.38C614.406 65.6067 614.846 65.72 615.366 65.72C615.886 65.72 616.326 65.6067 616.686 65.38C617.06 65.1533 617.353 64.86 617.566 64.5C617.793 64.14 617.953 63.7333 618.046 63.28C618.153 62.8267 618.206 62.3667 618.206 61.9ZM630.683 61.88C630.683 62.52 630.603 63.16 630.443 63.8C630.283 64.44 630.037 65.0133 629.703 65.52C629.37 66.0267 628.937 66.44 628.403 66.76C627.883 67.0667 627.257 67.22 626.523 67.22C625.937 67.22 625.397 67.1067 624.903 66.88C624.423 66.64 624.017 66.2867 623.683 65.82V70.5C623.683 70.6067 623.63 70.66 623.523 70.66H622.183C622.063 70.66 622.003 70.6067 622.003 70.5V56.9C622.003 56.78 622.063 56.72 622.183 56.72H623.403C623.523 56.72 623.583 56.78 623.583 56.9V58.14C623.917 57.6467 624.317 57.2467 624.783 56.94C625.263 56.6333 625.837 56.48 626.503 56.48C627.277 56.48 627.923 56.6333 628.443 56.94C628.977 57.2467 629.41 57.6533 629.743 58.16C630.077 58.6667 630.317 59.2467 630.463 59.9C630.61 60.54 630.683 61.2 630.683 61.88ZM628.843 61.92C628.843 61.4933 628.803 61.0533 628.723 60.6C628.643 60.1333 628.503 59.7133 628.303 59.34C628.117 58.9533 627.857 58.64 627.523 58.4C627.19 58.1467 626.77 58.02 626.263 58.02C625.877 58.02 625.523 58.1133 625.203 58.3C624.883 58.4867 624.61 58.7267 624.383 59.02C624.157 59.3133 623.983 59.6467 623.863 60.02C623.743 60.3933 623.683 60.76 623.683 61.12V62.42C623.683 62.8067 623.737 63.1933 623.843 63.58C623.963 63.9667 624.13 64.32 624.343 64.64C624.57 64.9467 624.843 65.2 625.163 65.4C625.483 65.6 625.85 65.7 626.263 65.7C626.77 65.7 627.19 65.5867 627.523 65.36C627.857 65.12 628.117 64.82 628.303 64.46C628.503 64.1 628.643 63.7 628.723 63.26C628.803 62.8067 628.843 62.36 628.843 61.92ZM646.142 56.96L642.222 68.14C642.102 68.46 641.962 68.78 641.802 69.1C641.655 69.4333 641.469 69.7267 641.242 69.98C641.029 70.2467 640.775 70.46 640.482 70.62C640.189 70.7933 639.842 70.88 639.442 70.88C638.989 70.88 638.549 70.8267 638.122 70.72C638.015 70.6933 637.962 70.6333 637.962 70.54L638.042 69.4C638.042 69.2533 638.102 69.1933 638.222 69.22L638.582 69.28C638.689 69.3067 638.789 69.3267 638.882 69.34C638.989 69.3667 639.075 69.38 639.142 69.38C639.435 69.38 639.682 69.3067 639.882 69.16C640.095 69.0133 640.269 68.8267 640.402 68.6C640.549 68.3733 640.669 68.12 640.762 67.84C640.855 67.5733 640.935 67.3067 641.002 67.04C641.029 66.9867 641.049 66.94 641.062 66.9C641.075 66.86 641.082 66.82 641.082 66.78L637.682 56.96C637.655 56.8933 637.649 56.84 637.662 56.8C637.689 56.7467 637.735 56.72 637.802 56.72H639.222C639.315 56.72 639.375 56.76 639.402 56.84L641.922 64.3L644.522 56.84C644.575 56.76 644.629 56.72 644.682 56.72H645.962C646.029 56.72 646.082 56.7467 646.122 56.8C646.162 56.84 646.169 56.8933 646.142 56.96ZM656.375 61.9C656.375 62.62 656.275 63.3067 656.075 63.96C655.888 64.6 655.595 65.1667 655.195 65.66C654.808 66.14 654.322 66.52 653.735 66.8C653.148 67.08 652.468 67.22 651.695 67.22C650.922 67.22 650.242 67.08 649.655 66.8C649.068 66.5067 648.582 66.12 648.195 65.64C647.808 65.16 647.515 64.6 647.315 63.96C647.115 63.3067 647.015 62.62 647.015 61.9C647.015 61.1667 647.108 60.48 647.295 59.84C647.495 59.1867 647.788 58.62 648.175 58.14C648.562 57.66 649.042 57.28 649.615 57C650.202 56.72 650.888 56.58 651.675 56.58C652.448 56.58 653.128 56.7267 653.715 57.02C654.315 57.3 654.808 57.68 655.195 58.16C655.582 58.64 655.875 59.2067 656.075 59.86C656.275 60.5 656.375 61.18 656.375 61.9ZM654.515 61.9H654.535C654.535 61.4467 654.482 60.9933 654.375 60.54C654.282 60.0733 654.122 59.66 653.895 59.3C653.668 58.9267 653.375 58.6267 653.015 58.4C652.655 58.1733 652.215 58.06 651.695 58.06C651.175 58.06 650.735 58.1733 650.375 58.4C650.015 58.6267 649.715 58.92 649.475 59.28C649.248 59.64 649.082 60.0533 648.975 60.52C648.882 60.9733 648.835 61.4333 648.835 61.9C648.835 62.3667 648.882 62.8267 648.975 63.28C649.082 63.7333 649.248 64.14 649.475 64.5C649.702 64.86 649.995 65.1533 650.355 65.38C650.715 65.6067 651.155 65.72 651.675 65.72C652.195 65.72 652.635 65.6067 652.995 65.38C653.368 65.1533 653.662 64.86 653.875 64.5C654.102 64.14 654.262 63.7333 654.355 63.28C654.462 62.8267 654.515 62.3667 654.515 61.9ZM666.452 67H665.252C665.145 67 665.079 66.94 665.052 66.82V65.6C664.745 66.1067 664.345 66.5067 663.852 66.8C663.372 67.08 662.819 67.22 662.192 67.22C661.552 67.22 661.005 67.12 660.552 66.92C660.112 66.72 659.752 66.44 659.472 66.08C659.192 65.72 658.985 65.2933 658.852 64.8C658.732 64.2933 658.672 63.7467 658.672 63.16V56.98C658.672 56.8733 658.725 56.82 658.832 56.82H660.172C660.292 56.82 660.352 56.8733 660.352 56.98V63.16C660.352 63.4933 660.385 63.8133 660.452 64.12C660.519 64.4133 660.632 64.68 660.792 64.92C660.952 65.1467 661.159 65.3333 661.412 65.48C661.665 65.6133 661.972 65.68 662.332 65.68C662.772 65.68 663.152 65.5867 663.472 65.4C663.805 65.2133 664.079 64.9667 664.292 64.66C664.505 64.3533 664.665 64.0133 664.772 63.64C664.879 63.2533 664.932 62.86 664.932 62.46V56.98C664.932 56.8733 664.985 56.82 665.092 56.82H666.432C666.565 56.82 666.632 56.8733 666.632 56.98V66.82C666.632 66.94 666.572 67 666.452 67ZM673.514 58.18L673.334 58.36C673.294 58.36 673.248 58.36 673.194 58.36C673.141 58.3467 673.088 58.34 673.034 58.34C672.941 58.3267 672.848 58.32 672.754 58.32C672.674 58.3067 672.594 58.3 672.514 58.3C672.101 58.3 671.748 58.4267 671.454 58.68C671.174 58.9333 670.948 59.2467 670.774 59.62C670.601 59.98 670.474 60.38 670.394 60.82C670.314 61.2467 670.274 61.64 670.274 62V66.82C670.274 66.94 670.214 67 670.094 67H668.794C668.688 67 668.634 66.94 668.634 66.82V56.98C668.634 56.8733 668.688 56.82 668.794 56.82H669.974C670.081 56.82 670.134 56.8733 670.134 56.98V58.32C670.374 57.84 670.694 57.4333 671.094 57.1C671.494 56.7533 671.988 56.58 672.574 56.58C672.681 56.58 672.774 56.5867 672.854 56.6C672.934 56.6 673.014 56.6067 673.094 56.62C673.228 56.6467 673.308 56.66 673.334 56.66C673.454 56.66 673.514 56.72 673.514 56.84V58.18ZM685.619 52.76L685.559 53.88C685.559 53.9467 685.539 54 685.499 54.04C685.459 54.08 685.406 54.0867 685.339 54.06C685.139 53.9933 684.972 53.9467 684.839 53.92C684.706 53.88 684.546 53.86 684.359 53.86C684.039 53.86 683.786 53.9267 683.599 54.06C683.426 54.18 683.292 54.34 683.199 54.54C683.106 54.74 683.046 54.9733 683.019 55.24C682.992 55.4933 682.979 55.7533 682.979 56.02V56.72H685.019C685.126 56.72 685.179 56.7733 685.179 56.88V58.02C685.179 58.14 685.126 58.2 685.019 58.2H682.979V66.82C682.979 66.94 682.919 67 682.799 67H681.479C681.372 67 681.319 66.94 681.319 66.82V58.2H679.659C679.539 58.2 679.479 58.14 679.479 58.02V56.88C679.479 56.7733 679.539 56.72 679.659 56.72H681.319C681.319 56.2133 681.339 55.7 681.379 55.18C681.419 54.66 681.526 54.1933 681.699 53.78C681.872 53.3667 682.139 53.0333 682.499 52.78C682.872 52.5133 683.392 52.38 684.059 52.38C684.592 52.38 685.079 52.4467 685.519 52.58C685.586 52.6067 685.619 52.6667 685.619 52.76ZM688.787 67H687.367C687.327 67 687.287 66.9867 687.247 66.96C687.207 66.92 687.187 66.8733 687.187 66.82V56.9C687.187 56.8467 687.207 56.8067 687.247 56.78C687.287 56.74 687.32 56.72 687.347 56.72H688.767C688.873 56.72 688.927 56.78 688.927 56.9V66.82C688.927 66.94 688.88 67 688.787 67ZM688.827 54.86H687.347C687.24 54.86 687.187 54.8067 687.187 54.7V53.02C687.187 52.9 687.233 52.84 687.327 52.84H688.807C688.847 52.84 688.887 52.86 688.927 52.9C688.967 52.9267 688.987 52.9667 688.987 53.02V54.7C688.987 54.7533 688.967 54.7933 688.927 54.82C688.887 54.8467 688.853 54.86 688.827 54.86ZM692.535 67H691.135C691.042 67 690.995 66.94 690.995 66.82V52.8C690.995 52.68 691.042 52.62 691.135 52.62H692.535C692.642 52.62 692.695 52.68 692.695 52.8V66.82C692.695 66.94 692.642 67 692.535 67ZM703.584 62.32H696.804C696.831 62.7867 696.891 63.2267 696.984 63.64C697.091 64.0533 697.244 64.42 697.444 64.74C697.657 65.0467 697.931 65.2933 698.264 65.48C698.611 65.6667 699.044 65.76 699.564 65.76C699.831 65.76 700.044 65.76 700.204 65.76C700.377 65.7467 700.564 65.7267 700.764 65.7C700.964 65.6733 701.211 65.6267 701.504 65.56C701.797 65.48 702.204 65.38 702.724 65.26C702.751 65.2467 702.784 65.2533 702.824 65.28C702.877 65.3067 702.911 65.34 702.924 65.38L703.244 66.26C703.271 66.38 703.231 66.46 703.124 66.5C702.564 66.6867 702.124 66.8267 701.804 66.92C701.484 67.0133 701.211 67.08 700.984 67.12C700.771 67.1733 700.571 67.2 700.384 67.2C700.197 67.2133 699.951 67.22 699.644 67.22C698.831 67.22 698.131 67.0867 697.544 66.82C696.957 66.54 696.471 66.1667 696.084 65.7C695.711 65.22 695.431 64.66 695.244 64.02C695.071 63.3667 694.984 62.66 694.984 61.9C694.984 61.22 695.077 60.56 695.264 59.92C695.451 59.28 695.731 58.7133 696.104 58.22C696.477 57.7267 696.944 57.3333 697.504 57.04C698.064 56.7333 698.717 56.58 699.464 56.58C700.304 56.58 700.997 56.74 701.544 57.06C702.091 57.3667 702.524 57.78 702.844 58.3C703.177 58.8067 703.411 59.3933 703.544 60.06C703.677 60.7267 703.744 61.42 703.744 62.14C703.744 62.26 703.691 62.32 703.584 62.32ZM699.564 58.02C699.151 58.02 698.784 58.1 698.464 58.26C698.157 58.42 697.891 58.6333 697.664 58.9C697.437 59.1667 697.257 59.4733 697.124 59.82C696.991 60.1533 696.897 60.5067 696.844 60.88H701.924C701.897 60.52 701.837 60.1667 701.744 59.82C701.651 59.4733 701.511 59.1667 701.324 58.9C701.137 58.6333 700.897 58.42 700.604 58.26C700.324 58.1 699.977 58.02 699.564 58.02ZM719.596 67H718.256C718.15 67 718.096 66.94 718.096 66.82V60.3C718.096 59.9933 718.056 59.7 717.976 59.42C717.91 59.14 717.796 58.9 717.636 58.7C717.476 58.4867 717.276 58.32 717.036 58.2C716.796 58.0667 716.51 58 716.176 58C715.723 58 715.33 58.0933 714.996 58.28C714.663 58.4533 714.383 58.6933 714.156 59C713.943 59.3067 713.783 59.66 713.676 60.06C713.57 60.4467 713.516 60.8533 713.516 61.28V66.82C713.516 66.94 713.456 67 713.336 67H711.996C711.956 67 711.916 66.9867 711.876 66.96C711.836 66.92 711.816 66.8733 711.816 66.82V52.8C711.816 52.68 711.87 52.62 711.976 52.62H713.316C713.436 52.62 713.496 52.68 713.496 52.8V58.06C713.803 57.5533 714.176 57.1667 714.616 56.9C715.07 56.62 715.636 56.48 716.316 56.48C716.916 56.48 717.436 56.58 717.876 56.78C718.316 56.98 718.676 57.2533 718.956 57.6C719.236 57.9467 719.443 58.3667 719.576 58.86C719.71 59.34 719.776 59.8667 719.776 60.44V66.82C719.776 66.94 719.716 67 719.596 67ZM730.693 62.32H723.913C723.94 62.7867 724 63.2267 724.093 63.64C724.2 64.0533 724.353 64.42 724.553 64.74C724.767 65.0467 725.04 65.2933 725.373 65.48C725.72 65.6667 726.153 65.76 726.673 65.76C726.94 65.76 727.153 65.76 727.313 65.76C727.487 65.7467 727.673 65.7267 727.873 65.7C728.073 65.6733 728.32 65.6267 728.613 65.56C728.907 65.48 729.313 65.38 729.833 65.26C729.86 65.2467 729.893 65.2533 729.933 65.28C729.987 65.3067 730.02 65.34 730.033 65.38L730.353 66.26C730.38 66.38 730.34 66.46 730.233 66.5C729.673 66.6867 729.233 66.8267 728.913 66.92C728.593 67.0133 728.32 67.08 728.093 67.12C727.88 67.1733 727.68 67.2 727.493 67.2C727.307 67.2133 727.06 67.22 726.753 67.22C725.94 67.22 725.24 67.0867 724.653 66.82C724.067 66.54 723.58 66.1667 723.193 65.7C722.82 65.22 722.54 64.66 722.353 64.02C722.18 63.3667 722.093 62.66 722.093 61.9C722.093 61.22 722.187 60.56 722.373 59.92C722.56 59.28 722.84 58.7133 723.213 58.22C723.587 57.7267 724.053 57.3333 724.613 57.04C725.173 56.7333 725.827 56.58 726.573 56.58C727.413 56.58 728.107 56.74 728.653 57.06C729.2 57.3667 729.633 57.78 729.953 58.3C730.287 58.8067 730.52 59.3933 730.653 60.06C730.787 60.7267 730.853 61.42 730.853 62.14C730.853 62.26 730.8 62.32 730.693 62.32ZM726.673 58.02C726.26 58.02 725.893 58.1 725.573 58.26C725.267 58.42 725 58.6333 724.773 58.9C724.547 59.1667 724.367 59.4733 724.233 59.82C724.1 60.1533 724.007 60.5067 723.953 60.88H729.033C729.007 60.52 728.947 60.1667 728.853 59.82C728.76 59.4733 728.62 59.1667 728.433 58.9C728.247 58.6333 728.007 58.42 727.713 58.26C727.433 58.1 727.087 58.02 726.673 58.02ZM738.104 58.18L737.924 58.36C737.884 58.36 737.837 58.36 737.784 58.36C737.731 58.3467 737.677 58.34 737.624 58.34C737.531 58.3267 737.437 58.32 737.344 58.32C737.264 58.3067 737.184 58.3 737.104 58.3C736.691 58.3 736.337 58.4267 736.044 58.68C735.764 58.9333 735.537 59.2467 735.364 59.62C735.191 59.98 735.064 60.38 734.984 60.82C734.904 61.2467 734.864 61.64 734.864 62V66.82C734.864 66.94 734.804 67 734.684 67H733.384C733.277 67 733.224 66.94 733.224 66.82V56.98C733.224 56.8733 733.277 56.82 733.384 56.82H734.564C734.671 56.82 734.724 56.8733 734.724 56.98V58.32C734.964 57.84 735.284 57.4333 735.684 57.1C736.084 56.7533 736.577 56.58 737.164 56.58C737.271 56.58 737.364 56.5867 737.444 56.6C737.524 56.6 737.604 56.6067 737.684 56.62C737.817 56.6467 737.897 56.66 737.924 56.66C738.044 56.66 738.104 56.72 738.104 56.84V58.18ZM747.627 62.32H740.847C740.874 62.7867 740.934 63.2267 741.027 63.64C741.134 64.0533 741.287 64.42 741.487 64.74C741.7 65.0467 741.974 65.2933 742.307 65.48C742.654 65.6667 743.087 65.76 743.607 65.76C743.874 65.76 744.087 65.76 744.247 65.76C744.42 65.7467 744.607 65.7267 744.807 65.7C745.007 65.6733 745.254 65.6267 745.547 65.56C745.84 65.48 746.247 65.38 746.767 65.26C746.794 65.2467 746.827 65.2533 746.867 65.28C746.92 65.3067 746.954 65.34 746.967 65.38L747.287 66.26C747.314 66.38 747.274 66.46 747.167 66.5C746.607 66.6867 746.167 66.8267 745.847 66.92C745.527 67.0133 745.254 67.08 745.027 67.12C744.814 67.1733 744.614 67.2 744.427 67.2C744.24 67.2133 743.994 67.22 743.687 67.22C742.874 67.22 742.174 67.0867 741.587 66.82C741 66.54 740.514 66.1667 740.127 65.7C739.754 65.22 739.474 64.66 739.287 64.02C739.114 63.3667 739.027 62.66 739.027 61.9C739.027 61.22 739.12 60.56 739.307 59.92C739.494 59.28 739.774 58.7133 740.147 58.22C740.52 57.7267 740.987 57.3333 741.547 57.04C742.107 56.7333 742.76 56.58 743.507 56.58C744.347 56.58 745.04 56.74 745.587 57.06C746.134 57.3667 746.567 57.78 746.887 58.3C747.22 58.8067 747.454 59.3933 747.587 60.06C747.72 60.7267 747.787 61.42 747.787 62.14C747.787 62.26 747.734 62.32 747.627 62.32ZM743.607 58.02C743.194 58.02 742.827 58.1 742.507 58.26C742.2 58.42 741.934 58.6333 741.707 58.9C741.48 59.1667 741.3 59.4733 741.167 59.82C741.034 60.1533 740.94 60.5067 740.887 60.88H745.967C745.94 60.52 745.88 60.1667 745.787 59.82C745.694 59.4733 745.554 59.1667 745.367 58.9C745.18 58.6333 744.94 58.42 744.647 58.26C744.367 58.1 744.02 58.02 743.607 58.02ZM751.43 65.52C751.43 65.8533 751.377 66.2267 751.27 66.64C751.177 67.04 751.05 67.4467 750.89 67.86C750.73 68.2733 750.55 68.66 750.35 69.02C750.164 69.3933 749.97 69.7 749.77 69.94C749.717 70.0333 749.65 70.04 749.57 69.96L748.89 69.44C748.81 69.3867 748.784 69.3267 748.81 69.26C748.97 68.5667 749.104 67.8533 749.21 67.12C749.33 66.4 749.39 65.6867 749.39 64.98C749.39 64.8733 749.444 64.82 749.55 64.82H751.25C751.357 64.82 751.41 64.8667 751.41 64.96C751.424 65.0533 751.43 65.1467 751.43 65.24C751.43 65.32 751.43 65.4133 751.43 65.52ZM767.993 67H766.673C766.567 67 766.513 66.94 766.513 66.82L766.453 65.66C765.68 66.7133 764.64 67.24 763.333 67.24C762.853 67.24 762.4 67.1733 761.973 67.04C761.547 66.92 761.167 66.7333 760.833 66.48C760.513 66.2133 760.26 65.8867 760.073 65.5C759.887 65.1 759.793 64.64 759.793 64.12C759.793 63.28 759.993 62.6267 760.393 62.16C760.807 61.6933 761.32 61.3533 761.933 61.14C762.547 60.9133 763.213 60.7733 763.933 60.72C764.653 60.6667 765.32 60.6333 765.933 60.62C766 60.62 766.067 60.62 766.133 60.62C766.2 60.62 766.273 60.6133 766.353 60.6V60.12C766.353 59.4 766.167 58.8733 765.793 58.54C765.42 58.1933 764.887 58.02 764.193 58.02C763.913 58.02 763.687 58.0267 763.513 58.04C763.353 58.04 763.173 58.0533 762.973 58.08C762.773 58.1067 762.527 58.16 762.233 58.24C761.953 58.3067 761.553 58.4 761.033 58.52C760.993 58.5333 760.947 58.5267 760.893 58.5C760.853 58.4733 760.833 58.4467 760.833 58.42L760.533 57.52C760.48 57.3867 760.507 57.3067 760.613 57.28C761.227 57.1067 761.707 56.9733 762.053 56.88C762.4 56.7867 762.687 56.72 762.913 56.68C763.14 56.6267 763.347 56.6 763.533 56.6C763.72 56.5867 763.967 56.58 764.273 56.58C765.5 56.58 766.427 56.8667 767.053 57.44C767.68 58 767.993 58.9133 767.993 60.18V65.22C767.993 65.3267 767.993 65.4533 767.993 65.6C768.007 65.7333 768.013 65.88 768.013 66.04C768.027 66.1867 768.04 66.3267 768.053 66.46C768.08 66.58 768.107 66.68 768.133 66.76C768.16 66.8267 768.16 66.8867 768.133 66.94C768.107 66.98 768.06 67 767.993 67ZM766.333 62.68L766.353 62.02H765.293C764.933 62.02 764.54 62.0467 764.113 62.1C763.687 62.14 763.287 62.24 762.913 62.4C762.54 62.5467 762.227 62.76 761.973 63.04C761.72 63.3067 761.593 63.6667 761.593 64.12C761.593 64.7067 761.78 65.1267 762.153 65.38C762.527 65.6333 762.987 65.76 763.533 65.76C763.96 65.76 764.347 65.68 764.693 65.52C765.04 65.36 765.333 65.14 765.573 64.86C765.813 64.58 766 64.2533 766.133 63.88C766.267 63.5067 766.333 63.1067 766.333 62.68ZM777.956 67H776.616C776.51 67 776.456 66.94 776.456 66.82V60.36C776.456 60.0533 776.416 59.7667 776.336 59.5C776.256 59.22 776.13 58.9733 775.956 58.76C775.796 58.5467 775.59 58.38 775.336 58.26C775.096 58.14 774.816 58.08 774.496 58.08C774.043 58.08 773.643 58.1733 773.296 58.36C772.963 58.5467 772.683 58.7933 772.456 59.1C772.243 59.3933 772.083 59.74 771.976 60.14C771.87 60.5267 771.816 60.9267 771.816 61.34V66.82C771.816 66.94 771.756 67 771.636 67H770.296C770.19 67 770.136 66.94 770.136 66.82V56.98C770.136 56.8733 770.19 56.82 770.296 56.82H771.556C771.663 56.82 771.716 56.8733 771.716 56.98V58.2C772.063 57.68 772.47 57.28 772.936 57C773.416 56.72 773.996 56.58 774.676 56.58C775.29 56.58 775.81 56.68 776.236 56.88C776.676 57.0667 777.036 57.3333 777.316 57.68C777.596 58.0267 777.803 58.44 777.936 58.92C778.07 59.4 778.136 59.9267 778.136 60.5V66.82C778.136 66.94 778.076 67 777.956 67ZM788.688 67H787.388C787.281 67 787.228 66.94 787.228 66.82V65.72C786.881 66.1867 786.474 66.5533 786.008 66.82C785.541 67.0867 785.001 67.22 784.388 67.22C783.614 67.22 782.954 67.0667 782.408 66.76C781.874 66.4533 781.434 66.0533 781.088 65.56C780.754 65.0533 780.508 64.48 780.348 63.84C780.201 63.1867 780.128 62.5133 780.128 61.82C780.128 61.14 780.201 60.48 780.348 59.84C780.508 59.2 780.754 58.6333 781.088 58.14C781.434 57.6333 781.874 57.2333 782.408 56.94C782.941 56.6333 783.594 56.48 784.368 56.48C784.968 56.48 785.494 56.6 785.948 56.84C786.401 57.08 786.801 57.4267 787.148 57.88V52.8C787.148 52.68 787.201 52.62 787.308 52.62H788.668C788.708 52.62 788.748 52.64 788.788 52.68C788.828 52.7067 788.848 52.7467 788.848 52.8V66.82C788.848 66.94 788.794 67 788.688 67ZM787.128 62.26L787.148 61.4C787.148 60.9733 787.094 60.5533 786.988 60.14C786.894 59.7267 786.741 59.36 786.528 59.04C786.314 58.72 786.034 58.46 785.688 58.26C785.354 58.06 784.954 57.96 784.488 57.96C784.008 57.96 783.601 58.08 783.268 58.32C782.948 58.56 782.688 58.8667 782.488 59.24C782.288 59.6 782.148 60 782.068 60.44C781.988 60.88 781.948 61.3067 781.948 61.72C781.948 62.1467 781.981 62.6 782.048 63.08C782.114 63.5467 782.241 63.98 782.428 64.38C782.614 64.7667 782.868 65.0867 783.188 65.34C783.521 65.5933 783.948 65.72 784.468 65.72C784.921 65.72 785.314 65.62 785.648 65.42C785.981 65.2067 786.254 64.9333 786.468 64.6C786.694 64.2667 786.861 63.8933 786.968 63.48C787.074 63.0667 787.128 62.66 787.128 62.26ZM594.2 91H592.62C592.527 91 592.48 90.94 592.48 90.82V77.34C592.48 77.22 592.527 77.16 592.62 77.16H594.2C594.293 77.16 594.34 77.22 594.34 77.34V90.82C594.34 90.94 594.293 91 594.2 91ZM597.922 80.08C597.922 80.32 597.909 80.5667 597.882 80.82C597.856 81.0733 597.829 81.3267 597.802 81.58C597.776 81.7133 597.756 81.84 597.742 81.96C597.729 82.08 597.716 82.2 597.702 82.32C597.702 82.4133 597.656 82.46 597.562 82.46H596.722C596.642 82.46 596.589 82.4133 596.562 82.32C596.562 82.2 596.556 82.08 596.542 81.96C596.529 81.84 596.516 81.7133 596.502 81.58C596.476 81.3267 596.442 81.0733 596.402 80.82C596.362 80.5667 596.342 80.3133 596.342 80.06V77.98C596.342 77.8733 596.396 77.82 596.502 77.82H597.762C597.869 77.82 597.922 77.8733 597.922 77.98V80.08ZM603.023 91H601.623C601.53 91 601.483 90.94 601.483 90.82V76.8C601.483 76.68 601.53 76.62 601.623 76.62H603.023C603.13 76.62 603.183 76.68 603.183 76.8V90.82C603.183 90.94 603.13 91 603.023 91ZM606.734 91H605.334C605.241 91 605.194 90.94 605.194 90.82V76.8C605.194 76.68 605.241 76.62 605.334 76.62H606.734C606.841 76.62 606.894 76.68 606.894 76.8V90.82C606.894 90.94 606.841 91 606.734 91ZM620.405 90.84L620.245 91.02C620.205 91.02 620.172 91.0267 620.145 91.04H620.185C619.958 91.0933 619.732 91.1333 619.505 91.16C619.292 91.2 619.052 91.22 618.785 91.22C618.265 91.22 617.832 91.14 617.485 90.98C617.152 90.82 616.892 90.5933 616.705 90.3C616.518 90.0067 616.385 89.66 616.305 89.26C616.238 88.86 616.205 88.42 616.205 87.94V82.18H614.585C614.452 82.18 614.385 82.12 614.385 82V80.88C614.385 80.76 614.445 80.7 614.565 80.7H616.185V78.44C616.185 78.3467 616.232 78.2867 616.325 78.26L617.645 77.98C617.778 77.9533 617.845 78.0067 617.845 78.14V80.7H619.845C619.978 80.7 620.045 80.76 620.045 80.88V82C620.045 82.12 619.985 82.18 619.865 82.18H617.845V88.26C617.845 88.66 617.925 89.0067 618.085 89.3C618.258 89.5933 618.558 89.74 618.985 89.74C619.198 89.74 619.452 89.7067 619.745 89.64C619.812 89.6267 619.878 89.6133 619.945 89.6C620.025 89.5867 620.098 89.5733 620.165 89.56C620.285 89.5467 620.345 89.6067 620.345 89.74L620.405 90.84ZM629.888 91H628.568C628.461 91 628.408 90.94 628.408 90.82L628.348 89.66C627.575 90.7133 626.535 91.24 625.228 91.24C624.748 91.24 624.295 91.1733 623.868 91.04C623.441 90.92 623.061 90.7333 622.728 90.48C622.408 90.2133 622.155 89.8867 621.968 89.5C621.781 89.1 621.688 88.64 621.688 88.12C621.688 87.28 621.888 86.6267 622.288 86.16C622.701 85.6933 623.215 85.3533 623.828 85.14C624.441 84.9133 625.108 84.7733 625.828 84.72C626.548 84.6667 627.215 84.6333 627.828 84.62C627.895 84.62 627.961 84.62 628.028 84.62C628.095 84.62 628.168 84.6133 628.248 84.6V84.12C628.248 83.4 628.061 82.8733 627.688 82.54C627.315 82.1933 626.781 82.02 626.088 82.02C625.808 82.02 625.581 82.0267 625.408 82.04C625.248 82.04 625.068 82.0533 624.868 82.08C624.668 82.1067 624.421 82.16 624.128 82.24C623.848 82.3067 623.448 82.4 622.928 82.52C622.888 82.5333 622.841 82.5267 622.788 82.5C622.748 82.4733 622.728 82.4467 622.728 82.42L622.428 81.52C622.375 81.3867 622.401 81.3067 622.508 81.28C623.121 81.1067 623.601 80.9733 623.948 80.88C624.295 80.7867 624.581 80.72 624.808 80.68C625.035 80.6267 625.241 80.6 625.428 80.6C625.615 80.5867 625.861 80.58 626.168 80.58C627.395 80.58 628.321 80.8667 628.948 81.44C629.575 82 629.888 82.9133 629.888 84.18V89.22C629.888 89.3267 629.888 89.4533 629.888 89.6C629.901 89.7333 629.908 89.88 629.908 90.04C629.921 90.1867 629.935 90.3267 629.948 90.46C629.975 90.58 630.001 90.68 630.028 90.76C630.055 90.8267 630.055 90.8867 630.028 90.94C630.001 90.98 629.955 91 629.888 91ZM628.228 86.68L628.248 86.02H627.188C626.828 86.02 626.435 86.0467 626.008 86.1C625.581 86.14 625.181 86.24 624.808 86.4C624.435 86.5467 624.121 86.76 623.868 87.04C623.615 87.3067 623.488 87.6667 623.488 88.12C623.488 88.7067 623.675 89.1267 624.048 89.38C624.421 89.6333 624.881 89.76 625.428 89.76C625.855 89.76 626.241 89.68 626.588 89.52C626.935 89.36 627.228 89.14 627.468 88.86C627.708 88.58 627.895 88.2533 628.028 87.88C628.161 87.5067 628.228 87.1067 628.228 86.68ZM639.999 91H638.379C638.312 91 638.265 90.9733 638.239 90.92L634.599 85.94L633.659 86.8C633.659 87 633.659 87.2 633.659 87.4C633.672 87.5867 633.679 87.78 633.679 87.98C633.679 88.1533 633.679 88.3267 633.679 88.5C633.692 88.6733 633.699 88.8467 633.699 89.02C633.699 89.66 633.679 90.2667 633.639 90.84C633.639 90.9467 633.579 91 633.459 91H632.139C632.032 91 631.979 90.94 631.979 90.82V76.8C631.979 76.68 632.032 76.62 632.139 76.62H633.479C633.599 76.62 633.659 76.68 633.659 76.8V85.02L637.839 80.78C637.879 80.74 637.919 80.72 637.959 80.72H639.539C639.632 80.72 639.692 80.7533 639.719 80.82C639.745 80.8867 639.725 80.9533 639.659 81.02L635.799 84.88L640.139 90.72C640.192 90.7867 640.199 90.8533 640.159 90.92C640.132 90.9733 640.079 91 639.999 91ZM649.072 86.32H642.292C642.319 86.7867 642.379 87.2267 642.472 87.64C642.579 88.0533 642.732 88.42 642.932 88.74C643.146 89.0467 643.419 89.2933 643.752 89.48C644.099 89.6667 644.532 89.76 645.052 89.76C645.319 89.76 645.532 89.76 645.692 89.76C645.866 89.7467 646.052 89.7267 646.252 89.7C646.452 89.6733 646.699 89.6267 646.992 89.56C647.286 89.48 647.692 89.38 648.212 89.26C648.239 89.2467 648.272 89.2533 648.312 89.28C648.366 89.3067 648.399 89.34 648.412 89.38L648.732 90.26C648.759 90.38 648.719 90.46 648.612 90.5C648.052 90.6867 647.612 90.8267 647.292 90.92C646.972 91.0133 646.699 91.08 646.472 91.12C646.259 91.1733 646.059 91.2 645.872 91.2C645.686 91.2133 645.439 91.22 645.132 91.22C644.319 91.22 643.619 91.0867 643.032 90.82C642.446 90.54 641.959 90.1667 641.572 89.7C641.199 89.22 640.919 88.66 640.732 88.02C640.559 87.3667 640.472 86.66 640.472 85.9C640.472 85.22 640.566 84.56 640.752 83.92C640.939 83.28 641.219 82.7133 641.592 82.22C641.966 81.7267 642.432 81.3333 642.992 81.04C643.552 80.7333 644.206 80.58 644.952 80.58C645.792 80.58 646.486 80.74 647.032 81.06C647.579 81.3667 648.012 81.78 648.332 82.3C648.666 82.8067 648.899 83.3933 649.032 84.06C649.166 84.7267 649.232 85.42 649.232 86.14C649.232 86.26 649.179 86.32 649.072 86.32ZM645.052 82.02C644.639 82.02 644.272 82.1 643.952 82.26C643.646 82.42 643.379 82.6333 643.152 82.9C642.926 83.1667 642.746 83.4733 642.612 83.82C642.479 84.1533 642.386 84.5067 642.332 84.88H647.412C647.386 84.52 647.326 84.1667 647.232 83.82C647.139 83.4733 646.999 83.1667 646.812 82.9C646.626 82.6333 646.386 82.42 646.092 82.26C645.812 82.1 645.466 82.02 645.052 82.02ZM664.565 90.26L664.465 90.5C663.891 90.6867 663.445 90.8267 663.125 90.92C662.805 91.0133 662.531 91.08 662.305 91.12C662.091 91.1733 661.885 91.2 661.685 91.2C661.498 91.2133 661.251 91.22 660.945 91.22C660.158 91.22 659.471 91.08 658.885 90.8C658.311 90.52 657.831 90.14 657.445 89.66C657.058 89.18 656.765 88.62 656.565 87.98C656.378 87.3267 656.285 86.6333 656.285 85.9C656.285 85.1667 656.385 84.48 656.585 83.84C656.785 83.1867 657.078 82.62 657.465 82.14C657.865 81.66 658.358 81.28 658.945 81C659.531 80.72 660.218 80.58 661.005 80.58C661.351 80.58 661.625 80.5867 661.825 80.6C662.025 80.6 662.218 80.6267 662.405 80.68C662.591 80.72 662.791 80.7867 663.005 80.88C663.231 80.9733 663.538 81.1067 663.925 81.28C664.045 81.3333 664.078 81.4067 664.025 81.5L663.665 82.42C663.638 82.4467 663.605 82.4733 663.565 82.5C663.525 82.5267 663.491 82.5333 663.465 82.52C663.078 82.4133 662.778 82.3333 662.565 82.28C662.351 82.2133 662.171 82.1667 662.025 82.14C661.878 82.1133 661.738 82.1 661.605 82.1C661.471 82.0867 661.298 82.08 661.085 82.08C660.565 82.08 660.118 82.1867 659.745 82.4C659.371 82.6133 659.065 82.9 658.825 83.26C658.585 83.6067 658.405 84.0067 658.285 84.46C658.165 84.9133 658.105 85.3733 658.105 85.84C658.105 86.32 658.145 86.7933 658.225 87.26C658.318 87.7267 658.471 88.1467 658.685 88.52C658.898 88.8933 659.185 89.1933 659.545 89.42C659.905 89.6467 660.351 89.76 660.885 89.76C661.165 89.76 661.385 89.76 661.545 89.76C661.718 89.7467 661.905 89.7267 662.105 89.7C662.305 89.6733 662.545 89.6267 662.825 89.56C663.118 89.48 663.525 89.38 664.045 89.26C664.151 89.2333 664.218 89.2733 664.245 89.38L664.565 90.26ZM674.263 91H672.943C672.836 91 672.783 90.94 672.783 90.82L672.723 89.66C671.95 90.7133 670.91 91.24 669.603 91.24C669.123 91.24 668.67 91.1733 668.243 91.04C667.816 90.92 667.436 90.7333 667.103 90.48C666.783 90.2133 666.53 89.8867 666.343 89.5C666.156 89.1 666.063 88.64 666.063 88.12C666.063 87.28 666.263 86.6267 666.663 86.16C667.076 85.6933 667.59 85.3533 668.203 85.14C668.816 84.9133 669.483 84.7733 670.203 84.72C670.923 84.6667 671.59 84.6333 672.203 84.62C672.27 84.62 672.336 84.62 672.403 84.62C672.47 84.62 672.543 84.6133 672.623 84.6V84.12C672.623 83.4 672.436 82.8733 672.063 82.54C671.69 82.1933 671.156 82.02 670.463 82.02C670.183 82.02 669.956 82.0267 669.783 82.04C669.623 82.04 669.443 82.0533 669.243 82.08C669.043 82.1067 668.796 82.16 668.503 82.24C668.223 82.3067 667.823 82.4 667.303 82.52C667.263 82.5333 667.216 82.5267 667.163 82.5C667.123 82.4733 667.103 82.4467 667.103 82.42L666.803 81.52C666.75 81.3867 666.776 81.3067 666.883 81.28C667.496 81.1067 667.976 80.9733 668.323 80.88C668.67 80.7867 668.956 80.72 669.183 80.68C669.41 80.6267 669.616 80.6 669.803 80.6C669.99 80.5867 670.236 80.58 670.543 80.58C671.77 80.58 672.696 80.8667 673.323 81.44C673.95 82 674.263 82.9133 674.263 84.18V89.22C674.263 89.3267 674.263 89.4533 674.263 89.6C674.276 89.7333 674.283 89.88 674.283 90.04C674.296 90.1867 674.31 90.3267 674.323 90.46C674.35 90.58 674.376 90.68 674.403 90.76C674.43 90.8267 674.43 90.8867 674.403 90.94C674.376 90.98 674.33 91 674.263 91ZM672.603 86.68L672.623 86.02H671.563C671.203 86.02 670.81 86.0467 670.383 86.1C669.956 86.14 669.556 86.24 669.183 86.4C668.81 86.5467 668.496 86.76 668.243 87.04C667.99 87.3067 667.863 87.6667 667.863 88.12C667.863 88.7067 668.05 89.1267 668.423 89.38C668.796 89.6333 669.256 89.76 669.803 89.76C670.23 89.76 670.616 89.68 670.963 89.52C671.31 89.36 671.603 89.14 671.843 88.86C672.083 88.58 672.27 88.2533 672.403 87.88C672.536 87.5067 672.603 87.1067 672.603 86.68ZM681.288 82.18L681.108 82.36C681.068 82.36 681.021 82.36 680.968 82.36C680.914 82.3467 680.861 82.34 680.808 82.34C680.714 82.3267 680.621 82.32 680.528 82.32C680.448 82.3067 680.368 82.3 680.288 82.3C679.874 82.3 679.521 82.4267 679.228 82.68C678.948 82.9333 678.721 83.2467 678.548 83.62C678.374 83.98 678.248 84.38 678.168 84.82C678.088 85.2467 678.048 85.64 678.048 86V90.82C678.048 90.94 677.988 91 677.868 91H676.568C676.461 91 676.408 90.94 676.408 90.82V80.98C676.408 80.8733 676.461 80.82 676.568 80.82H677.748C677.854 80.82 677.908 80.8733 677.908 80.98V82.32C678.148 81.84 678.468 81.4333 678.868 81.1C679.268 80.7533 679.761 80.58 680.348 80.58C680.454 80.58 680.548 80.5867 680.628 80.6C680.708 80.6 680.788 80.6067 680.868 80.62C681.001 80.6467 681.081 80.66 681.108 80.66C681.228 80.66 681.288 80.72 681.288 80.84V82.18ZM690.811 86.32H684.031C684.057 86.7867 684.117 87.2267 684.211 87.64C684.317 88.0533 684.471 88.42 684.671 88.74C684.884 89.0467 685.157 89.2933 685.491 89.48C685.837 89.6667 686.271 89.76 686.791 89.76C687.057 89.76 687.271 89.76 687.431 89.76C687.604 89.7467 687.791 89.7267 687.991 89.7C688.191 89.6733 688.437 89.6267 688.731 89.56C689.024 89.48 689.431 89.38 689.951 89.26C689.977 89.2467 690.011 89.2533 690.051 89.28C690.104 89.3067 690.137 89.34 690.151 89.38L690.471 90.26C690.497 90.38 690.457 90.46 690.351 90.5C689.791 90.6867 689.351 90.8267 689.031 90.92C688.711 91.0133 688.437 91.08 688.211 91.12C687.997 91.1733 687.797 91.2 687.611 91.2C687.424 91.2133 687.177 91.22 686.871 91.22C686.057 91.22 685.357 91.0867 684.771 90.82C684.184 90.54 683.697 90.1667 683.311 89.7C682.937 89.22 682.657 88.66 682.471 88.02C682.297 87.3667 682.211 86.66 682.211 85.9C682.211 85.22 682.304 84.56 682.491 83.92C682.677 83.28 682.957 82.7133 683.331 82.22C683.704 81.7267 684.171 81.3333 684.731 81.04C685.291 80.7333 685.944 80.58 686.691 80.58C687.531 80.58 688.224 80.74 688.771 81.06C689.317 81.3667 689.751 81.78 690.071 82.3C690.404 82.8067 690.637 83.3933 690.771 84.06C690.904 84.7267 690.971 85.42 690.971 86.14C690.971 86.26 690.917 86.32 690.811 86.32ZM686.791 82.02C686.377 82.02 686.011 82.1 685.691 82.26C685.384 82.42 685.117 82.6333 684.891 82.9C684.664 83.1667 684.484 83.4733 684.351 83.82C684.217 84.1533 684.124 84.5067 684.071 84.88H689.151C689.124 84.52 689.064 84.1667 688.971 83.82C688.877 83.4733 688.737 83.1667 688.551 82.9C688.364 82.6333 688.124 82.42 687.831 82.26C687.551 82.1 687.204 82.02 686.791 82.02ZM707.703 85.9C707.703 86.62 707.603 87.3067 707.403 87.96C707.216 88.6 706.923 89.1667 706.523 89.66C706.136 90.14 705.65 90.52 705.063 90.8C704.476 91.08 703.796 91.22 703.023 91.22C702.25 91.22 701.57 91.08 700.983 90.8C700.396 90.5067 699.91 90.12 699.523 89.64C699.136 89.16 698.843 88.6 698.643 87.96C698.443 87.3067 698.343 86.62 698.343 85.9C698.343 85.1667 698.436 84.48 698.623 83.84C698.823 83.1867 699.116 82.62 699.503 82.14C699.89 81.66 700.37 81.28 700.943 81C701.53 80.72 702.216 80.58 703.003 80.58C703.776 80.58 704.456 80.7267 705.043 81.02C705.643 81.3 706.136 81.68 706.523 82.16C706.91 82.64 707.203 83.2067 707.403 83.86C707.603 84.5 707.703 85.18 707.703 85.9ZM705.843 85.9H705.863C705.863 85.4467 705.81 84.9933 705.703 84.54C705.61 84.0733 705.45 83.66 705.223 83.3C704.996 82.9267 704.703 82.6267 704.343 82.4C703.983 82.1733 703.543 82.06 703.023 82.06C702.503 82.06 702.063 82.1733 701.703 82.4C701.343 82.6267 701.043 82.92 700.803 83.28C700.576 83.64 700.41 84.0533 700.303 84.52C700.21 84.9733 700.163 85.4333 700.163 85.9C700.163 86.3667 700.21 86.8267 700.303 87.28C700.41 87.7333 700.576 88.14 700.803 88.5C701.03 88.86 701.323 89.1533 701.683 89.38C702.043 89.6067 702.483 89.72 703.003 89.72C703.523 89.72 703.963 89.6067 704.323 89.38C704.696 89.1533 704.99 88.86 705.203 88.5C705.43 88.14 705.59 87.7333 705.683 87.28C705.79 86.8267 705.843 86.3667 705.843 85.9ZM714.74 76.76L714.68 77.88C714.68 77.9467 714.66 78 714.62 78.04C714.58 78.08 714.527 78.0867 714.46 78.06C714.26 77.9933 714.093 77.9467 713.96 77.92C713.827 77.88 713.667 77.86 713.48 77.86C713.16 77.86 712.907 77.9267 712.72 78.06C712.547 78.18 712.413 78.34 712.32 78.54C712.227 78.74 712.167 78.9733 712.14 79.24C712.113 79.4933 712.1 79.7533 712.1 80.02V80.72H714.14C714.247 80.72 714.3 80.7733 714.3 80.88V82.02C714.3 82.14 714.247 82.2 714.14 82.2H712.1V90.82C712.1 90.94 712.04 91 711.92 91H710.6C710.493 91 710.44 90.94 710.44 90.82V82.2H708.78C708.66 82.2 708.6 82.14 708.6 82.02V80.88C708.6 80.7733 708.66 80.72 708.78 80.72H710.44C710.44 80.2133 710.46 79.7 710.5 79.18C710.54 78.66 710.647 78.1933 710.82 77.78C710.993 77.3667 711.26 77.0333 711.62 76.78C711.993 76.5133 712.513 76.38 713.18 76.38C713.713 76.38 714.2 76.4467 714.64 76.58C714.707 76.6067 714.74 76.6667 714.74 76.76ZM726.889 90.84L726.729 91.02C726.689 91.02 726.656 91.0267 726.629 91.04H726.669C726.443 91.0933 726.216 91.1333 725.989 91.16C725.776 91.2 725.536 91.22 725.269 91.22C724.749 91.22 724.316 91.14 723.969 90.98C723.636 90.82 723.376 90.5933 723.189 90.3C723.003 90.0067 722.869 89.66 722.789 89.26C722.723 88.86 722.689 88.42 722.689 87.94V82.18H721.069C720.936 82.18 720.869 82.12 720.869 82V80.88C720.869 80.76 720.929 80.7 721.049 80.7H722.669V78.44C722.669 78.3467 722.716 78.2867 722.809 78.26L724.129 77.98C724.263 77.9533 724.329 78.0067 724.329 78.14V80.7H726.329C726.463 80.7 726.529 80.76 726.529 80.88V82C726.529 82.12 726.469 82.18 726.349 82.18H724.329V88.26C724.329 88.66 724.409 89.0067 724.569 89.3C724.743 89.5933 725.043 89.74 725.469 89.74C725.683 89.74 725.936 89.7067 726.229 89.64C726.296 89.6267 726.363 89.6133 726.429 89.6C726.509 89.5867 726.583 89.5733 726.649 89.56C726.769 89.5467 726.829 89.6067 726.829 89.74L726.889 90.84ZM736.432 91H735.092C734.986 91 734.932 90.94 734.932 90.82V84.3C734.932 83.9933 734.892 83.7 734.812 83.42C734.746 83.14 734.632 82.9 734.472 82.7C734.312 82.4867 734.112 82.32 733.872 82.2C733.632 82.0667 733.346 82 733.012 82C732.559 82 732.166 82.0933 731.832 82.28C731.499 82.4533 731.219 82.6933 730.992 83C730.779 83.3067 730.619 83.66 730.512 84.06C730.406 84.4467 730.352 84.8533 730.352 85.28V90.82C730.352 90.94 730.292 91 730.172 91H728.832C728.792 91 728.752 90.9867 728.712 90.96C728.672 90.92 728.652 90.8733 728.652 90.82V76.8C728.652 76.68 728.706 76.62 728.812 76.62H730.152C730.272 76.62 730.332 76.68 730.332 76.8V82.06C730.639 81.5533 731.012 81.1667 731.452 80.9C731.906 80.62 732.472 80.48 733.152 80.48C733.752 80.48 734.272 80.58 734.712 80.78C735.152 80.98 735.512 81.2533 735.792 81.6C736.072 81.9467 736.279 82.3667 736.412 82.86C736.546 83.34 736.612 83.8667 736.612 84.44V90.82C736.612 90.94 736.552 91 736.432 91ZM747.529 86.32H740.749C740.776 86.7867 740.836 87.2267 740.929 87.64C741.036 88.0533 741.189 88.42 741.389 88.74C741.603 89.0467 741.876 89.2933 742.209 89.48C742.556 89.6667 742.989 89.76 743.509 89.76C743.776 89.76 743.989 89.76 744.149 89.76C744.323 89.7467 744.509 89.7267 744.709 89.7C744.909 89.6733 745.156 89.6267 745.449 89.56C745.743 89.48 746.149 89.38 746.669 89.26C746.696 89.2467 746.729 89.2533 746.769 89.28C746.823 89.3067 746.856 89.34 746.869 89.38L747.189 90.26C747.216 90.38 747.176 90.46 747.069 90.5C746.509 90.6867 746.069 90.8267 745.749 90.92C745.429 91.0133 745.156 91.08 744.929 91.12C744.716 91.1733 744.516 91.2 744.329 91.2C744.143 91.2133 743.896 91.22 743.589 91.22C742.776 91.22 742.076 91.0867 741.489 90.82C740.903 90.54 740.416 90.1667 740.029 89.7C739.656 89.22 739.376 88.66 739.189 88.02C739.016 87.3667 738.929 86.66 738.929 85.9C738.929 85.22 739.023 84.56 739.209 83.92C739.396 83.28 739.676 82.7133 740.049 82.22C740.423 81.7267 740.889 81.3333 741.449 81.04C742.009 80.7333 742.663 80.58 743.409 80.58C744.249 80.58 744.943 80.74 745.489 81.06C746.036 81.3667 746.469 81.78 746.789 82.3C747.123 82.8067 747.356 83.3933 747.489 84.06C747.623 84.7267 747.689 85.42 747.689 86.14C747.689 86.26 747.636 86.32 747.529 86.32ZM743.509 82.02C743.096 82.02 742.729 82.1 742.409 82.26C742.103 82.42 741.836 82.6333 741.609 82.9C741.383 83.1667 741.203 83.4733 741.069 83.82C740.936 84.1533 740.843 84.5067 740.789 84.88H745.869C745.843 84.52 745.783 84.1667 745.689 83.82C745.596 83.4733 745.456 83.1667 745.269 82.9C745.083 82.6333 744.843 82.42 744.549 82.26C744.269 82.1 743.923 82.02 743.509 82.02ZM760.702 82.18L760.522 82.36C760.482 82.36 760.435 82.36 760.382 82.36C760.328 82.3467 760.275 82.34 760.222 82.34C760.128 82.3267 760.035 82.32 759.942 82.32C759.862 82.3067 759.782 82.3 759.702 82.3C759.288 82.3 758.935 82.4267 758.642 82.68C758.362 82.9333 758.135 83.2467 757.962 83.62C757.788 83.98 757.662 84.38 757.582 84.82C757.502 85.2467 757.462 85.64 757.462 86V90.82C757.462 90.94 757.402 91 757.282 91H755.982C755.875 91 755.822 90.94 755.822 90.82V80.98C755.822 80.8733 755.875 80.82 755.982 80.82H757.162C757.268 80.82 757.322 80.8733 757.322 80.98V82.32C757.562 81.84 757.882 81.4333 758.282 81.1C758.682 80.7533 759.175 80.58 759.762 80.58C759.868 80.58 759.962 80.5867 760.042 80.6C760.122 80.6 760.202 80.6067 760.282 80.62C760.415 80.6467 760.495 80.66 760.522 80.66C760.642 80.66 760.702 80.72 760.702 80.84V82.18ZM770.225 86.32H763.445C763.471 86.7867 763.531 87.2267 763.625 87.64C763.731 88.0533 763.885 88.42 764.085 88.74C764.298 89.0467 764.571 89.2933 764.905 89.48C765.251 89.6667 765.685 89.76 766.205 89.76C766.471 89.76 766.685 89.76 766.845 89.76C767.018 89.7467 767.205 89.7267 767.405 89.7C767.605 89.6733 767.851 89.6267 768.145 89.56C768.438 89.48 768.845 89.38 769.365 89.26C769.391 89.2467 769.425 89.2533 769.465 89.28C769.518 89.3067 769.551 89.34 769.565 89.38L769.885 90.26C769.911 90.38 769.871 90.46 769.765 90.5C769.205 90.6867 768.765 90.8267 768.445 90.92C768.125 91.0133 767.851 91.08 767.625 91.12C767.411 91.1733 767.211 91.2 767.025 91.2C766.838 91.2133 766.591 91.22 766.285 91.22C765.471 91.22 764.771 91.0867 764.185 90.82C763.598 90.54 763.111 90.1667 762.725 89.7C762.351 89.22 762.071 88.66 761.885 88.02C761.711 87.3667 761.625 86.66 761.625 85.9C761.625 85.22 761.718 84.56 761.905 83.92C762.091 83.28 762.371 82.7133 762.745 82.22C763.118 81.7267 763.585 81.3333 764.145 81.04C764.705 80.7333 765.358 80.58 766.105 80.58C766.945 80.58 767.638 80.74 768.185 81.06C768.731 81.3667 769.165 81.78 769.485 82.3C769.818 82.8067 770.051 83.3933 770.185 84.06C770.318 84.7267 770.385 85.42 770.385 86.14C770.385 86.26 770.331 86.32 770.225 86.32ZM766.205 82.02C765.791 82.02 765.425 82.1 765.105 82.26C764.798 82.42 764.531 82.6333 764.305 82.9C764.078 83.1667 763.898 83.4733 763.765 83.82C763.631 84.1533 763.538 84.5067 763.485 84.88H768.565C768.538 84.52 768.478 84.1667 768.385 83.82C768.291 83.4733 768.151 83.1667 767.965 82.9C767.778 82.6333 767.538 82.42 767.245 82.26C766.965 82.1 766.618 82.02 766.205 82.02ZM779.495 88.1C779.495 88.66 779.375 89.14 779.135 89.54C778.909 89.94 778.609 90.2667 778.235 90.52C777.862 90.76 777.442 90.9333 776.975 91.04C776.509 91.16 776.042 91.22 775.575 91.22C775.269 91.22 775.022 91.2133 774.835 91.2C774.649 91.2 774.442 91.1733 774.215 91.12C774.002 91.08 773.735 91.0133 773.415 90.92C773.095 90.8267 772.649 90.6867 772.075 90.5C771.955 90.4467 771.915 90.3667 771.955 90.26L772.275 89.38C772.302 89.2733 772.369 89.2333 772.475 89.26C772.955 89.38 773.329 89.4733 773.595 89.54C773.875 89.5933 774.109 89.6333 774.295 89.66C774.482 89.6867 774.655 89.7067 774.815 89.72C774.975 89.72 775.189 89.72 775.455 89.72C775.682 89.72 775.929 89.6933 776.195 89.64C776.462 89.5867 776.709 89.5 776.935 89.38C777.162 89.26 777.349 89.1067 777.495 88.92C777.655 88.7333 777.735 88.5067 777.735 88.24C777.735 87.9733 777.669 87.7533 777.535 87.58C777.415 87.3933 777.249 87.24 777.035 87.12C776.822 86.9867 776.575 86.8733 776.295 86.78C776.015 86.6867 775.729 86.5933 775.435 86.5C775.049 86.38 774.669 86.2533 774.295 86.12C773.922 85.9733 773.582 85.7933 773.275 85.58C772.982 85.3533 772.742 85.0733 772.555 84.74C772.369 84.4067 772.275 83.9867 772.275 83.48C772.275 82.96 772.375 82.52 772.575 82.16C772.775 81.7867 773.042 81.4867 773.375 81.26C773.709 81.02 774.089 80.8467 774.515 80.74C774.942 80.6333 775.382 80.58 775.835 80.58C776.169 80.58 776.435 80.5867 776.635 80.6C776.849 80.6 777.049 80.6267 777.235 80.68C777.422 80.72 777.629 80.7867 777.855 80.88C778.095 80.9733 778.422 81.1067 778.835 81.28C778.942 81.3333 778.969 81.4067 778.915 81.5L778.575 82.42C778.522 82.5 778.455 82.5333 778.375 82.52C777.962 82.4 777.635 82.3133 777.395 82.26C777.169 82.1933 776.975 82.1467 776.815 82.12C776.655 82.0933 776.502 82.08 776.355 82.08C776.222 82.0667 776.049 82.06 775.835 82.06C775.609 82.06 775.382 82.08 775.155 82.12C774.929 82.16 774.729 82.2333 774.555 82.34C774.382 82.4333 774.242 82.5667 774.135 82.74C774.029 82.9133 773.975 83.1333 773.975 83.4C773.975 83.6133 774.035 83.8 774.155 83.96C774.275 84.1067 774.435 84.24 774.635 84.36C774.835 84.4667 775.062 84.5667 775.315 84.66C775.582 84.74 775.855 84.82 776.135 84.9C776.535 85.02 776.935 85.1533 777.335 85.3C777.735 85.4467 778.095 85.64 778.415 85.88C778.735 86.1067 778.995 86.4 779.195 86.76C779.395 87.1067 779.495 87.5533 779.495 88.1ZM786.538 90.84L786.378 91.02C786.338 91.02 786.304 91.0267 786.278 91.04H786.318C786.091 91.0933 785.864 91.1333 785.638 91.16C785.424 91.2 785.184 91.22 784.918 91.22C784.398 91.22 783.964 91.14 783.618 90.98C783.284 90.82 783.024 90.5933 782.838 90.3C782.651 90.0067 782.518 89.66 782.438 89.26C782.371 88.86 782.338 88.42 782.338 87.94V82.18H780.718C780.584 82.18 780.518 82.12 780.518 82V80.88C780.518 80.76 780.578 80.7 780.698 80.7H782.318V78.44C782.318 78.3467 782.364 78.2867 782.458 78.26L783.778 77.98C783.911 77.9533 783.978 78.0067 783.978 78.14V80.7H785.978C786.111 80.7 786.178 80.76 786.178 80.88V82C786.178 82.12 786.118 82.18 785.998 82.18H783.978V88.26C783.978 88.66 784.058 89.0067 784.218 89.3C784.391 89.5933 784.691 89.74 785.118 89.74C785.331 89.74 785.584 89.7067 785.878 89.64C785.944 89.6267 786.011 89.6133 786.078 89.6C786.158 89.5867 786.231 89.5733 786.298 89.56C786.418 89.5467 786.478 89.6067 786.478 89.74L786.538 90.84ZM790.261 77.14L790.401 77.32C790.361 79.0267 790.301 80.7333 790.221 82.44C790.141 84.1333 790.061 85.8333 789.981 87.54C789.981 87.6467 789.934 87.7 789.841 87.7H789.021C788.914 87.7 788.861 87.6467 788.861 87.54C788.781 85.8333 788.701 84.1333 788.621 82.44C788.541 80.7333 788.474 79.0267 788.421 77.32C788.421 77.2 788.474 77.14 788.581 77.14H790.261ZM790.181 91H788.681C788.641 91 788.601 90.9867 788.561 90.96C788.521 90.92 788.501 90.8733 788.501 90.82V89.08C788.501 88.96 788.554 88.9 788.661 88.9H790.181C790.221 88.9 790.261 88.92 790.301 88.96C790.341 88.9867 790.361 89.0267 790.361 89.08V90.82C790.361 90.94 790.301 91 790.181 91Z" fill="black"/>
</svg>
