<svg width="200" height="300" viewBox="0 0 200 300" fill="none" xmlns="http://www.w3.org/2000/svg">
<rect width="200" height="300" fill="#CA6977"/>
<path d="M171.231 140.132C175.121 128.411 175.879 115.876 173.429 103.772C167.297 73.1345 141.192 49.6486 110.068 46.8946C67.8084 43.1647 32.3545 76.3667 32.3545 117.85C32.3663 128.283 34.6828 138.584 39.1384 148.018C36.9082 157.321 34.3564 166.611 31.396 175.677C26.6627 190.095 21.0136 204.196 14.483 217.893C12.0355 217.93 9.59236 218.037 7.17747 218.293C5.69216 218.451 4.2612 218.642 2.88457 218.865C2.37873 218.95 1.92306 219.221 1.60752 219.625C1.29197 220.03 1.1395 220.538 1.18017 221.049C1.22084 221.56 1.45171 222.038 1.82721 222.387C2.20272 222.736 2.69555 222.932 3.20844 222.936C3.3184 222.937 3.42824 222.928 3.53666 222.91C4.33003 222.784 5.18209 222.693 6.01676 222.58C4.45636 223.349 2.94824 224.221 1.50215 225.188C1.27936 225.339 1.08854 225.533 0.940545 225.758C0.792555 225.982 0.690318 226.234 0.639656 226.499C0.588994 226.763 0.590901 227.035 0.645281 227.299C0.699661 227.562 0.805429 227.813 0.956571 228.035C1.10771 228.258 1.30127 228.449 1.52616 228.597C1.75106 228.745 2.00289 228.847 2.2673 228.898C2.53171 228.949 2.8035 228.947 3.06717 228.892C3.33084 228.838 3.58122 228.732 3.80401 228.581C5.43659 227.473 7.15737 226.501 8.94898 225.675C9.40544 225.457 9.89667 225.347 10.3618 225.158C9.24374 226.024 8.20433 226.988 7.25572 228.038C7.0776 228.239 6.94094 228.474 6.8535 228.728C6.76606 228.982 6.72956 229.252 6.74612 229.52C6.76267 229.788 6.83192 230.051 6.94995 230.293C7.06797 230.534 7.23245 230.75 7.43397 230.928C7.63549 231.107 7.87013 231.243 8.12448 231.331C8.37882 231.418 8.64789 231.455 8.91634 231.438C9.18479 231.422 9.44734 231.352 9.68902 231.234C9.9307 231.116 10.1468 230.952 10.3249 230.75C13.1762 227.524 16.9936 225.306 21.2082 224.425C21.3889 224.376 21.5621 224.303 21.7233 224.208L24.8555 227.018C25.052 227.217 25.2868 227.373 25.5458 227.477C25.8047 227.581 26.0822 227.632 26.3613 227.625C26.6403 227.618 26.9151 227.555 27.1687 227.438C27.4223 227.321 27.6494 227.154 27.8361 226.947C28.0228 226.739 28.1651 226.495 28.2543 226.231C28.3435 225.966 28.3777 225.686 28.3549 225.408C28.332 225.13 28.2526 224.859 28.1214 224.613C27.9903 224.366 27.8101 224.149 27.5921 223.975L22.7254 219.608C29.0481 206.165 34.5417 192.346 39.1753 178.231C41.3185 171.682 43.2204 165.016 44.9941 158.317C54.1344 171.55 67.4783 181.307 82.8607 186.004V239.425L71.9209 249.193C71.8927 249.217 68.2584 252.454 68.2258 252.486H91.0488V187.93C95.1847 188.687 99.3794 189.079 103.584 189.099C105.605 189.099 107.592 188.962 109.57 188.797L116.141 252.484H138.949L122.907 238.16L117.702 187.68C132.193 184.738 145.405 177.349 155.497 166.542C178.68 181.587 188.231 185.48 192.826 185.48C195.374 185.48 196.402 184.289 197.391 183.139C200.836 179.144 200.986 173.319 171.225 140.132H171.231ZM189.535 176.366C185.742 175.023 177.67 171.067 160.802 160.179C163.496 156.545 165.837 152.661 167.793 148.581C182.217 164.872 187.592 172.708 189.529 176.366H189.535Z" fill="#87CEDA"/>
<path d="M174.036 103.65C167.817 72.6433 141.544 49.053 110.127 46.2925C89.6947 44.4884 70.1321 51.0744 55.0798 64.8508C47.7366 71.5904 41.8717 79.7802 37.8557 88.9024C33.8396 98.0247 31.76 107.881 31.7482 117.848C31.7465 128.3 34.047 138.625 38.4864 148.087C36.0954 158.038 33.5849 166.998 30.8113 175.488C26.1254 189.761 20.5403 203.722 14.0897 217.289C11.44 217.339 9.21207 217.465 7.11235 217.687C5.64299 217.843 4.18665 218.037 2.78684 218.263C2.09107 218.375 1.46799 218.758 1.05378 219.328C0.639575 219.898 0.467899 220.609 0.576262 221.306C0.669371 221.891 0.955208 222.428 1.38837 222.832C1.82154 223.236 2.37721 223.484 2.96724 223.536C2.334 223.91 1.73337 224.289 1.16533 224.675C0.582884 225.072 0.181228 225.684 0.0480609 226.376C-0.0851064 227.068 0.0610262 227.785 0.454553 228.37C0.860717 228.941 1.47142 229.334 2.15965 229.466C2.84787 229.599 3.56064 229.461 4.14971 229.081C5.1061 228.429 6.10597 227.829 7.11235 227.277L6.79934 227.622C6.56699 227.884 6.38866 228.189 6.27456 228.52C6.16046 228.851 6.11285 229.201 6.13446 229.551C6.15607 229.9 6.24648 230.242 6.40049 230.556C6.5545 230.871 6.76909 231.151 7.03193 231.383C7.56831 231.833 8.2573 232.06 8.9564 232.017C9.65551 231.974 10.3112 231.663 10.7879 231.15C13.5527 228.022 17.2542 225.871 21.3409 225.018C21.438 224.999 21.5327 224.969 21.6234 224.929L24.4491 227.464C24.9828 227.917 25.6699 228.148 26.3689 228.11C27.068 228.072 27.7259 227.768 28.2073 227.259C28.4416 227 28.6224 226.696 28.7392 226.366C28.856 226.037 28.9065 225.687 28.888 225.338C28.8694 224.988 28.782 224.646 28.6309 224.331C28.4798 224.015 28.2679 223.732 28.0074 223.499L23.4775 219.439C29.732 206.103 35.176 192.401 39.7797 178.409C41.6164 172.806 43.3683 166.841 45.2724 159.732C54.3916 172.403 67.3729 181.776 82.2696 186.445V239.149L72.8296 247.57L71.5254 248.728C71.5145 248.741 70.5929 249.561 69.6735 250.382L67.8324 252.026C67.7336 252.107 67.6626 252.216 67.6293 252.34C67.5959 252.463 67.602 252.594 67.6465 252.713C67.6911 252.833 67.7719 252.936 67.8777 253.007C67.9835 253.079 68.109 253.116 68.2367 253.112H91.0597C91.1405 253.113 91.2206 253.097 91.2953 253.066C91.3701 253.036 91.438 252.991 91.4953 252.934C91.5526 252.877 91.5982 252.809 91.6294 252.735C91.6605 252.66 91.6767 252.58 91.677 252.499V188.652C95.6128 189.339 99.5997 189.692 103.595 189.706C105.456 189.706 107.29 189.588 109.029 189.451L115.533 252.447C115.53 252.46 115.53 252.473 115.533 252.486C115.533 252.649 115.598 252.805 115.713 252.92C115.829 253.035 115.985 253.099 116.148 253.099H138.955C139.08 253.1 139.202 253.062 139.304 252.992C139.407 252.921 139.486 252.821 139.53 252.705C139.575 252.588 139.582 252.461 139.553 252.34C139.523 252.219 139.457 252.11 139.364 252.028L123.497 237.862L118.367 188.171C132.587 185.198 145.439 178.005 155.59 167.335C175.614 180.307 187.108 186.093 192.826 186.093C195.652 186.093 196.819 184.739 197.856 183.541C201.612 179.194 201.953 173.506 171.918 139.982C175.76 128.259 176.49 115.739 174.036 103.65ZM196.93 182.741C195.946 183.883 195.094 184.865 192.833 184.865C187.399 184.865 175.64 178.879 155.836 166.024C155.714 165.948 155.57 165.915 155.428 165.933C155.285 165.95 155.153 166.016 155.053 166.12C144.894 176.947 131.937 184.193 117.584 187.078C117.434 187.107 117.3 187.192 117.209 187.316C117.118 187.439 117.077 187.593 117.093 187.745L122.31 238.227C122.327 238.379 122.4 238.52 122.514 238.621L137.351 251.88H116.717L110.196 188.732C110.18 188.581 110.109 188.441 109.995 188.339C109.882 188.238 109.735 188.182 109.583 188.182H109.531C107.664 188.339 105.647 188.484 103.597 188.484C99.4288 188.465 95.2703 188.077 91.1706 187.323C91.0818 187.304 90.9898 187.306 90.9021 187.33C90.8144 187.353 90.7336 187.397 90.6663 187.458C90.5982 187.516 90.5434 187.588 90.5058 187.669C90.4683 187.75 90.4489 187.838 90.4489 187.928V251.878H69.8495C70.0539 251.693 70.2734 251.5 70.4886 251.304C71.3906 250.502 72.2905 249.7 72.334 249.656L74.475 247.746L83.2782 239.89C83.345 239.833 83.3989 239.763 83.4364 239.683C83.4739 239.604 83.4941 239.517 83.4955 239.429V186.004C83.4951 185.872 83.4527 185.744 83.3745 185.638C83.2963 185.533 83.1865 185.454 83.0608 185.415C67.8168 180.744 54.5906 171.074 45.5159 157.964C45.4488 157.869 45.3561 157.794 45.2484 157.749C45.1406 157.704 45.0224 157.691 44.9073 157.71C44.7917 157.73 44.6843 157.783 44.5979 157.862C44.5116 157.942 44.45 158.044 44.4204 158.158C42.388 165.809 40.5426 172.128 38.6059 178.04C33.9741 192.127 28.4878 205.919 22.1777 219.339C22.1213 219.458 22.1049 219.592 22.1307 219.721C22.1565 219.85 22.2233 219.968 22.3212 220.056L27.1901 224.425C27.4719 224.679 27.6416 225.035 27.662 225.414C27.6823 225.794 27.5518 226.165 27.2988 226.449C27.0387 226.722 26.6841 226.885 26.3074 226.905C25.9308 226.926 25.5607 226.801 25.2729 226.557L22.1408 223.747C22.0292 223.668 21.898 223.622 21.7617 223.614C21.6255 223.605 21.4895 223.635 21.3691 223.699C21.2811 223.752 21.1869 223.795 21.0887 223.825C18.5303 224.365 16.0967 225.382 13.9158 226.825C12.4209 227.817 11.0624 229.001 9.87502 230.346C9.61791 230.622 9.26455 230.789 8.88794 230.812C8.51134 230.835 8.14027 230.713 7.85139 230.47C7.70959 230.346 7.59375 230.195 7.51059 230.025C7.42744 229.856 7.37861 229.672 7.36689 229.484C7.35517 229.296 7.38081 229.108 7.44232 228.929C7.50384 228.751 7.60001 228.587 7.7253 228.446C8.64881 227.423 9.66136 226.484 10.751 225.64C10.8678 225.549 10.9476 225.418 10.9756 225.273C11.0037 225.127 10.9781 224.977 10.9036 224.849C10.8291 224.721 10.7107 224.624 10.5704 224.576C10.43 224.529 10.2772 224.534 10.1402 224.59C9.94674 224.668 9.74677 224.734 9.55115 224.808C9.26299 224.898 8.97999 225.004 8.70343 225.125C6.87962 225.963 5.12887 226.952 3.46936 228.081C3.15026 228.283 2.76595 228.357 2.39479 228.286C2.02362 228.214 1.69352 228.004 1.47179 227.698C1.26101 227.382 1.18321 226.995 1.2552 226.622C1.32719 226.249 1.54319 225.918 1.85653 225.703C3.28072 224.751 4.76558 223.894 6.3016 223.136C6.43123 223.071 6.53373 222.962 6.591 222.829C6.64827 222.696 6.65662 222.547 6.61458 222.408C6.57045 222.27 6.48026 222.152 6.35915 222.072C6.23804 221.993 6.09339 221.958 5.94947 221.973L5.40607 222.043C4.74094 222.123 4.08233 222.208 3.44981 222.308C3.07475 222.366 2.69181 222.274 2.38444 222.051C2.07706 221.829 1.87014 221.493 1.80871 221.119C1.7479 220.744 1.83854 220.36 2.0607 220.052C2.28286 219.744 2.61833 219.536 2.99333 219.476C4.37792 219.258 5.81905 219.06 7.25364 218.908C9.42726 218.691 11.7248 218.554 14.5048 218.511C14.6197 218.509 14.7319 218.476 14.8287 218.414C14.9255 218.352 15.003 218.264 15.0526 218.161C21.5836 204.438 27.2328 190.313 31.9655 175.871C34.7717 167.294 37.3083 158.232 39.7167 148.163C39.7496 148.028 39.7358 147.886 39.6775 147.759C35.2547 138.408 32.9615 128.192 32.9632 117.848C32.9745 108.049 35.0194 98.3592 38.9685 89.3913C42.9176 80.4234 48.685 72.3727 55.9058 65.7485C70.6864 52.209 89.8773 45.7382 110.012 47.5075C140.89 50.2311 166.721 73.4149 172.829 103.889C175.272 115.889 174.523 128.319 170.656 139.939C170.626 140.031 170.619 140.129 170.635 140.225C170.65 140.321 170.688 140.412 170.745 140.491C170.765 140.519 170.787 140.546 170.812 140.571C200.258 173.425 200.067 179.101 196.93 182.741Z" fill="#343538"/>
<path d="M124.473 103.715C122.555 102.621 120.409 101.986 118.204 101.863C115.999 101.739 113.795 102.129 111.767 103.003C109.739 103.876 107.941 105.209 106.516 106.896C105.09 108.583 104.076 110.577 103.554 112.723C103.031 114.869 103.014 117.106 103.504 119.26C103.994 121.413 104.977 123.423 106.377 125.132C107.776 126.84 109.553 128.2 111.568 129.104C113.583 130.008 115.78 130.432 117.987 130.342L122.842 147.455C123.423 149.566 125.312 150.887 127.064 150.407C128.816 149.926 129.765 147.822 129.185 145.712L124.318 128.558C126.536 127.337 128.388 125.546 129.683 123.37C130.978 121.195 131.668 118.713 131.684 116.182C131.7 113.65 131.04 111.16 129.772 108.969C128.504 106.777 126.675 104.964 124.473 103.715ZM119.891 125.112C119.083 125.334 118.25 125.446 117.413 125.447C115.155 125.445 112.974 124.624 111.275 123.136C109.576 121.649 108.474 119.596 108.173 117.358C107.872 115.121 108.392 112.849 109.637 110.966C110.883 109.082 112.769 107.714 114.946 107.115C116.127 106.79 117.362 106.702 118.577 106.854C119.793 107.006 120.968 107.397 122.033 108.003C123.098 108.609 124.033 109.419 124.785 110.387C125.537 111.354 126.091 112.46 126.416 113.642C126.74 114.824 126.829 116.058 126.677 117.274C126.524 118.49 126.134 119.664 125.528 120.729C124.922 121.794 124.112 122.73 123.144 123.482C122.176 124.234 121.07 124.788 119.889 125.112H119.891Z" fill="#343538"/>
<path d="M93.288 111.066C92.1521 111.066 91.0417 111.403 90.0972 112.034C89.1528 112.665 88.4168 113.562 87.9822 114.612C87.5476 115.661 87.434 116.816 87.6558 117.93C87.8776 119.044 88.4247 120.067 89.2281 120.87C90.0314 121.673 91.0549 122.22 92.169 122.441C93.2831 122.663 94.4378 122.549 95.4871 122.114C96.5364 121.679 97.4332 120.942 98.0639 119.998C98.6947 119.053 99.0311 117.943 99.0307 116.807C99.031 116.053 98.8826 115.306 98.5941 114.609C98.3056 113.912 97.8826 113.279 97.3492 112.746C96.8159 112.213 96.1826 111.79 95.4858 111.502C94.7889 111.214 94.0421 111.066 93.288 111.066Z" fill="white"/>
<path d="M92.2422 114.342C91.4968 114.342 90.7681 114.563 90.1482 114.977C89.5284 115.391 89.0453 115.98 88.7601 116.669C88.4748 117.357 88.4001 118.115 88.5456 118.846C88.691 119.577 89.05 120.249 89.5771 120.776C90.1042 121.303 90.7758 121.662 91.5069 121.808C92.238 121.953 92.9959 121.878 93.6846 121.593C94.3733 121.308 94.9619 120.825 95.3761 120.205C95.7902 119.585 96.0112 118.856 96.0112 118.111C96.0115 117.616 95.9142 117.126 95.7249 116.668C95.5356 116.211 95.258 115.795 94.908 115.445C94.5579 115.095 94.1423 114.818 93.6849 114.628C93.2275 114.439 92.7372 114.342 92.2422 114.342Z" fill="#343538"/>
<path d="M117.419 109.658C116.007 109.658 114.626 110.077 113.451 110.862C112.277 111.647 111.361 112.762 110.82 114.067C110.28 115.372 110.138 116.808 110.414 118.194C110.69 119.579 111.37 120.852 112.369 121.851C113.368 122.85 114.64 123.53 116.026 123.806C117.411 124.081 118.847 123.94 120.153 123.399C121.458 122.859 122.573 121.943 123.358 120.769C124.143 119.594 124.562 118.213 124.562 116.8C124.562 114.906 123.809 113.089 122.47 111.75C121.13 110.41 119.314 109.658 117.419 109.658Z" fill="white"/>
<path d="M116.374 122.797C118.962 122.797 121.06 120.699 121.06 118.111C121.06 115.523 118.962 113.425 116.374 113.425C113.786 113.425 111.688 115.523 111.688 118.111C111.688 120.699 113.786 122.797 116.374 122.797Z" fill="#343538"/>
<path d="M102.156 126.795C101.63 126.795 101.115 126.951 100.678 127.243C100.24 127.535 99.8993 127.951 99.6979 128.437C99.4965 128.923 99.4438 129.458 99.5465 129.974C99.6491 130.49 99.9025 130.964 100.275 131.336C100.647 131.709 101.121 131.962 101.637 132.065C102.153 132.167 102.688 132.115 103.174 131.913C103.66 131.712 104.076 131.371 104.368 130.933C104.66 130.496 104.816 129.981 104.816 129.455C104.815 128.75 104.534 128.074 104.035 127.576C103.537 127.077 102.861 126.796 102.156 126.795ZM102.156 130.885C101.872 130.886 101.595 130.803 101.359 130.646C101.122 130.489 100.938 130.265 100.829 130.004C100.72 129.742 100.691 129.454 100.746 129.175C100.801 128.897 100.937 128.642 101.138 128.441C101.338 128.24 101.594 128.104 101.872 128.048C102.15 127.993 102.438 128.021 102.7 128.13C102.962 128.238 103.186 128.422 103.343 128.658C103.501 128.894 103.584 129.172 103.584 129.455C103.584 129.834 103.434 130.198 103.166 130.466C102.898 130.734 102.535 130.885 102.156 130.885Z" fill="#343538"/>
<path d="M183.102 166.889C184.476 168.608 185.884 170.53 187.271 172.658C188.097 173.926 188.852 175.162 189.536 176.366C184.102 174.445 169.958 167.211 133.641 141.829C133.205 139.468 132.134 137.271 130.542 135.474C129.672 134.506 127.37 131.931 123.399 131.459C120.139 131.063 117.556 132.329 116.309 133.12C115.864 133.416 115.552 133.875 115.441 134.399C115.329 134.922 115.427 135.468 115.712 135.92C115.998 136.372 116.449 136.695 116.97 136.819C117.49 136.943 118.038 136.859 118.498 136.584C119.81 135.748 121.365 135.376 122.914 135.528C123.572 135.614 124.211 135.808 124.805 136.104C124.502 136.015 124.195 135.943 123.884 135.887C119.647 135.291 116.576 137.982 116.002 138.528C115.789 138.708 115.616 138.931 115.492 139.181C115.368 139.431 115.297 139.704 115.282 139.983C115.268 140.262 115.31 140.54 115.407 140.802C115.504 141.064 115.654 141.303 115.846 141.505C116.039 141.707 116.271 141.868 116.528 141.977C116.785 142.086 117.062 142.141 117.341 142.14C117.62 142.138 117.896 142.079 118.152 141.967C118.407 141.855 118.638 141.692 118.828 141.488C119.032 141.293 120.886 139.608 123.29 139.945C123.97 140.058 124.617 140.315 125.19 140.697C124.376 140.516 123.537 140.471 122.708 140.562C120.1 140.858 118.35 142.421 117.541 143.325C117.361 143.526 117.223 143.761 117.134 144.015C117.045 144.27 117.007 144.54 117.022 144.809C117.038 145.079 117.106 145.342 117.223 145.585C117.34 145.828 117.504 146.046 117.705 146.226C117.907 146.405 118.141 146.544 118.396 146.633C118.651 146.722 118.92 146.759 119.19 146.744C119.459 146.729 119.723 146.661 119.966 146.544C120.209 146.427 120.426 146.263 120.606 146.061C121.026 145.594 121.91 144.783 123.182 144.64C124.921 144.453 126.738 145.566 127.729 147.435C127.794 147.559 127.918 147.618 128.003 147.722L127.92 147.839C171.888 178.622 186.728 185.48 192.831 185.48C195.379 185.48 196.407 184.289 197.396 183.139C197.915 182.471 198.35 181.741 198.689 180.965C199.476 179.068 195.85 170.873 188.827 160.899C186.92 162.89 185.012 164.886 183.102 166.889Z" fill="#87CEDA"/>
<path d="M188.342 161.277C200.18 176.573 199.158 180.159 196.93 182.746C195.946 183.887 195.094 184.869 192.833 184.869C185.382 184.869 164.963 173.012 128.596 147.561C128.575 147.474 128.532 147.394 128.472 147.327C128.414 147.257 128.347 147.197 128.272 147.146C127.168 145.066 125.099 143.814 123.114 144.029C121.649 144.195 120.63 145.116 120.145 145.651C119.892 145.934 119.537 146.105 119.157 146.127C118.778 146.148 118.406 146.018 118.122 145.765C117.839 145.512 117.668 145.157 117.646 144.777C117.625 144.398 117.755 144.026 118.008 143.742C118.756 142.903 120.378 141.454 122.79 141.18C123.552 141.098 124.322 141.139 125.07 141.304C125.212 141.337 125.361 141.318 125.489 141.25C125.617 141.182 125.717 141.07 125.768 140.934C125.823 140.8 125.828 140.651 125.783 140.513C125.738 140.375 125.646 140.258 125.523 140.182C124.876 139.755 124.146 139.469 123.382 139.343C120.665 138.939 118.632 140.838 118.408 141.054C118.277 141.188 118.118 141.292 117.943 141.36C117.768 141.428 117.581 141.459 117.393 141.449C117.109 141.445 116.832 141.356 116.599 141.193C116.366 141.031 116.186 140.803 116.082 140.538C115.979 140.274 115.956 139.984 116.018 139.707C116.079 139.429 116.222 139.176 116.428 138.98C116.965 138.469 119.854 135.948 123.794 136.502C124.014 136.54 124.232 136.59 124.447 136.65L124.647 136.704C124.794 136.742 124.951 136.723 125.085 136.652C125.22 136.581 125.324 136.462 125.376 136.319C125.428 136.176 125.425 136.018 125.368 135.877C125.311 135.736 125.203 135.621 125.066 135.554C124.412 135.228 123.707 135.014 122.982 134.922C121.292 134.741 119.591 135.146 118.165 136.07C117.841 136.272 117.451 136.34 117.078 136.259C116.803 136.195 116.552 136.052 116.357 135.847C116.163 135.642 116.033 135.384 115.984 135.106C115.935 134.828 115.97 134.541 116.083 134.282C116.197 134.023 116.384 133.803 116.622 133.65C117.806 132.903 120.234 131.694 123.312 132.079C127.059 132.527 129.246 134.972 130.07 135.896C131.594 137.603 132.621 139.696 133.039 141.947C133.071 142.103 133.161 142.242 133.291 142.334C168.701 167.083 183.31 174.814 189.336 176.944C189.452 176.984 189.578 176.988 189.697 176.956C189.816 176.924 189.923 176.858 190.005 176.766C190.086 176.673 190.137 176.557 190.151 176.434C190.165 176.311 190.141 176.187 190.083 176.077C188.86 173.762 186.619 170.471 183.536 166.439L182.617 167.263C185.038 170.432 186.895 173.078 188.151 175.164C182.141 172.647 167.769 164.918 134.197 141.473C133.72 139.093 132.618 136.882 131.004 135.068C130.096 134.052 127.687 131.353 123.479 130.853C120.015 130.418 117.308 131.77 115.985 132.603C115.566 132.868 115.229 133.244 115.012 133.69C114.795 134.136 114.707 134.634 114.758 135.127C114.808 135.62 114.995 136.09 115.298 136.482C115.601 136.875 116.007 137.175 116.472 137.35C116.162 137.58 115.866 137.827 115.585 138.091C115.331 138.333 115.128 138.622 114.987 138.942C114.845 139.262 114.769 139.607 114.761 139.957C114.753 140.307 114.814 140.655 114.941 140.981C115.068 141.307 115.258 141.605 115.5 141.858C115.977 142.358 116.631 142.652 117.321 142.677C117.241 142.762 117.165 142.847 117.093 142.925C116.623 143.452 116.381 144.144 116.421 144.849C116.461 145.555 116.779 146.215 117.306 146.686C117.833 147.156 118.525 147.398 119.231 147.358C119.936 147.318 120.596 146.999 121.067 146.472C121.43 146.068 122.199 145.37 123.255 145.249C124.684 145.101 126.32 146.079 127.192 147.731C127.226 147.792 127.266 147.85 127.311 147.903C127.311 147.903 127.311 147.929 127.311 147.94C127.324 148.02 127.352 148.098 127.396 148.167C127.439 148.236 127.496 148.296 127.564 148.342C175.359 181.816 187.555 186.098 192.829 186.098C195.654 186.098 196.822 184.743 197.858 183.546C201.028 179.872 200.599 175.114 189.307 160.525L188.342 161.277Z" fill="#343538"/>
</svg>
